<?xml version="1.0" encoding="utf-8"?>
<!-- Generator: Adobe Illustrator 21.1.0, SVG Export Plug-In . SVG Version: 6.00 Build 0)  -->
<svg version="1.1" id="Layer_1" xmlns="http://www.w3.org/2000/svg" xmlns:xlink="http://www.w3.org/1999/xlink" x="0px" y="0px"
	 viewBox="0 0 198 47.4" style="enable-background:new 0 0 198 47.4;" xml:space="preserve">
<style type="text/css">
	.st0{fill:none;stroke:#55606D;stroke-width:3.15;stroke-linecap:round;stroke-miterlimit:10;}
	.st1{clip-path:url(#SVGID_2_);fill:#55606D;}
	.st2{fill:none;stroke:#55606D;stroke-width:3.15;stroke-miterlimit:10;}
	.st3{clip-path:url(#SVGID_4_);fill:#55606D;}
	.st4{enable-background:new    ;}
	.st5{fill:#55606D;}
</style>
<path class="st0" d="M18.5,31.1c0,0,1.9,6.3,8.1,6.3s7.6-5,7.9-6.3"/>
<g>
	<g>
		<g>
			<defs>
				<path id="SVGID_1_" d="M9.9,13.1c1.2,0,2.2,1,2.2,2.2s-1,2.2-2.2,2.2s-2.2-1-2.2-2.2C7.6,14.1,8.6,13.1,9.9,13.1"/>
			</defs>
			<clipPath id="SVGID_2_">
				<use xlink:href="#SVGID_1_"  style="overflow:visible;"/>
			</clipPath>
			<rect x="2.6" y="8.1" class="st1" width="14.5" height="14.5"/>
		</g>
	</g>
</g>
<path class="st0" d="M6.2,4c0,0,3.4-3.8,6.6,0"/>
<path class="st2" d="M24,20c0,1.2-1,2.1-2.1,2.1H4.8c-1.2,0-2.1-1-2.1-2.1v-9.3c0-1.2,1-2.1,2.1-2.1h17.1c1.2,0,2.1,1,2.1,2.1
	C24,10.7,24,20,24,20z"/>
<g>
	<g>
		<g>
			<defs>
				<path id="SVGID_3_" d="M36.2,13.1c1.2,0,2.2,1,2.2,2.2s-1,2.2-2.2,2.2s-2.2-1-2.2-2.2S35,13.1,36.2,13.1"/>
			</defs>
			<clipPath id="SVGID_4_">
				<use xlink:href="#SVGID_3_"  style="overflow:visible;"/>
			</clipPath>
			<rect x="29" y="8.1" class="st3" width="14.5" height="14.5"/>
		</g>
	</g>
</g>
<path class="st0" d="M32.6,4c0,0,3.4-3.8,6.6,0"/>
<path class="st2" d="M50.4,20c0,1.2-1,2.1-2.1,2.1H31.1c-1.2,0-2.1-1-2.1-2.1v-9.3c0-1.2,1-2.1,2.1-2.1h17.1c1.2,0,2.1,1,2.1,2.1V20
	H50.4z"/>
<g class="st4">
	<path class="st5" d="M84,10l-0.7,3.9h-7.1l-3.8,18.8h-4.3l3.8-18.8h-7.1l0.7-3.9H84z"/>
</g>
<g class="st4">
	<path class="st5" d="M94.8,16.2c1.3,0.7,2.2,1.6,2.9,2.8c0.7,1.2,1,2.6,1,4.1c0,1.9-0.4,3.6-1.3,5c-0.9,1.5-2.1,2.6-3.6,3.4
		c-1.5,0.8-3.2,1.2-5.2,1.2c-1.7,0-3.1-0.3-4.4-1C83,31.2,82,30.2,81.4,29c-0.7-1.2-1-2.6-1-4.2c0-1.9,0.4-3.5,1.3-5
		c0.9-1.5,2.1-2.6,3.6-3.4c1.5-0.8,3.3-1.2,5.2-1.2C92.1,15.2,93.5,15.5,94.8,16.2z M87.3,19.5c-0.8,0.5-1.5,1.2-2,2.1
		c-0.5,0.9-0.7,1.9-0.7,3c0,1.4,0.4,2.5,1.2,3.4c0.8,0.9,1.9,1.3,3.2,1.3c1,0,2-0.2,2.8-0.7c0.8-0.5,1.5-1.2,1.9-2.1s0.7-1.9,0.7-3
		c0-1.4-0.4-2.5-1.2-3.4c-0.8-0.9-1.8-1.3-3.2-1.3C89.1,18.8,88.1,19,87.3,19.5z"/>
	<path class="st5" d="M104.2,31.9c-1.1-0.6-1.9-1.6-2.5-2.7c-0.6-1.2-0.9-2.5-0.9-4c0-1.9,0.4-3.5,1.2-5.1c0.8-1.5,1.9-2.7,3.4-3.6
		s3-1.3,4.8-1.3c1.4,0,2.7,0.3,3.7,0.9c1,0.6,1.7,1.5,2.2,2.7l2.1-10.1h4.2l-4.8,24h-4.2l0.5-2.4c-0.8,0.8-1.7,1.5-2.7,1.9
		c-1,0.4-2.1,0.7-3.2,0.7C106.5,32.9,105.3,32.5,104.2,31.9z M112.3,28.6c0.9-0.5,1.5-1.3,2-2.2c0.5-0.9,0.7-1.9,0.7-3
		c0-1.4-0.4-2.5-1.2-3.3c-0.8-0.8-1.8-1.2-3.1-1.2c-1,0-2,0.3-2.9,0.8c-0.9,0.5-1.6,1.3-2.1,2.2c-0.5,0.9-0.8,1.9-0.8,3
		c0,1.4,0.4,2.5,1.2,3.3c0.8,0.8,1.8,1.2,3.1,1.2C110.5,29.4,111.4,29.1,112.3,28.6z"/>
	<path class="st5" d="M137.6,16.2c1.3,0.7,2.2,1.6,2.9,2.8c0.7,1.2,1,2.6,1,4.1c0,1.9-0.4,3.6-1.3,5c-0.9,1.5-2.1,2.6-3.6,3.4
		c-1.5,0.8-3.2,1.2-5.2,1.2c-1.7,0-3.1-0.3-4.4-1c-1.3-0.7-2.2-1.6-2.9-2.8c-0.7-1.2-1-2.6-1-4.2c0-1.9,0.4-3.5,1.3-5
		c0.9-1.5,2.1-2.6,3.6-3.4c1.5-0.8,3.3-1.2,5.2-1.2C134.8,15.2,136.3,15.5,137.6,16.2z M130.1,19.5c-0.8,0.5-1.5,1.2-2,2.1
		c-0.5,0.9-0.7,1.9-0.7,3c0,1.4,0.4,2.5,1.2,3.4c0.8,0.9,1.9,1.3,3.2,1.3c1,0,2-0.2,2.8-0.7c0.8-0.5,1.5-1.2,1.9-2.1
		c0.5-0.9,0.7-1.9,0.7-3c0-1.4-0.4-2.5-1.2-3.4c-0.8-0.9-1.8-1.3-3.2-1.3C131.8,18.8,130.9,19,130.1,19.5z"/>
	<path class="st5" d="M163.1,11.6c1.3,1.1,2,2.6,2,4.6c0,1.9-0.4,3.7-1.3,5.1s-2.1,2.6-3.8,3.4c-1.6,0.8-3.5,1.2-5.8,1.2h-5
		l-1.3,6.7h-4.3l4.5-22.7h9.3C159.9,10,161.8,10.5,163.1,11.6z M159.3,20.8c1.1-0.9,1.6-2.1,1.6-3.8c0-1.1-0.4-1.9-1.1-2.4
		c-0.7-0.6-1.8-0.8-3.2-0.8h-4.8l-1.7,8.4h4.7C156.7,22.2,158.2,21.7,159.3,20.8z"/>
	<path class="st5" d="M169.3,31.9c-1.1-0.6-1.9-1.6-2.5-2.7c-0.6-1.2-0.9-2.5-0.9-4c0-1.9,0.4-3.5,1.2-5.1s1.9-2.7,3.4-3.6
		c1.4-0.9,3-1.3,4.8-1.3c1.4,0,2.7,0.3,3.7,0.9c1,0.6,1.7,1.5,2.2,2.7l0.7-3.4h4.2l-3.5,17.3h-4.2l0.5-2.4c-0.8,0.8-1.7,1.5-2.7,1.9
		c-1,0.4-2.1,0.7-3.2,0.7C171.6,32.9,170.4,32.5,169.3,31.9z M177.3,28.6c0.9-0.5,1.5-1.3,2-2.2c0.5-0.9,0.7-1.9,0.7-3
		c0-1.4-0.4-2.5-1.2-3.3c-0.8-0.8-1.8-1.2-3.1-1.2c-1,0-2,0.3-2.9,0.8s-1.5,1.3-2.1,2.2c-0.5,0.9-0.8,1.9-0.8,3
		c0,1.4,0.4,2.5,1.2,3.3c0.8,0.8,1.8,1.2,3.1,1.2C175.5,29.4,176.5,29.1,177.3,28.6z"/>
	<path class="st5" d="M197,8.6l-4.8,24H188l4.8-24H197z"/>
</g>
</svg>
