<svg width="1200" height="960" viewBox="0 0 1200 960" fill="none" xmlns="http://www.w3.org/2000/svg">
<rect width="1200" height="960" fill="#E0E8FE"/>
<path d="M558.943 468.324H1136.7V884.171H558.943V468.324Z" fill="#956CFA" stroke="black" stroke-width="2" stroke-miterlimit="10" stroke-linecap="round" stroke-linejoin="round"/>
<path d="M700.538 801.115L161.758 801.115L161.758 718.039L700.538 718.039L700.538 801.115Z" fill="#DBCCFF" stroke="black" stroke-width="2" stroke-miterlimit="10"/>
<path d="M599.78 884.006L61 884.006L61 800.93L599.78 800.93L599.78 884.006Z" fill="#DBCCFF" stroke="black" stroke-width="2" stroke-miterlimit="10"/>
<path d="M771.62 718.034L232.84 718.034L232.84 634.958L771.62 634.958L771.62 718.034Z" fill="#DBCCFF" stroke="black" stroke-width="2" stroke-miterlimit="10"/>
<path d="M826.22 634.929L287.44 634.929L287.44 551.853L826.22 551.853L826.22 634.929Z" fill="#DBCCFF" stroke="black" stroke-width="2" stroke-miterlimit="10"/>
<path d="M894.907 551.757L356.127 551.757L356.127 468.681L894.907 468.681L894.907 551.757Z" fill="#DBCCFF" stroke="black" stroke-width="2" stroke-miterlimit="10"/>
<path d="M625.367 532.77H599.994L568.119 500.961L597.471 499.255L625.367 532.77Z" fill="#C2462C" stroke="black" stroke-width="2" stroke-miterlimit="10"/>
<path d="M602.09 526.166C603.218 523.06 600.917 519.78 597.616 519.78H588.473C587.311 519.78 586.188 520.208 585.316 520.975L579.452 526.166L535.188 538.639C529.474 540.251 525.528 545.458 525.528 551.394H590.101L600.517 548.271V551.745H641.502L621.365 526.166H602.09Z" fill="black"/>
<path d="M558.859 533.203L570.176 539.067C571.448 539.728 572.932 539.867 574.305 539.456C579.024 538.05 579.702 531.647 575.383 529.284L570.965 526.867C570.515 526.622 569.987 526.561 569.492 526.7L559.232 529.574C557.52 530.052 557.281 532.386 558.859 533.203Z" fill="#EFA360" stroke="black" stroke-width="2" stroke-miterlimit="10"/>
<path d="M662.561 388.139L483.592 385.115C465.757 384.837 449.966 412.917 464.378 426.79C522.849 483.098 558.843 514.312 558.843 514.312H618.536L564.423 454.519C564.423 454.519 590.468 447.56 628.218 454.997C646.699 458.637 696.11 480.136 699.595 444.764C703.085 409.398 662.561 388.139 662.561 388.139Z" fill="#8E191C" stroke="black" stroke-width="2" stroke-miterlimit="10"/>
<path d="M555.135 454.524L534.248 434.393" stroke="black" stroke-width="2" stroke-miterlimit="10" stroke-linecap="round" stroke-linejoin="round"/>
<path d="M665.274 532.77H639.901L608.02 500.961L637.372 499.255L665.274 532.77Z" fill="#C2462C" stroke="black" stroke-width="2" stroke-miterlimit="10"/>
<path d="M641.991 526.166C643.119 523.06 640.818 519.78 637.517 519.78H628.374C627.212 519.78 626.089 520.208 625.217 520.975L619.353 526.166L575.089 538.639C569.375 540.251 565.429 545.458 565.429 551.394H630.002L640.418 548.271V551.745H681.403L661.266 526.166H641.991Z" fill="black"/>
<path d="M598.766 533.203L610.082 539.067C611.355 539.728 612.839 539.867 614.212 539.456C618.931 538.05 619.609 531.647 615.29 529.284L610.872 526.867C610.421 526.622 609.893 526.561 609.399 526.7L599.139 529.574C597.421 530.052 597.182 532.386 598.766 533.203Z" fill="#EFA360" stroke="black" stroke-width="2" stroke-miterlimit="10"/>
<path d="M623.388 221.058C623.388 221.058 624.378 207.369 636.411 203.917C648.45 200.46 663.028 201.005 671.821 211.854C679.636 221.497 683.532 238.877 677.885 250.627C672.238 262.377 686.572 261.326 685.022 279.156C683.104 301.244 650.228 314.322 620.148 308.814C592.474 303.745 579.774 295.175 585.455 274.893C588.662 263.438 603.735 263.766 609.799 257.024C615.863 250.282 611.705 242.707 611.633 235.098C611.561 227.489 623.388 221.058 623.388 221.058Z" fill="black"/>
<path d="M633.176 240.611L626.262 280.979C626.262 280.979 634.91 283.775 640.49 283.725C649.895 283.636 652.924 279.001 652.924 279.001L656.325 252.867L633.176 240.611Z" fill="#F28377" stroke="black" stroke-width="2" stroke-miterlimit="10"/>
<path d="M641.152 251.333C641.152 251.333 642.036 256.263 646.176 260.737C650.317 265.217 654.102 267.44 654.102 267.44L655.658 255.129L641.152 251.333Z" fill="black"/>
<path d="M668.953 217.234C668.953 217.234 674.973 246.597 665.346 253.506C655.725 260.415 640.946 253.378 635.138 245.897C629.33 238.416 631.019 235.403 632.87 233.719C635.316 231.49 637.895 233.669 637.895 233.669C637.895 233.669 635.822 220.035 641.541 217.829C647.26 215.622 668.953 217.234 668.953 217.234Z" fill="#F28377" stroke="black" stroke-width="2" stroke-miterlimit="10"/>
<path d="M663.328 242.434L654.669 240.211C654.669 240.211 653.352 243.735 657.209 245.18C661.761 246.881 663.328 242.434 663.328 242.434Z" fill="white"/>
<path d="M652.179 232.557C651.172 232.557 650.356 231.741 650.356 230.734C650.356 229.727 651.172 228.911 652.179 228.911C653.186 228.911 654.002 229.727 654.002 230.734C654.002 231.741 653.186 232.557 652.179 232.557Z" fill="black"/>
<path d="M665.263 232.502C664.256 232.502 663.44 231.686 663.44 230.679C663.44 229.673 664.256 228.856 665.263 228.856C666.269 228.856 667.086 229.673 667.086 230.679C667.086 231.686 666.269 232.502 665.263 232.502Z" fill="black"/>
<path d="M659.755 229.612C659.755 229.612 662.106 234.77 661.161 236.315C660.216 237.86 658.098 237.305 658.098 237.305" stroke="black" stroke-width="2" stroke-miterlimit="10" stroke-linecap="round" stroke-linejoin="round"/>
<path d="M653.941 225.805L649.239 227.228" stroke="black" stroke-width="2" stroke-miterlimit="10" stroke-linecap="round" stroke-linejoin="round"/>
<path d="M668.592 227.661L664.257 225.344" stroke="black" stroke-width="2" stroke-miterlimit="10" stroke-linecap="round" stroke-linejoin="round"/>
<path d="M702.468 388.139L523.499 385.115C505.663 384.837 489.873 412.917 504.285 426.79C562.756 483.098 598.749 514.312 598.749 514.312H658.443L604.33 454.519C604.33 454.519 624.417 463.445 662.167 470.881C680.647 474.522 702.802 472.465 706.287 437.094C709.777 401.723 702.468 388.139 702.468 388.139Z" fill="#8E191C" stroke="black" stroke-width="2" stroke-miterlimit="10"/>
<path d="M598.449 279.345C598.449 279.345 601.334 270.113 629.602 269.535C639.807 269.33 647.666 269.13 653.552 268.957C667.475 268.557 680.436 276.216 686.611 288.699C687.545 290.584 688.44 292.629 689.268 294.852C695.154 310.554 698.1 316.968 702.913 351.133C706.865 379.179 706.331 400.505 706.331 400.505L632.109 397.187L583.32 395.119L598.449 279.345Z" fill="#FFED94" stroke="black" stroke-width="2" stroke-miterlimit="10" stroke-linecap="round" stroke-linejoin="round"/>
<path d="M620.526 345.708L582.92 342.607C577.312 342.146 571.815 344.363 568.108 348.598C560.338 357.475 547.799 372.354 548.182 375.544C548.56 378.695 553.068 377.734 553.068 377.734C553.068 377.734 551.734 379.34 554.352 381.352C556.325 382.869 558.582 381.258 558.582 381.258C558.582 381.258 558.359 383.536 560.31 384.776C562.589 386.226 564.668 384.531 564.668 384.531C564.668 384.531 563.806 387.683 568.647 387.988C572.343 388.222 588.1 365.595 588.1 365.595C588.1 365.595 596.048 367.073 604.986 368.741C613.923 370.408 625.184 370.258 625.184 370.258L620.526 345.708Z" fill="#F28377" stroke="black" stroke-width="2" stroke-miterlimit="10" stroke-linecap="round" stroke-linejoin="round"/>
<path d="M564.656 384.531L578.263 365.539" stroke="black" stroke-width="2" stroke-miterlimit="10" stroke-linecap="round" stroke-linejoin="round"/>
<path d="M558.448 381.496L572.054 362.499" stroke="black" stroke-width="2" stroke-miterlimit="10" stroke-linecap="round" stroke-linejoin="round"/>
<path d="M553.174 378.095L566.78 359.104" stroke="black" stroke-width="2" stroke-miterlimit="10" stroke-linecap="round" stroke-linejoin="round"/>
<path d="M691.569 291.123L710.288 371.159C710.355 371.47 710.416 371.787 710.472 372.098C712.406 383.52 701.762 393.13 690.468 390.562L601.089 371.703L604.124 339.044L665.257 347.932L651.44 299.332C649.417 288.588 656.186 278.15 666.824 275.616C677.952 272.959 689.101 279.946 691.569 291.123Z" fill="#FFED94" stroke="black" stroke-width="2" stroke-miterlimit="10" stroke-linecap="round" stroke-linejoin="round"/>
<path d="M604.33 454.524L583.448 434.393" stroke="black" stroke-width="2" stroke-miterlimit="10" stroke-linecap="round" stroke-linejoin="round"/>
<path d="M513.294 387.016H647.494V398.198H513.294V387.016Z" fill="#6F4DFB" stroke="black" stroke-width="2" stroke-miterlimit="10" stroke-linecap="round" stroke-linejoin="round"/>
<path d="M576.128 398.243L529.874 320.491H421.187L466.59 398.243H576.128Z" fill="#6F4DFB" stroke="black" stroke-width="2" stroke-miterlimit="10" stroke-linecap="round" stroke-linejoin="round"/>
<path d="M569.603 398.243L523.343 320.491H414.661L460.065 398.243H569.603Z" fill="#C6B0FD" stroke="black" stroke-width="2" stroke-miterlimit="10"/>
<path d="M972.053 765.65C972.053 765.65 965.306 730.612 952.633 725.421C931.629 716.817 917.201 738.254 917.201 738.254" stroke="black" stroke-width="2" stroke-miterlimit="10"/>
<path d="M963.96 699.531C963.96 700.454 972.514 708.085 975.982 723.575C979.451 739.066 979.451 767.5 979.451 767.5" stroke="black" stroke-width="2" stroke-miterlimit="10"/>
<path d="M931.696 596.536C931.696 596.536 943.818 579.545 957.341 637.532C970.864 695.519 976.06 763.899 976.06 763.899" stroke="black" stroke-width="2" stroke-miterlimit="10"/>
<path d="M1016.37 657.291C1016.37 657.291 996.608 665.873 993.746 698.632C990.884 731.396 994.785 765.978 994.785 765.978" stroke="black" stroke-width="2" stroke-miterlimit="10"/>
<path d="M1022.39 704.901C1022.39 704.901 1016.36 690.578 1002.84 689.538C989.327 688.499 985.942 709.297 984.642 726.983C983.341 744.663 985.42 765.984 985.42 765.984" stroke="black" stroke-width="2" stroke-miterlimit="10"/>
<path d="M1027.03 688.237C1027.03 688.237 1012.2 686.42 1006.75 697.597C1001.29 708.78 989.583 757.663 989.327 763.643" stroke="black" stroke-width="2" stroke-miterlimit="10"/>
<path d="M1080.98 741.478C1080.98 741.478 1061.61 713.46 1034.83 721.78C1008.04 730.101 1001.02 766.762 1001.02 766.762" stroke="black" stroke-width="2" stroke-miterlimit="10"/>
<path d="M1055.66 762.949H920.886C920.886 762.949 920.886 839.267 987.46 839.267C1054.03 839.267 1055.66 762.949 1055.66 762.949Z" fill="white" stroke="black" stroke-width="2" stroke-miterlimit="10" stroke-linecap="round" stroke-linejoin="round"/>
<path d="M1054.85 794.201H919.668" stroke="black" stroke-width="5" stroke-miterlimit="10" stroke-linecap="round" stroke-linejoin="round"/>
<path d="M1041.04 813.555L1040.69 897.793C1040.68 900.627 1036.82 901.45 1035.65 898.871L988.271 795.508L945.035 897.748C943.924 900.405 939.966 899.615 939.966 896.731V819.78" stroke="black" stroke-width="5" stroke-miterlimit="10" stroke-linecap="round" stroke-linejoin="round"/>
<path d="M1021.76 832.219L992.957 903.806C992.073 906.013 988.955 906.018 988.066 903.817L960.064 835.303" stroke="black" stroke-width="5" stroke-miterlimit="10" stroke-linecap="round" stroke-linejoin="round"/>
<path d="M1012.57 642.583C1012.57 642.583 1003.88 621.885 1023.75 623.28C1043.36 624.653 1055.25 642.923 1055.25 642.923C1055.25 642.923 1032.21 636.147 1030.52 643.94C1028.83 651.732 1053.9 646.985 1065.07 652.744C1076.24 658.502 1086.07 674.759 1086.07 674.759C1086.07 674.759 1054.42 666.778 1034.91 669.346C1012.33 672.319 999.826 669.607 996.992 660.875C993.118 648.936 1012.57 642.583 1012.57 642.583Z" fill="#6B7240" stroke="black" stroke-width="2" stroke-miterlimit="10" stroke-linecap="round" stroke-linejoin="round"/>
<path d="M953.645 689.321C953.645 689.321 975.66 683.563 973.626 692.028C971.592 700.493 968.885 705.573 940.772 705.912C912.66 706.251 890.311 716.072 890.311 716.072C890.311 716.072 894.713 697.786 902.166 688.977C909.619 680.167 924.52 667.639 936.709 670.012C948.904 672.386 953.645 689.321 953.645 689.321Z" fill="#2E3716" stroke="black" stroke-width="2" stroke-miterlimit="10" stroke-linecap="round" stroke-linejoin="round"/>
<path d="M914.321 731.368C914.321 731.368 921.541 724.065 924.12 729.795C926.916 736.003 925.532 747.103 915.678 761.17C907.379 773.014 904.161 796.73 904.161 796.73C904.161 796.73 893.907 777.333 893.662 760.153C893.479 747.403 895.624 739.527 898.487 732.513C902.071 723.731 907.713 722.258 909.58 722.897C913.382 724.209 914.321 731.368 914.321 731.368Z" fill="#6B7240" stroke="black" stroke-width="2" stroke-miterlimit="10" stroke-linecap="round" stroke-linejoin="round"/>
<path d="M1089.67 743.774C1089.67 743.774 1101.73 739.133 1102.51 750.894C1103.29 762.655 1097.71 766.829 1096.94 771.937C1096.17 777.045 1101.58 782.919 1096.63 792.363C1091.68 801.8 1078.28 816.329 1078.28 816.329C1078.28 816.329 1089.2 792.362 1088.12 779.057C1087.03 765.745 1089.67 743.774 1089.67 743.774Z" fill="black"/>
<path d="M1025.75 684.158C1025.75 684.158 1019.6 680.312 1016.27 684.669C1012.94 689.027 1027.81 704.923 1043.19 712.098C1058.57 719.273 1074.98 719.018 1074.98 719.018C1074.98 719.018 1063.96 706.201 1059.85 696.458C1055.75 686.714 1052.68 675.437 1042.42 672.619C1032.16 669.807 1025.75 684.158 1025.75 684.158Z" fill="black"/>
<path d="M931.696 596.535C931.696 596.535 936.915 607.496 924.91 616.105C912.904 624.715 901.949 634.63 899.076 644.023C896.208 653.416 889.683 658.113 889.683 666.722C889.683 675.332 890.466 678.728 890.466 678.728C890.466 678.728 879.245 664.116 890.728 643.762C902.21 623.409 901.427 620.541 910.297 611.142C919.168 601.749 923.081 586.092 931.173 586.614C939.266 587.137 931.696 596.535 931.696 596.535Z" fill="#2E3716" stroke="black" stroke-width="2" stroke-miterlimit="10" stroke-linecap="round" stroke-linejoin="round"/>
<path d="M955.868 704.845C955.868 704.845 937.143 702.994 922.342 700.682C907.546 698.37 903.383 699.759 899.22 703.917C895.057 708.08 890.305 716.067 890.305 716.067C890.305 716.067 901.766 711.314 916.1 709.464C930.44 707.624 955.868 704.845 955.868 704.845Z" fill="#6B7240" stroke="black" stroke-width="2" stroke-miterlimit="10" stroke-linecap="round" stroke-linejoin="round"/>
<path d="M1022.39 704.9C1022.39 704.9 1017.65 692.367 1033.57 692.706C1049.49 693.045 1060.66 703.883 1063.03 710.658C1065.4 717.434 1062.35 732.674 1062.35 732.674C1062.35 732.674 1051.52 715.399 1045.08 718.79C1038.64 722.175 1059.3 740.805 1059.3 740.805L1048.8 770.269C1048.8 770.269 1037.63 751.982 1020.02 745.546C1002.41 739.11 996.986 728.95 996.314 719.129C995.641 709.308 1000.04 706.256 1005.46 704.228C1010.88 702.199 1022.39 704.9 1022.39 704.9Z" fill="#6B7240" stroke="black" stroke-width="2" stroke-miterlimit="10" stroke-linecap="round" stroke-linejoin="round"/>
<path d="M1080.98 741.478C1080.98 741.478 1086.07 758.753 1084.03 776.361C1082 793.974 1078.27 816.323 1078.27 816.323C1078.27 816.323 1093.51 791.94 1092.83 780.423C1092.16 768.907 1090.46 765.522 1093.17 753.328C1095.88 741.134 1096.9 734.025 1092.16 731.991C1087.42 729.962 1080.98 741.478 1080.98 741.478Z" fill="#2E3716" stroke="black" stroke-width="2" stroke-miterlimit="10" stroke-linecap="round" stroke-linejoin="round"/>
<path d="M769.893 321.003L748.645 333.136C748.645 333.136 733.966 307.597 734.194 305.374C734.422 303.15 737.406 302.989 737.406 302.989C737.406 302.989 735.811 299.727 737.084 298.359C738.823 296.486 740.191 297.654 740.191 297.654C740.191 297.654 738.012 294.824 739.279 293.09C740.647 291.217 741.597 292.24 741.597 292.24C741.597 292.24 732.96 274.143 734.988 273.026C737.017 271.909 747.65 290.534 747.65 290.534L769.893 321.003Z" fill="#F28377" stroke="black" stroke-width="2" stroke-miterlimit="10" stroke-linecap="round" stroke-linejoin="round"/>
<path d="M756.409 307.608C756.003 307.414 748.917 294.908 747.094 295.297C745.271 295.686 749.006 309.309 749.006 309.309C749.006 309.309 747.022 314.611 750.212 321.92" stroke="black" stroke-width="2" stroke-miterlimit="10" stroke-linecap="round" stroke-linejoin="round"/>
<path d="M769.459 318.074C771.26 319.13 778.497 329.413 784.394 337.85C791.669 348.26 795.365 354.379 795.365 354.379C795.365 354.379 798.433 327.901 802.691 316.407C806.948 304.913 815.252 287.227 819.91 287.538C824.567 287.849 844.776 308.964 843.793 320.308C842.809 331.658 821.533 401.339 807.538 406.319C796.572 410.221 781.192 401.917 765.808 373.177C753.152 349.538 745.932 333.031 745.932 333.031L769.459 318.074Z" fill="#8F8F8F" stroke="black" stroke-width="2" stroke-miterlimit="10" stroke-linecap="round" stroke-linejoin="round"/>
<path d="M653.952 591.474L762.429 484.809L866.725 447.509L831.482 404.057L732.315 447.621L618.425 591.474H653.952Z" fill="white" stroke="black" stroke-width="2" stroke-miterlimit="10" stroke-linecap="round" stroke-linejoin="round"/>
<path d="M602.701 623.199L580.825 647.955C580.825 647.955 585.527 652.601 592.236 657.376C598.944 662.15 603.596 661.683 603.596 661.683L628.719 635.205L602.701 623.199Z" fill="black"/>
<path d="M583.837 620.175L565.674 637.839C565.674 637.839 558.782 633.398 550.334 625.783C543.019 619.197 539.395 613.584 539.395 613.584L554.157 593.436L583.837 620.175Z" fill="black"/>
<path d="M635.499 566.468L617.119 592.157L575.662 600.111C575.662 600.111 555.186 591.824 554.152 593.435C553.124 595.047 567.141 616.146 575.206 621.292C583.27 626.439 599.989 626.684 605.13 631.314C610.272 635.943 623.783 638.806 628.719 635.204C633.654 631.608 636.9 610.399 636.9 610.399L660.238 587.049L635.499 566.468Z" fill="black"/>
<path d="M759.16 656.553L751.518 485.543C751.112 476.489 755.331 467.846 762.723 462.593L845.177 404.012L896.316 411.409L885.928 448.843C880.804 467.318 865.875 481.446 847.139 485.543L792.825 497.426L784.472 650.617L759.16 656.553Z" fill="white" stroke="black" stroke-width="2" stroke-miterlimit="10" stroke-linecap="round" stroke-linejoin="round"/>
<path d="M766.842 684.577L764.78 718.331H791.18L794.749 678.074L766.842 684.577Z" fill="black"/>
<path d="M750.095 693.776L746.605 718.181H710.972L710.25 690.896L750.095 693.776Z" fill="black"/>
<path d="M756.554 619.909L757.704 650.806L731.32 682.96C731.32 682.96 710.072 688.996 710.25 690.902C710.427 692.808 734.444 700.845 743.97 699.956C753.497 699.067 766.836 688.99 773.739 689.49C780.642 689.99 793.059 683.949 794.748 678.074C796.433 672.205 785.972 653.474 785.972 653.474L787.806 620.582L756.554 619.909Z" fill="black"/>
<path d="M845.171 404.012L900.924 411.76C900.924 411.76 897.328 464.461 875.624 482.008C853.919 499.554 802.024 510.698 802.024 510.698L793.915 489.972L824.428 468.896L785.478 480.646L727.546 445.024C727.546 445.024 739.474 436.265 764.741 422.742C783.91 412.482 816.258 400.805 816.258 400.805L845.171 404.012Z" fill="#C2462C" stroke="black" stroke-width="2" stroke-miterlimit="10" stroke-linecap="round" stroke-linejoin="round"/>
<path d="M818.348 293.679C813.001 294.463 808.794 298.276 806.859 303.317C803.269 312.66 801.674 321.069 802.263 329.773C803.258 344.546 805.37 352.639 808.516 364.033C811.662 375.427 813.796 390.85 818.576 404.657C823.356 418.463 884.072 435.687 895.822 418.674C907.571 401.661 899.368 351.194 893.426 329.428C890.252 317.784 887.757 309.164 882.982 300.565C877.486 290.672 868.343 286.331 859.917 287.571L818.348 293.679Z" fill="#BFBFBF" stroke="black" stroke-width="2" stroke-miterlimit="10" stroke-linecap="round" stroke-linejoin="round"/>
<path d="M771.633 360.331L801.113 364.194L791.347 408.136L770.065 405.351L771.633 360.331Z" fill="#FFED94" stroke="black" stroke-width="2" stroke-miterlimit="10" stroke-linecap="round" stroke-linejoin="round"/>
<path d="M799.273 374.493C799.273 374.493 801.841 376.928 801.379 379.657C801.079 381.424 800.307 384.159 800.307 384.159L872.578 395.175L852.663 341.873L881.371 328.045C881.371 328.045 904.298 393.897 905.248 400.488C906.193 407.08 905.832 425.655 890.052 425.655C874.273 425.655 781.493 403.418 781.493 403.418C781.493 403.418 764.807 390.612 763.323 388.583C761.834 386.554 763.84 385.226 763.84 385.226C763.84 385.226 762.451 383.053 763.234 381.958C764.018 380.863 765.024 381.074 765.024 381.074C765.024 381.074 763.785 379.001 764.563 377.906C765.341 376.811 766.33 377.184 766.33 377.184C766.33 377.184 765.252 373.854 766.391 373.048C767.531 372.242 769.332 374.31 775.712 377.295C782.093 380.279 785.917 381.497 790.558 381.313C795.204 381.124 797.978 378.779 798.317 378.028C798.656 377.278 799.273 374.493 799.273 374.493Z" fill="#F28377" stroke="black" stroke-width="2" stroke-miterlimit="10" stroke-linecap="round" stroke-linejoin="round"/>
<path d="M842.025 304.962C845.077 296.909 857.51 293.296 862.64 293.969C867.77 294.641 883.566 295.319 891.831 322.209C900.096 349.099 906.821 378.012 908.26 386.482C909.7 394.953 912.768 412.878 906.815 419.425C900.863 425.972 895.616 431.975 877.447 429.596C859.283 427.217 808.449 416.418 802.174 410.816C795.899 405.213 802.652 382.842 809.477 381.825C816.303 380.808 870.783 390.49 870.783 390.49C870.783 390.49 856.176 361.254 847.694 345.014C837.067 324.666 839.002 312.933 842.025 304.962Z" fill="#BFBFBF" stroke="black" stroke-width="2" stroke-miterlimit="10" stroke-linecap="round" stroke-linejoin="round"/>
<path d="M820.61 304.462C823.028 306.285 826.318 306.391 828.875 304.768C833.149 302.05 840.347 298.426 849.106 297.715C863.468 296.553 875.118 294.452 878.341 290.211C885.372 280.957 875.902 270.097 866.219 267.812C856.537 265.528 816.508 279.234 811.678 286.382C807.866 292.029 807.187 296.114 814.257 300.255C816.897 301.8 819.004 303.25 820.61 304.462Z" fill="#8F8F8F" stroke="black" stroke-width="2" stroke-miterlimit="10"/>
<path d="M805.281 229.012C805.281 229.012 803.236 237.994 801.062 248.226C800.857 249.199 804.208 249.021 804.242 249.993C804.442 255.807 805.236 261.46 807.032 263.522C810.683 267.712 818.943 267.223 818.943 267.223L819.743 281.052C820.165 288.377 826.557 293.902 833.86 293.268C841.103 292.64 846.427 286.21 845.688 278.979L844.215 264.533C844.215 264.533 833.171 233.358 822.05 227.972C810.928 222.587 805.281 229.012 805.281 229.012Z" fill="#F28377" stroke="black" stroke-width="2" stroke-miterlimit="10" stroke-linecap="round" stroke-linejoin="round"/>
<path d="M807.382 241.656C806.565 241.656 805.904 240.994 805.904 240.178C805.904 239.361 806.565 238.699 807.382 238.699C808.198 238.699 808.86 239.361 808.86 240.178C808.86 240.994 808.198 241.656 807.382 241.656Z" fill="black"/>
<path d="M806.265 235.848L810.1 236.915" stroke="black" stroke-width="2" stroke-miterlimit="10" stroke-linecap="round" stroke-linejoin="round"/>
<path d="M816.569 247.697C816.569 247.697 802.919 259.264 812.006 279.784C814.613 285.675 833.049 288.449 848.756 282.702C862.957 277.505 875.112 267.367 875.112 267.367C875.112 267.367 853.68 247.292 851.502 226.377C849.94 211.403 829.886 209.375 819.054 209.741C808.41 210.097 787.123 220.291 792.17 233.719C793.164 236.364 799.867 225.354 805.514 229.378C810.094 232.641 813.701 238.204 813.701 238.204C813.701 238.204 816.886 233.497 819.293 236.075C825.418 242.628 816.569 247.697 816.569 247.697Z" fill="#EF95BD" stroke="#231F20" stroke-width="2" stroke-miterlimit="10"/>
<path d="M845.405 229.89C835.824 229.89 828.058 222.123 828.058 212.543C828.058 202.963 835.824 195.196 845.405 195.196C854.985 195.196 862.751 202.963 862.751 212.543C862.751 222.123 854.985 229.89 845.405 229.89Z" fill="#EF95BD" stroke="#231F20" stroke-width="2" stroke-miterlimit="10"/>
<path d="M766.369 377.072L779.72 384.698" stroke="black" stroke-width="2" stroke-miterlimit="10" stroke-linecap="round" stroke-linejoin="round"/>
<path d="M764.924 381.18L778.274 388.8" stroke="black" stroke-width="2" stroke-miterlimit="10" stroke-linecap="round" stroke-linejoin="round"/>
<path d="M763.885 385.048L777.002 393.307" stroke="black" stroke-width="2" stroke-miterlimit="10" stroke-linecap="round" stroke-linejoin="round"/>
<path d="M339.572 586.421L471.47 599.971L477.823 473.748C478.307 464.116 470.915 455.907 461.283 455.379L387.472 451.366C377.801 450.838 369.158 457.352 366.99 466.789L339.572 586.421Z" fill="#EFA360" stroke="black" stroke-width="2" stroke-miterlimit="10"/>
<path d="M374.983 430.357C374.983 430.357 362.927 436.915 354.852 431.241C346.776 425.566 346.77 413.127 355.235 406.085C363.7 399.043 372.043 400.866 374.46 399.604C377.945 397.787 381.263 390.161 387.827 390.656C390.412 390.85 392.463 393.079 392.463 393.079C392.463 393.079 395.309 389.377 400.339 391.189C402.312 391.901 406.319 392.979 409.843 401.505C413.367 410.031 417.719 414.027 419.558 416.417C423.01 420.886 421.048 426.55 414.473 430.407C407.903 434.264 374.983 430.357 374.983 430.357Z" fill="black"/>
<path d="M412.939 424.61L442.33 453.74C442.33 453.74 436.749 462.661 429.107 463.839C419.219 465.367 410.354 460.293 410.354 460.293L400.333 449.466L412.939 424.61Z" fill="#F28377" stroke="black" stroke-width="2" stroke-miterlimit="10" stroke-linecap="round" stroke-linejoin="round"/>
<path d="M413.706 431.979C413.706 431.979 416.007 440.661 415.345 447.12C414.639 454.012 410.299 460.164 410.299 460.164L402.295 451.027L413.706 431.979Z" fill="black"/>
<path d="M367.496 426.228C367.496 426.228 380.274 455.452 392.88 455.552C405.485 455.657 414.017 440.473 414.478 430.407C414.945 420.342 411.621 418.758 408.981 418.43C405.491 417.991 404.585 421.47 404.585 421.47C404.585 421.47 398.026 408.342 391.701 409.931C385.376 411.521 367.496 426.228 367.496 426.228Z" fill="#F28377" stroke="black" stroke-width="2" stroke-miterlimit="10" stroke-linecap="round" stroke-linejoin="round"/>
<path d="M390.362 429.624C389.291 429.624 388.422 428.755 388.422 427.684C388.422 426.613 389.291 425.744 390.362 425.744C391.433 425.744 392.302 426.613 392.302 427.684C392.302 428.755 391.433 429.624 390.362 429.624Z" fill="black"/>
<path d="M378.951 437.593C377.88 437.593 377.011 436.725 377.011 435.654C377.011 434.582 377.88 433.714 378.951 433.714C380.023 433.714 380.891 434.582 380.891 435.654C380.891 436.725 380.023 437.593 378.951 437.593Z" fill="black"/>
<path d="M383.42 431.118C383.42 431.118 384.543 437.049 386.31 437.81C388.077 438.572 389.578 436.793 389.578 436.793" stroke="black" stroke-width="2" stroke-miterlimit="10" stroke-linecap="round" stroke-linejoin="round"/>
<path d="M385.965 423.782L390.929 422.137" stroke="black" stroke-width="2" stroke-miterlimit="10" stroke-linecap="round" stroke-linejoin="round"/>
<path d="M374.366 434.386L376.711 429.712" stroke="black" stroke-width="2" stroke-miterlimit="10" stroke-linecap="round" stroke-linejoin="round"/>
<path d="M395.548 442.868C395.548 442.868 397.699 441.695 398.582 439.366" stroke="black" stroke-width="2" stroke-miterlimit="10" stroke-linecap="round" stroke-linejoin="round"/>
<path d="M391.507 433.236C387.034 433.236 383.409 429.611 383.409 425.138C383.409 420.666 387.034 417.04 391.507 417.04C395.979 417.04 399.605 420.666 399.605 425.138C399.605 429.611 395.979 433.236 391.507 433.236Z" stroke="black" stroke-width="2" stroke-miterlimit="10" stroke-linecap="round" stroke-linejoin="round"/>
<path d="M374.783 444.803C370.31 444.803 366.685 441.177 366.685 436.704C366.685 432.232 370.31 428.606 374.783 428.606C379.255 428.606 382.881 432.232 382.881 436.704C382.881 441.177 379.255 444.803 374.783 444.803Z" stroke="black" stroke-width="2" stroke-miterlimit="10" stroke-linecap="round" stroke-linejoin="round"/>
<path d="M440.351 673.054H508.732V524.999C508.732 506.713 493.908 491.89 475.622 491.89H473.46C455.174 491.89 440.351 506.713 440.351 524.999V673.054Z" fill="#8F8F8F" stroke="black" stroke-width="2" stroke-miterlimit="10" stroke-linecap="round" stroke-linejoin="round"/>
<path d="M487.817 856.748L495.37 885.183L544.081 882.526L532.981 854.931L487.817 856.748Z" fill="#8E191C" stroke="black" stroke-width="2" stroke-miterlimit="10"/>
<path d="M487.211 881.993L482.031 911H592.841C599.272 911 605.336 908.021 609.265 902.936C611.722 899.756 610.321 895.11 606.52 893.815L555.091 876.29L551.456 868.676C548.994 863.518 542.152 862.006 538 865.93C537.85 866.075 537.706 866.219 537.567 866.369C534.26 870.004 532.275 874.634 532.275 874.634L496.782 874.095C492.091 874.028 488.033 877.369 487.211 881.993Z" fill="#FFED94" stroke="black" stroke-width="2" stroke-miterlimit="10" stroke-linecap="round" stroke-linejoin="round"/>
<path d="M483.976 900.34C483.976 900.34 495.959 895.849 515.673 896.594C535.393 897.344 551.173 903.569 568.836 905.331C597.977 908.233 610.021 902.085 610.021 902.085L607.904 904.787C604.825 908.711 600.117 911 595.131 911H482.025L483.976 900.34Z" fill="black"/>
<path d="M558.91 875.273C557.626 874.278 555.841 874.245 554.424 875.034C551.779 876.512 547.232 879.241 546.354 880.987C545.103 883.482 546.604 885.478 548.099 885.728C549.594 885.978 552.718 881.998 557.087 879.736C560.794 877.819 560.193 876.273 558.91 875.273Z" fill="white" stroke="black" stroke-width="2" stroke-miterlimit="10" stroke-linecap="round" stroke-linejoin="round"/>
<path d="M570.315 879.669C569.031 878.675 567.247 878.641 565.829 879.43C563.184 880.909 558.637 883.638 557.759 885.383C556.508 887.879 558.009 889.874 559.504 890.124C560.999 890.374 564.123 886.395 568.492 884.132C572.199 882.215 571.599 880.67 570.315 879.669Z" fill="white" stroke="black" stroke-width="2" stroke-miterlimit="10" stroke-linecap="round" stroke-linejoin="round"/>
<path d="M581.698 883.372C580.414 882.377 578.629 882.343 577.212 883.133C574.567 884.611 570.02 887.34 569.142 889.085C567.891 891.581 569.392 893.576 570.887 893.826C572.382 894.076 575.506 890.097 579.874 887.835C583.582 885.917 582.987 884.372 581.698 883.372Z" fill="white" stroke="black" stroke-width="2" stroke-miterlimit="10" stroke-linecap="round" stroke-linejoin="round"/>
<path d="M450.261 663.95L457.814 692.391L506.525 689.734L495.426 662.133L450.261 663.95Z" fill="#8E191C" stroke="black" stroke-width="2" stroke-miterlimit="10"/>
<path d="M449.655 689.201L444.475 718.208H555.286C561.716 718.208 567.78 715.229 571.71 710.144C574.166 706.964 572.766 702.318 568.964 701.023L517.535 683.498L513.901 675.884C511.438 670.726 504.596 669.214 500.444 673.138C500.294 673.283 500.15 673.427 500.011 673.577C496.704 677.212 494.72 681.842 494.72 681.842L459.226 681.303C454.535 681.231 450.478 684.576 449.655 689.201Z" fill="#FFED94" stroke="black" stroke-width="2" stroke-miterlimit="10" stroke-linecap="round" stroke-linejoin="round"/>
<path d="M446.42 707.542C446.42 707.542 458.403 703.051 478.118 703.796C497.838 704.547 513.617 710.772 531.28 712.533C560.421 715.435 572.466 709.288 572.466 709.288L570.348 711.989C567.269 715.913 562.561 718.203 557.576 718.203H444.469L446.42 707.542Z" fill="black"/>
<path d="M521.354 682.481C520.07 681.486 518.286 681.453 516.868 682.242C514.223 683.72 509.676 686.449 508.798 688.195C507.548 690.69 509.048 692.685 510.543 692.936C512.038 693.186 515.162 689.206 519.531 686.944C523.238 685.027 522.638 683.481 521.354 682.481Z" fill="white" stroke="black" stroke-width="2" stroke-miterlimit="10" stroke-linecap="round" stroke-linejoin="round"/>
<path d="M532.759 686.872C531.475 685.877 529.691 685.843 528.274 686.633C525.628 688.111 521.081 690.84 520.203 692.585C518.953 695.081 520.453 697.076 521.949 697.326C523.444 697.576 526.567 693.597 530.936 691.335C534.643 689.417 534.043 687.878 532.759 686.872Z" fill="white" stroke="black" stroke-width="2" stroke-miterlimit="10" stroke-linecap="round" stroke-linejoin="round"/>
<path d="M544.142 690.574C542.858 689.579 541.074 689.545 539.656 690.335C537.011 691.813 532.464 694.542 531.586 696.287C530.336 698.783 531.836 700.778 533.331 701.028C534.826 701.279 537.95 697.299 542.319 695.037C546.026 693.119 545.431 691.574 544.142 690.574Z" fill="white" stroke="black" stroke-width="2" stroke-miterlimit="10" stroke-linecap="round" stroke-linejoin="round"/>
<path d="M439.35 596.403L483.387 638.383C489.089 643.797 493.308 650.583 495.637 658.098L557.937 859.288L485.666 866.813L431.808 689.462L374.416 647.243C360.148 636.744 349.282 617.402 350.661 594.208L357.447 584.12L439.35 596.403Z" fill="#8F8F8F" stroke="black" stroke-width="2" stroke-miterlimit="10" stroke-linecap="round" stroke-linejoin="round"/>
<path d="M474.689 492.007C478.173 498.06 509.165 528.684 509.165 528.684C509.165 528.684 501.828 528.868 495.409 528.501C488.989 528.134 470.592 525.327 466.19 522.76C461.788 520.192 453.501 512.355 451.562 513.25C448.955 514.45 449.461 517.129 449.461 517.129C449.461 517.129 442.596 512.727 440.395 513.828C438.194 514.928 440.029 518.597 440.029 518.597C440.029 518.597 437.644 517.863 435.993 519.147C434.343 520.431 435.993 522.999 435.993 522.999C435.993 522.999 434.632 522.259 433.37 524.294C432.336 525.967 434.009 528.434 434.009 528.434C434.009 528.434 432.236 532.075 434.726 535.198C436.599 537.549 449.499 550.422 475.95 555.652C502.401 560.882 531.119 560.243 534.81 555.324C538.5 550.405 538.806 535.949 531.119 523.343C523.433 510.737 468.38 456.919 468.38 456.919L474.689 492.007Z" fill="#F28377" stroke="black" stroke-width="2" stroke-miterlimit="10" stroke-linecap="round" stroke-linejoin="round"/>
<path d="M469.836 521.465L465.668 557.792L512.055 563.567C526.362 565.345 539.618 555.786 542.447 541.651C544.175 533.014 541.663 524.071 535.694 517.591C517.496 497.849 478.574 456.952 468.386 456.902C454.952 456.841 469.542 492.574 469.542 492.574L505.575 526.817L469.836 521.465Z" fill="#EFA360" stroke="black" stroke-width="2" stroke-miterlimit="10"/>
<path d="M440.029 518.597L452.745 525.822" stroke="black" stroke-width="2" stroke-miterlimit="10" stroke-linecap="round" stroke-linejoin="round"/>
<path d="M449.183 516.957L457.181 521.298" stroke="black" stroke-width="2" stroke-miterlimit="10" stroke-linecap="round" stroke-linejoin="round"/>
<path d="M435.921 522.859L448.732 530.485" stroke="black" stroke-width="2" stroke-miterlimit="10" stroke-linecap="round" stroke-linejoin="round"/>
<path d="M434.087 528.668L446.609 536.16" stroke="black" stroke-width="2" stroke-miterlimit="10" stroke-linecap="round" stroke-linejoin="round"/>
<path d="M404.363 656.635C404.363 656.635 419.976 650.644 423.611 651.917C427.24 653.189 420.342 659.359 417.98 665.895C415.618 672.431 413.984 674.61 411.083 674.794C408.176 674.977 395.831 668.802 397.827 665.173C399.828 661.538 404.363 656.635 404.363 656.635Z" fill="#EFA360" stroke="black" stroke-width="2" stroke-miterlimit="10"/>
<path d="M424.328 691.823C424.328 691.823 419.464 690.356 418.547 688.155C417.63 685.954 416.346 674.666 414.051 670.353C411.755 666.04 392.941 660.076 383.582 664.756C374.222 669.436 367.336 685.682 370.548 691.924C373.761 698.165 394.32 711.288 413.501 708.17C426.501 706.052 429.285 701.378 429.285 701.378L424.328 691.823Z" fill="white" stroke="black" stroke-width="2" stroke-miterlimit="10" stroke-linecap="round" stroke-linejoin="round"/>
<path d="M290.901 668.274C294.786 665.006 330.141 669.702 337.911 669.297C345.676 668.885 354.469 667.663 367.752 666.434C374.511 665.812 378.779 665.767 381.347 665.878C382.526 665.195 383.804 664.683 385.238 664.383C391.846 663.005 406.164 664.933 407.72 666.128C409.282 667.323 410.199 668.33 410.199 668.33C410.199 668.33 414.056 672.187 413.317 681.363C412.583 690.539 408.821 696.781 399.277 699.716C390.179 702.517 383.337 701.639 376.517 697.815L373.683 708.736C373.683 708.736 381.492 718.157 342.341 718.157C324.755 718.157 284.576 717.924 283.82 717.624C281.414 716.662 287.022 671.542 290.901 668.274Z" fill="#EFA360" stroke="black" stroke-width="2" stroke-miterlimit="10"/>
<path d="M402.118 693.764C398.198 693.764 395.02 690.384 395.02 686.216C395.02 682.047 398.198 678.668 402.118 678.668C406.038 678.668 409.215 682.047 409.215 686.216C409.215 690.384 406.038 693.764 402.118 693.764Z" fill="#C2462C" stroke="black" stroke-width="2" stroke-miterlimit="10" stroke-linecap="round" stroke-linejoin="round"/>
<path d="M385.966 690.201C384.515 686.382 379.207 685.804 376.084 688.433C373.11 690.935 369.953 693.986 367.808 697.126C362.617 704.724 352.084 717.802 356.731 717.802C367.091 717.802 410.421 717.485 429.763 717.38C434.338 717.358 433.676 709.137 420.604 707.131C412.8 705.936 393.164 709.115 385.966 690.201Z" fill="#C2462C" stroke="black" stroke-width="2" stroke-miterlimit="10" stroke-linecap="round" stroke-linejoin="round"/>
<path d="M250.027 700.772C257.019 697.515 272.51 698.526 272.51 698.526C272.51 698.526 271.898 696.481 272.098 691.984C272.276 688.066 276.339 683.992 277.373 683.008C276.767 683.542 275.077 684.842 273.171 684.72C270.826 684.564 269.642 681.969 269.642 681.969C269.642 681.969 270.664 673.387 276.384 670.319C282.108 667.251 290.612 666.312 295.476 666.501C303.946 666.829 319.786 668.085 331.23 667.268C342.674 666.451 371.076 666.117 371.076 666.117C371.076 666.117 370.437 672.559 365.29 679.723C359.999 687.088 354.869 693.418 345.67 694.441C336.472 695.464 338.517 687.493 330.952 689.739C325.828 691.262 316.579 693.718 309.304 694.069C309.326 695.297 309.259 696.575 309.082 697.915C307.448 710.382 302.295 717.752 287.205 717.752C273.471 717.752 253.696 711.61 253.696 711.61C253.696 711.61 251.734 716.356 248.271 717.218C244.186 718.241 240.484 715.406 240.412 710.382C240.395 708.742 242.113 704.451 250.027 700.772Z" fill="#C2462C" stroke="black" stroke-width="2" stroke-miterlimit="10" stroke-linecap="round" stroke-linejoin="round"/>
<path d="M423.249 691.518C423.249 691.518 420.009 693.519 422.966 698.477C424.606 701.228 426.651 703.801 426.651 703.801C426.651 703.801 433.093 700.861 432.025 694.753C431.242 690.278 423.249 691.518 423.249 691.518Z" fill="black"/>
<path d="M406.364 689.317C406.364 689.317 404.547 691.257 402.179 691.329C400.534 691.379 398.555 690.229 398.555 690.229" stroke="black" stroke-width="2" stroke-miterlimit="10" stroke-linecap="round" stroke-linejoin="round"/>
<path d="M426.334 703.801C426.334 703.801 421.915 706.008 417.625 704.385C414.295 703.129 412.189 700.478 412.189 700.478" stroke="black" stroke-width="2" stroke-miterlimit="10" stroke-linecap="round" stroke-linejoin="round"/>
<path d="M397.177 668.974C398.444 668.863 400.6 668.98 401.429 668.013C403.174 665.968 405.175 661.399 406.542 657.542C408.537 651.911 417.252 645.014 414.896 641.929C412.539 638.844 392.38 644.836 386.027 656.452C379.674 668.069 382.187 668.263 383.848 669.164C385.227 669.908 393.397 669.302 397.177 668.974Z" fill="#C2462C" stroke="black" stroke-width="2" stroke-miterlimit="10" stroke-linecap="round" stroke-linejoin="round"/>
<path d="M391.946 667.024C389.534 667.263 388.022 665.389 388.423 663.383C388.639 662.294 389.073 660.899 389.718 659.459C393.392 651.205 405.78 642.846 410.182 642.663C413.673 642.518 410.521 645.325 408.098 648.515C404.146 653.723 403.229 655.807 401.206 660.026C399.189 664.25 399.65 664.973 397.171 666.079C395.965 666.612 393.82 666.835 391.946 667.024Z" fill="white" stroke="black" stroke-width="2" stroke-miterlimit="10" stroke-linecap="round" stroke-linejoin="round"/>
<path d="M269.647 681.963C269.647 681.963 270.103 684.903 273.177 684.714C276.25 684.525 282.386 680.707 283.792 677.789C285.199 674.871 276.75 676.783 274.133 679.901C271.52 683.025 269.647 681.963 269.647 681.963Z" fill="white" stroke="black" stroke-width="2" stroke-miterlimit="10" stroke-linecap="round" stroke-linejoin="round"/>
<path d="M396.759 589.245L424.766 613.917C429.157 619.47 431.191 623.544 430.658 628.585C429.435 640.19 427.662 659.354 425.128 661.272C422.626 663.162 420.22 659.293 420.22 659.293C420.22 659.293 419.992 661.344 416.757 660.861C414.323 660.499 413.923 657.781 413.923 657.781C413.923 657.781 412.45 659.504 410.232 658.965C407.631 658.337 407.42 655.692 407.42 655.692C407.42 655.692 405.763 658.465 402.223 655.23C399.522 652.763 404.835 626.006 404.835 626.006C404.835 626.006 398.332 621.359 391.012 616.129C383.692 610.899 376.078 602.779 376.078 602.779L396.759 589.245Z" fill="#F28377" stroke="black" stroke-width="2" stroke-miterlimit="10" stroke-linecap="round" stroke-linejoin="round"/>
<path d="M407.42 655.686L411.622 632.959" stroke="black" stroke-width="2" stroke-miterlimit="10" stroke-linecap="round" stroke-linejoin="round"/>
<path d="M413.845 658.026L418.047 635.305" stroke="black" stroke-width="2" stroke-miterlimit="10" stroke-linecap="round" stroke-linejoin="round"/>
<path d="M419.886 659.454L424.083 636.728" stroke="black" stroke-width="2" stroke-miterlimit="10" stroke-linecap="round" stroke-linejoin="round"/>
<path d="M388.589 458.552C379.562 450.799 365.856 452.311 358.742 461.843L310.454 523.437C299.354 539.161 303.089 560.904 318.802 572.025L391.734 623.337C391.734 623.337 399.132 619.074 406.363 612.132C411.682 607.024 413.255 599.838 413.255 599.838L349.365 542.234L391.979 485.976C398.093 477.333 396.62 465.455 388.589 458.552Z" fill="#EFA360" stroke="black" stroke-width="2" stroke-miterlimit="10"/>
<path d="M44.7023 162H435.257C441.158 162 446.897 159.484 450.479 154.823C454.443 149.669 456.478 141.376 448.753 128.834C433.287 103.76 391.79 106.996 391.79 106.996C391.79 106.996 386.906 75.4485 357.61 61.6935C328.314 47.9384 304.049 62.8181 304.049 62.8181C304.049 62.8181 275.413 38.229 238.799 50.3658C202.178 62.5026 198.922 91.6228 198.922 91.6228C198.922 91.6228 171.254 76.2495 149.284 90.0046C127.315 103.76 127.315 118.316 127.315 118.316C127.315 118.316 95.577 115.888 67.0953 123.979C49.6595 128.931 41.3731 142.071 37.5636 151.514C35.5286 156.538 39.2567 162 44.7023 162Z" fill="#C6B0FD" stroke="black" stroke-width="1.3889" stroke-miterlimit="10"/>
<path d="M232.328 98.9855C232.328 98.9855 240.647 89.1709 254.151 89.6887C267.664 90.2066 273.378 104.156 273.378 104.156C273.378 104.156 290.879 92.4802 311.587 106.769C332.311 121.074 319.116 148.576 319.116 148.576" stroke="black" stroke-width="1.3889" stroke-miterlimit="10" stroke-linecap="round" stroke-linejoin="round"/>
<path d="M954.221 144.181C944.213 144.181 936.1 136.077 936.1 126.081C936.1 116.085 944.213 107.981 954.221 107.981C964.229 107.981 972.342 116.085 972.342 126.081C972.342 136.077 964.229 144.181 954.221 144.181Z" fill="#FFED94" stroke="black" stroke-width="2" stroke-miterlimit="10" stroke-linecap="round" stroke-linejoin="round"/>
<path d="M943.674 103.666H967.215V110.499H943.674V103.666Z" fill="black"/>
<path d="M948.603 85.6182H962.286V108.579H948.603V85.6182Z" fill="black"/>
<path d="M956.463 89.5882V0" stroke="black" stroke-width="2" stroke-miterlimit="10"/>
<path d="M1018.39 48.3846V0" stroke="black" stroke-width="2" stroke-miterlimit="10"/>
<path d="M1017.28 114.851C1007.8 114.851 1000.11 107.171 1000.11 97.697C1000.11 88.2231 1007.8 80.543 1017.28 80.543C1026.77 80.543 1034.46 88.2231 1034.46 97.697C1034.46 107.171 1026.77 114.851 1017.28 114.851Z" fill="#FFED94" stroke="black" stroke-width="2" stroke-miterlimit="10" stroke-linecap="round" stroke-linejoin="round"/>
<path d="M1034.46 94.4501H1000.11L1009.39 62.3008H1025.79L1034.46 94.4501Z" fill="black"/>
<path d="M1025.79 62.3004L1022.39 26.1279H1014.03L1009.39 62.3004H1025.79Z" fill="black"/>
<path d="M1087.18 235C1077.7 235 1070.01 227.32 1070.01 217.846C1070.01 208.372 1077.7 200.692 1087.18 200.692C1096.67 200.692 1104.36 208.372 1104.36 217.846C1104.36 227.32 1096.67 235 1087.18 235Z" fill="#FFED94" stroke="black" stroke-width="2" stroke-miterlimit="10" stroke-linecap="round" stroke-linejoin="round"/>
<path d="M1104.36 214.599H1070L1079.29 186.669H1095.7L1104.36 214.599Z" fill="black"/>
<path d="M1095.7 186.669L1092.29 167.829H1083.93L1079.29 186.669H1095.7Z" fill="black"/>
<path d="M1088.26 171.915V0" stroke="black" stroke-width="2" stroke-miterlimit="10"/>
<path d="M1117.82 194.359C1108.33 194.359 1100.64 186.679 1100.64 177.205C1100.64 167.731 1108.33 160.051 1117.82 160.051C1127.3 160.051 1134.99 167.731 1134.99 177.205C1134.99 186.679 1127.3 194.359 1117.82 194.359Z" fill="#FFED94" stroke="black" stroke-width="2" stroke-miterlimit="10" stroke-linecap="round" stroke-linejoin="round"/>
<path d="M1135 173.958H1100.64L1109.93 146.028H1126.33L1135 173.958Z" fill="black"/>
<path d="M1126.33 146.028L1122.93 127.188H1114.58L1109.93 146.028H1126.33Z" fill="black"/>
<path d="M1118.91 131.265V0" stroke="black" stroke-width="2" stroke-miterlimit="10"/>
</svg>
