<svg width="2400" height="960" viewBox="0 0 2400 960" fill="none" xmlns="http://www.w3.org/2000/svg">
<rect width="2400" height="960" fill="#E0E8FE"/>
<path d="M1685 699.636C1685 568.945 1579.12 463 1448.5 463C1317.88 463 1212 568.945 1212 699.636C1212 830.326 1317.88 814.387 1448.5 814.387C1579.12 814.387 1685 830.305 1685 699.636Z" fill="#EFA360" stroke="black" stroke-width="2" stroke-miterlimit="10" stroke-linecap="round" stroke-linejoin="round"/>
<path d="M1446.5 822C1520.23 822 1580 762.23 1580 688.5C1580 614.77 1520.23 555 1446.5 555C1372.77 555 1313 614.77 1313 688.5C1313 762.23 1372.77 822 1446.5 822Z" fill="#FFED94" stroke="black" stroke-width="2" stroke-miterlimit="10" stroke-linecap="round" stroke-linejoin="round"/>
<path d="M127.153 223H388.46C392.408 223 396.248 221.293 398.644 218.132C401.296 214.636 402.658 209.011 397.489 200.505C387.142 183.498 359.377 185.693 359.377 185.693C359.377 185.693 356.11 164.296 336.509 154.966C316.908 145.637 300.673 155.729 300.673 155.729C300.673 155.729 281.514 139.051 257.017 147.283C232.515 155.515 230.336 175.266 230.336 175.266C230.336 175.266 211.825 164.839 197.125 174.168C182.426 183.498 182.426 193.371 182.426 193.371C182.426 193.371 161.192 191.724 142.136 197.212C130.47 200.571 124.926 209.483 122.377 215.888C121.016 219.296 123.51 223 127.153 223Z" fill="#C6B0FD" stroke="black" stroke-width="1.3889" stroke-miterlimit="10"/>
<path d="M252.687 180.259C252.687 180.259 258.253 173.603 267.288 173.954C276.329 174.305 280.152 183.766 280.152 183.766C280.152 183.766 291.861 175.847 305.716 185.539C319.582 195.242 310.754 213.895 310.754 213.895" stroke="black" stroke-width="1.3889" stroke-miterlimit="10" stroke-linecap="round" stroke-linejoin="round"/>
<path d="M1069.57 145H693.069C687.38 145 681.847 142.571 678.395 138.073C674.573 133.098 672.611 125.093 680.058 112.988C694.968 88.7853 734.973 91.9093 734.973 91.9093C734.973 91.9093 739.681 61.459 767.923 48.1824C796.165 34.9058 819.557 49.2679 819.557 49.2679C819.557 49.2679 847.163 25.5341 882.46 37.2487C917.764 48.9634 920.903 77.0707 920.903 77.0707C920.903 77.0707 947.575 62.2322 968.755 75.5088C989.934 88.7853 989.934 102.835 989.934 102.835C989.934 102.835 1020.53 100.492 1047.99 108.302C1064.8 113.082 1072.78 125.764 1076.46 134.878C1078.42 139.728 1074.82 145 1069.57 145Z" fill="#C6B0FD" stroke="black" stroke-width="1.3889" stroke-miterlimit="10"/>
<path d="M888.698 84.1771C888.698 84.1771 880.678 74.7039 867.66 75.2037C854.634 75.7035 849.125 89.1675 849.125 89.1675C849.125 89.1675 832.253 77.898 812.29 91.6901C792.312 105.498 805.032 132.043 805.032 132.043" stroke="black" stroke-width="1.3889" stroke-miterlimit="10" stroke-linecap="round" stroke-linejoin="round"/>
<rect y="702" width="2400" height="258" fill="#B054BF"/>
<path d="M607.24 511.36C607.24 512.609 595.392 552.901 590.846 568.322C589.808 571.836 586.583 574.243 582.917 574.243H287.22C283.17 574.243 279.717 571.316 279.059 567.321L274.532 539.796C266.841 531.115 272.76 517.382 284.365 517.049C286.39 516.993 288.598 517.023 291.008 517.175C316.232 518.717 319.326 521.801 352.788 516.659C386.25 511.517 410.963 506.891 456.268 507.917C501.578 508.954 607.24 511.36 607.24 511.36Z" fill="#619BAC" stroke="black" stroke-width="2" stroke-miterlimit="10" stroke-linecap="round" stroke-linejoin="round"/>
<path d="M331.457 926C391.686 926 440.512 877.243 440.512 817.097C440.512 756.952 391.686 708.194 331.457 708.194C271.228 708.194 222.402 756.952 222.402 817.097C222.402 877.243 271.228 926 331.457 926Z" fill="#606161" stroke="black" stroke-width="2" stroke-miterlimit="10" stroke-linecap="round" stroke-linejoin="round"/>
<path d="M331.457 891.017C372.339 891.017 405.48 857.922 405.48 817.097C405.48 776.272 372.339 743.177 331.457 743.177C290.575 743.177 257.434 776.272 257.434 817.097C257.434 857.922 290.575 891.017 331.457 891.017Z" fill="#8F8F8F" stroke="black" stroke-width="2" stroke-miterlimit="10" stroke-linecap="round" stroke-linejoin="round"/>
<path d="M331.457 868.715C359.28 868.715 381.835 846.191 381.835 818.407C381.835 790.622 359.28 768.099 331.457 768.099C303.634 768.099 281.079 790.622 281.079 818.407C281.079 846.191 303.634 868.715 331.457 868.715Z" fill="black"/>
<path d="M939.903 926C1000.13 926 1048.96 877.243 1048.96 817.097C1048.96 756.952 1000.13 708.194 939.903 708.194C879.673 708.194 830.848 756.952 830.848 817.097C830.848 877.243 879.673 926 939.903 926Z" fill="#606161" stroke="black" stroke-width="2" stroke-miterlimit="10" stroke-linecap="round" stroke-linejoin="round"/>
<path d="M939.902 891.017C980.784 891.017 1013.93 857.922 1013.93 817.097C1013.93 776.272 980.784 743.177 939.902 743.177C899.021 743.177 865.879 776.272 865.879 817.097C865.879 857.922 899.021 891.017 939.902 891.017Z" fill="#8F8F8F" stroke="black" stroke-width="2" stroke-miterlimit="10" stroke-linecap="round" stroke-linejoin="round"/>
<path d="M939.902 868.715C967.725 868.715 990.28 846.191 990.28 818.407C990.28 790.622 967.725 768.099 939.902 768.099C912.079 768.099 889.524 790.622 889.524 818.407C889.524 846.191 912.079 868.715 939.902 868.715Z" fill="black"/>
<path d="M169.002 774.211C168.262 776.431 424.877 774.211 424.877 774.211L412.269 792.727V803.097H818.524C818.524 803.097 856.214 772.103 911.23 730.517C926.252 719.161 898.106 687.666 917.387 679.521C936.672 671.376 945.568 669.151 945.568 669.151L883.965 631.271L869.13 590.534L854.295 580.164L790.429 457.873C786.753 450.829 791.867 442.406 799.821 442.406H819.436V373.527C819.436 373.527 764.551 366.863 749.722 400.931C734.892 434.999 742.304 454.257 769.746 506.841C797.188 559.424 809.056 628.303 806.828 642.379C804.606 656.45 760.845 734.718 738.593 745.088C716.34 755.458 606.577 756.646 583.585 750.721C560.594 744.795 521.542 716.911 536.377 668.029C551.212 619.146 574.467 605.348 576.694 595.716C577.575 591.899 577.525 587.612 577.145 583.835C576.548 577.949 571.535 573.5 565.611 573.5H302.501C302.501 573.5 292.861 578.683 290.633 589.796C288.41 600.904 288.41 600.904 288.41 600.904C288.41 600.904 267.211 615.577 255.368 626.356C243.526 637.136 235.172 644.786 235.172 644.786L194.56 648.906C192.135 649.154 190.064 650.757 189.229 653.042L176.733 687.151C175.685 690.012 176.819 693.213 179.437 694.78L192.343 702.511C192.343 702.511 185.548 712.497 179.108 733.464C171.093 759.549 169.002 774.211 169.002 774.211Z" fill="#83D2E9" stroke="black" stroke-width="2" stroke-miterlimit="10" stroke-linecap="round" stroke-linejoin="round"/>
<path d="M192.337 702.516L199.107 648.153L194.393 648.77C191.745 649.119 189.507 650.904 188.586 653.407L176.571 686.079C175.391 689.279 176.637 692.869 179.548 694.654L192.337 702.516Z" fill="#C2462C" stroke="black" stroke-width="2" stroke-miterlimit="10" stroke-linecap="round" stroke-linejoin="round"/>
<path d="M182.429 774.711H424.877C424.877 774.711 484.981 750.351 477.948 684.774C470.911 619.197 371.724 606.197 314.708 624.814C215.734 657.137 182.429 774.711 182.429 774.711Z" stroke="black" stroke-width="2" stroke-miterlimit="10" stroke-linecap="round" stroke-linejoin="round"/>
<path d="M800.034 819.317C800.034 819.317 798.009 698.128 889.935 673.242C981.278 648.512 1033.01 711.253 1048.36 730.234C1049.92 732.16 1048.43 734.997 1045.96 734.835C1034 734.051 992.534 726.73 948.029 743.981C892.36 765.566 877.181 797.126 853.369 807.653C822.382 821.344 800.034 819.317 800.034 819.317Z" fill="#83D2E9" stroke="black" stroke-width="2" stroke-miterlimit="10" stroke-linecap="round" stroke-linejoin="round"/>
<path d="M820.519 442.507C823.779 442.507 826.423 427.152 826.423 408.211C826.423 389.271 823.779 373.916 820.519 373.916C817.259 373.916 814.615 389.271 814.615 408.211C814.615 427.152 817.259 442.507 820.519 442.507Z" fill="#C2462C" stroke="black" stroke-width="2" stroke-miterlimit="10" stroke-linecap="round" stroke-linejoin="round"/>
<path d="M750.906 430.377C755.926 430.377 759.995 424.901 759.995 418.147C759.995 411.392 755.926 405.916 750.906 405.916C745.887 405.916 741.818 411.392 741.818 418.147C741.818 424.901 745.887 430.377 750.906 430.377Z" fill="#83D2E9" stroke="black" stroke-width="2" stroke-miterlimit="10" stroke-linecap="round" stroke-linejoin="round"/>
<path d="M748.076 408.556L728.401 408.667L729.606 427.835L746.066 428.365C746.066 428.365 751.342 426.485 752.471 418.582C753.6 410.689 748.076 408.556 748.076 408.556Z" fill="#83D2E9" stroke="black" stroke-width="2" stroke-miterlimit="10" stroke-linecap="round" stroke-linejoin="round"/>
<path d="M729.558 427.844C734.046 427.563 737.414 423.046 737.082 417.754C736.751 412.461 732.844 408.399 728.356 408.679C723.869 408.96 720.5 413.478 720.832 418.77C721.164 424.062 725.071 428.125 729.558 427.844Z" fill="#83D2E9" stroke="black" stroke-width="2" stroke-miterlimit="10" stroke-linecap="round" stroke-linejoin="round"/>
<path d="M581.159 650.938C582.886 650.255 619.315 648.799 619.315 648.799C619.315 648.799 611.771 673.643 630.176 686.725C648.576 699.807 692.995 712.889 694.732 722.79C696.468 732.692 690.509 752.434 690.509 752.434C690.509 752.434 656.874 755.928 629.66 755.776C607.711 755.65 592.936 755.554 592.936 755.554C592.936 755.554 581.868 736.768 578.111 722.275C574.354 707.782 575.681 689.476 578.866 672.829C582.045 656.182 581.159 650.938 581.159 650.938Z" fill="#FFED94" stroke="black" stroke-width="2" stroke-miterlimit="10" stroke-linecap="round" stroke-linejoin="round"/>
<path d="M579.089 724.874C579.089 724.874 594.557 718.618 621.28 724.151C647.999 729.688 663.041 731.038 674.889 730.376C686.737 729.713 695.046 728.808 695.046 728.808" stroke="black" stroke-width="2" stroke-miterlimit="10" stroke-linecap="round" stroke-linejoin="round"/>
<path d="M610.718 674.989C611.26 674.068 612.293 671.343 618.131 669.532" stroke="black" stroke-width="2" stroke-miterlimit="10" stroke-linecap="round" stroke-linejoin="round"/>
<path d="M614.085 683.469C614.627 682.549 615.66 679.823 621.498 678.013" stroke="black" stroke-width="2" stroke-miterlimit="10" stroke-linecap="round" stroke-linejoin="round"/>
<path d="M619.817 690.569C620.359 689.648 621.391 686.923 627.229 685.112" stroke="black" stroke-width="2" stroke-miterlimit="10" stroke-linecap="round" stroke-linejoin="round"/>
<path d="M627.513 695.428C628.055 694.508 629.087 691.782 634.925 689.972" stroke="black" stroke-width="2" stroke-miterlimit="10" stroke-linecap="round" stroke-linejoin="round"/>
<path d="M635.482 700.136C636.024 699.216 637.057 696.49 642.895 694.68" stroke="black" stroke-width="2" stroke-miterlimit="10" stroke-linecap="round" stroke-linejoin="round"/>
<path d="M644.024 703.762C644.566 702.842 645.599 700.116 651.437 698.306" stroke="black" stroke-width="2" stroke-miterlimit="10" stroke-linecap="round" stroke-linejoin="round"/>
<path d="M673.092 708.282C673.092 708.282 667.882 709.066 665.619 715.589C663.355 722.113 663.624 729.809 663.624 729.809" stroke="black" stroke-width="2" stroke-miterlimit="10" stroke-linecap="round" stroke-linejoin="round"/>
<path d="M577.407 686.255C577.407 686.255 591.934 687.575 599.696 699.934C607.452 712.293 609.123 721.552 609.123 721.552" stroke="black" stroke-width="2" stroke-miterlimit="10" stroke-linecap="round" stroke-linejoin="round"/>
<path d="M617.903 666.26C618.029 665.598 621.65 646.372 632.282 648.561C642.915 650.751 618.07 666.25 618.07 666.25C618.07 666.25 641.204 655.282 640.945 665.299C640.687 675.322 617.903 666.26 617.903 666.26Z" stroke="black" stroke-width="2" stroke-miterlimit="10" stroke-linecap="round" stroke-linejoin="round"/>
<path d="M491.971 448.079C491.971 448.079 461.972 527.815 527.439 522.455C595.448 516.887 640.601 514.268 640.601 514.268L573.909 667.657C573.909 667.657 582.096 673.841 611.275 673.841C640.454 673.841 645.756 669.867 645.756 669.867L718.534 504.362C726.362 485.403 714.357 464.129 694.069 460.994L552.446 440.676L491.971 448.079Z" fill="white" stroke="black" stroke-width="2" stroke-miterlimit="10" stroke-linecap="round" stroke-linejoin="round"/>
<path d="M534.229 664.749C536.056 664.4 572.106 669.826 572.106 669.826C572.106 669.826 560.01 692.804 575.615 709.117C591.22 725.43 632.374 746.629 632.212 756.682C632.05 766.73 622.475 785 622.475 785C622.475 785 588.78 782.102 562.081 776.833C540.548 772.58 526.057 769.708 526.057 769.708C526.057 769.708 518.73 749.177 517.773 734.234C516.816 719.297 521.571 701.567 527.839 685.815C534.107 670.063 534.229 664.749 534.229 664.749Z" fill="#FFED94" stroke="black" stroke-width="2" stroke-miterlimit="10" stroke-linecap="round" stroke-linejoin="round"/>
<path d="M518.244 736.97C518.244 736.97 534.619 733.733 559.813 744.196C585.007 754.659 599.529 758.82 611.285 760.398C623.047 761.976 631.381 762.648 631.381 762.648" stroke="black" stroke-width="2" stroke-miterlimit="10" stroke-linecap="round" stroke-linejoin="round"/>
<path d="M558.719 693.931C559.423 693.132 560.957 690.649 567.028 689.967" stroke="black" stroke-width="2" stroke-miterlimit="10" stroke-linecap="round" stroke-linejoin="round"/>
<path d="M560.425 702.887C561.129 702.088 562.663 699.606 568.734 698.923" stroke="black" stroke-width="2" stroke-miterlimit="10" stroke-linecap="round" stroke-linejoin="round"/>
<path d="M564.714 710.943C565.418 710.144 566.952 707.661 573.023 706.979" stroke="black" stroke-width="2" stroke-miterlimit="10" stroke-linecap="round" stroke-linejoin="round"/>
<path d="M571.357 717.163C572.061 716.364 573.595 713.881 579.666 713.198" stroke="black" stroke-width="2" stroke-miterlimit="10" stroke-linecap="round" stroke-linejoin="round"/>
<path d="M578.299 723.286C579.002 722.487 580.536 720.004 586.607 719.321" stroke="black" stroke-width="2" stroke-miterlimit="10" stroke-linecap="round" stroke-linejoin="round"/>
<path d="M586 728.455C586.704 727.656 588.238 725.173 594.308 724.49" stroke="black" stroke-width="2" stroke-miterlimit="10" stroke-linecap="round" stroke-linejoin="round"/>
<path d="M613.695 738.36C613.695 738.36 608.43 738.148 604.977 744.13C601.523 750.112 600.339 757.718 600.339 757.718" stroke="black" stroke-width="2" stroke-miterlimit="10" stroke-linecap="round" stroke-linejoin="round"/>
<path d="M523.879 698.726C523.879 698.726 537.899 702.751 543.185 716.354C548.471 729.951 548.365 739.357 548.365 739.357" stroke="black" stroke-width="2" stroke-miterlimit="10" stroke-linecap="round" stroke-linejoin="round"/>
<path d="M567.423 686.71C567.671 686.083 574.856 667.883 584.886 672.035C594.916 676.187 567.59 686.73 567.59 686.73C567.59 686.73 592.379 680.308 590.233 690.103C588.086 699.898 567.423 686.71 567.423 686.71Z" stroke="black" stroke-width="2" stroke-miterlimit="10" stroke-linecap="round" stroke-linejoin="round"/>
<path d="M446.382 450.45C446.382 450.45 411.942 540.006 477.409 534.651C545.418 529.084 594.972 525.271 594.972 525.271L524.092 681.835C524.092 681.835 533.069 687.352 560 692.525C595.483 699.342 597.291 687.696 597.291 687.696L672.945 506.732C680.773 487.774 668.768 466.5 648.48 463.365L524.578 446.996L446.382 450.45Z" fill="white" stroke="black" stroke-width="2" stroke-miterlimit="10" stroke-linecap="round" stroke-linejoin="round"/>
<path d="M622.131 225.123C607.969 225.123 596.485 236.592 596.485 250.736C596.485 264.88 607.964 276.349 622.131 276.349C636.292 276.349 647.776 264.88 647.776 250.736C647.771 236.592 636.292 225.123 622.131 225.123ZM622.131 261.34C616.267 261.34 611.513 256.592 611.513 250.736C611.513 244.88 616.267 240.132 622.131 240.132C627.994 240.132 632.748 244.88 632.748 250.736C632.748 256.592 627.994 261.34 622.131 261.34Z" fill="#EFA360" stroke="black" stroke-width="2" stroke-miterlimit="10" stroke-linecap="round" stroke-linejoin="round"/>
<path d="M644.986 245.669C644.839 242.999 643.502 238.883 641.68 237.75C640.591 236.779 639.178 235.93 637.943 235.793C636.08 235.581 634.09 231.606 630.399 228.931C626.713 226.251 618.835 226.084 616.318 227.758C613.802 229.432 611.706 232.329 605.336 236.683C598.967 241.037 597.903 249.27 598.718 254.711C599.513 260.021 603.098 265.608 606.465 266.61C610.247 267.737 610.804 270.291 612.126 271.616C614.045 273.537 616.789 274.883 619.503 274.63C622.222 274.377 623.862 273.123 625.538 269.108C627.214 265.093 631.361 268.501 635.842 266.938C640.976 265.143 639.487 262.736 639.821 260.723C640.156 258.716 643.239 259.839 645.482 254.377C646.996 250.701 645.153 248.683 644.986 245.669ZM634.591 255.045C633.751 258.893 628.88 265.684 618.166 262.746C612.344 261.148 608.809 255.646 608.951 251.555C609.437 237.497 624.47 235.97 631.057 241.821C637.401 247.459 635.103 252.698 634.591 255.045Z" fill="#4435F6"/>
<path d="M649.34 324.838C648.393 326.295 647.386 328.995 647.386 328.995L623.923 334.254C623.923 334.254 615.219 291.185 616.592 288.146C617.964 285.107 622.272 286.29 622.272 286.29C622.272 286.29 621.558 280.92 624.004 279.59C627.356 277.759 627.933 280.136 627.933 280.136C627.933 280.136 621.386 251.565 625.229 249.153C628.156 247.312 633.295 273.066 633.295 273.066C633.295 273.066 629.098 246.255 632.48 245.517C637.244 244.475 660.869 307.048 649.34 324.838Z" fill="#F28377" stroke="black" stroke-width="2" stroke-miterlimit="10" stroke-linecap="round" stroke-linejoin="round"/>
<path d="M618.247 324.899L653.998 316.985C653.998 316.985 637.907 383.877 627.366 394.274C619.827 401.713 585.073 391.346 585.073 391.346L618.247 324.899Z" fill="#FFED94" stroke="black" stroke-width="2" stroke-miterlimit="10" stroke-linecap="round" stroke-linejoin="round"/>
<path d="M556.309 179.824C568.702 179.824 578.749 169.79 578.749 157.412C578.749 145.034 568.702 135 556.309 135C543.916 135 533.869 145.034 533.869 157.412C533.869 169.79 543.916 179.824 556.309 179.824Z" fill="#EF95BD" stroke="#231F20" stroke-width="1.86092" stroke-miterlimit="10" stroke-linecap="round" stroke-linejoin="round"/>
<path d="M556.466 256.106C556.466 256.106 593.625 210.883 571.18 180.021C546.937 146.691 499.713 157.068 485.865 184.425C475.05 205.785 483.662 230.018 459.734 242.908C450.21 248.04 495.622 282.841 534.031 270.892C550.016 265.916 556.466 256.106 556.466 256.106Z" fill="#EF95BD" stroke="#231F20" stroke-width="1.86092" stroke-miterlimit="10" stroke-linecap="round" stroke-linejoin="round"/>
<path d="M556.258 224.536L566.582 284.753C566.582 284.753 553.666 288.925 545.332 288.849C531.287 288.717 526.765 281.805 526.765 281.805L521.687 242.822L556.258 224.536Z" fill="#F28377" stroke="black" stroke-width="2" stroke-miterlimit="10" stroke-linecap="round" stroke-linejoin="round"/>
<path d="M544.345 240.53C544.345 240.53 543.028 247.883 536.841 254.563C530.654 261.243 525.003 264.56 525.003 264.56L522.679 246.194L544.345 240.53Z" fill="black"/>
<path d="M502.826 189.664C502.826 189.664 493.839 233.461 508.209 243.767C522.578 254.073 544.648 243.575 553.327 232.419C562.005 221.264 559.479 216.768 556.714 214.255C553.063 210.933 549.21 214.184 549.21 214.184C549.21 214.184 552.309 193.846 543.767 190.559C535.226 187.267 502.826 189.664 502.826 189.664Z" fill="#F28377" stroke="black" stroke-width="2" stroke-miterlimit="10" stroke-linecap="round" stroke-linejoin="round"/>
<path d="M511.226 227.261L524.158 223.949C524.158 223.949 526.127 229.203 520.36 231.357C513.57 233.891 511.226 227.261 511.226 227.261Z" fill="white"/>
<path d="M527.874 212.531C529.378 212.531 530.598 211.313 530.598 209.81C530.598 208.308 529.378 207.09 527.874 207.09C526.37 207.09 525.15 208.308 525.15 209.81C525.15 211.313 526.37 212.531 527.874 212.531Z" fill="black"/>
<path d="M508.335 212.44C509.84 212.44 511.059 211.222 511.059 209.72C511.059 208.217 509.84 206.999 508.335 206.999C506.831 206.999 505.611 208.217 505.611 209.72C505.611 211.222 506.831 212.44 508.335 212.44Z" fill="black"/>
<path d="M516.568 208.131C516.568 208.131 513.054 215.827 514.467 218.133C515.879 220.439 519.039 219.61 519.039 219.61" stroke="black" stroke-width="2" stroke-miterlimit="10" stroke-linecap="round" stroke-linejoin="round"/>
<path d="M525.246 202.452L531.352 204.743" stroke="black" stroke-width="2" stroke-miterlimit="10" stroke-linecap="round" stroke-linejoin="round"/>
<path d="M503.368 205.224L509.839 201.765" stroke="black" stroke-width="2" stroke-miterlimit="10" stroke-linecap="round" stroke-linejoin="round"/>
<path d="M589.427 317.349C586.065 298.573 579.802 280.273 562.987 271.231C562.76 271.11 562.527 270.983 562.294 270.862C544.269 261.254 525.712 264.814 525.712 264.814C525.712 264.814 498.746 267.342 485.009 298.052C473.951 322.77 468.078 332.945 459.359 380.277C452.058 419.907 431 448.422 431 448.422C431 448.422 473.885 472.27 528.072 465.53C564.937 460.943 582.617 444.028 582.617 444.028C582.617 444.028 593.574 340.484 589.427 317.349Z" fill="#FFED94" stroke="black" stroke-width="2" stroke-miterlimit="10" stroke-linecap="round" stroke-linejoin="round"/>
<path d="M689.411 398.835L728.286 383.229C734.083 380.903 740.645 381.449 745.966 384.721C757.121 391.578 775.303 403.234 775.946 406.739C776.579 410.198 771.485 410.658 771.485 410.658C771.485 410.658 773.424 411.922 771.308 414.916C769.713 417.171 766.791 416.2 766.791 416.2C766.791 416.2 767.774 418.541 766.113 420.493C764.169 422.779 761.409 421.661 761.409 421.661C761.409 421.661 763.359 424.716 758.321 426.632C754.478 428.094 730.336 409.282 730.336 409.282C730.336 409.282 722.392 413.454 713.456 418.147C704.519 422.84 692.529 426.374 692.529 426.374L689.411 398.835Z" fill="#F28377" stroke="black" stroke-width="2" stroke-miterlimit="10" stroke-linecap="round" stroke-linejoin="round"/>
<path d="M761.414 421.661L740.746 405.995" stroke="black" stroke-width="2" stroke-miterlimit="10" stroke-linecap="round" stroke-linejoin="round"/>
<path d="M767.004 416.407L746.336 400.741" stroke="black" stroke-width="2" stroke-miterlimit="10" stroke-linecap="round" stroke-linejoin="round"/>
<path d="M771.485 411.077L750.817 395.416" stroke="black" stroke-width="2" stroke-miterlimit="10" stroke-linecap="round" stroke-linejoin="round"/>
<path d="M522.695 308.455L547.545 413.126C550.4 424.514 560.77 432.403 572.516 432.135L710.823 428.939L701.836 391.377L596.784 379.948L574.557 294.629C570.648 280.865 556.603 272.592 542.649 275.833C528.036 279.226 519.049 293.921 522.695 308.455Z" fill="#FFED94" stroke="black" stroke-width="2" stroke-miterlimit="10" stroke-linecap="round" stroke-linejoin="round"/>
<path d="M335.039 287.2C323.453 271.08 304.314 286.947 303.244 287.755C302.102 287.043 281.809 272.733 271.496 289.734C261.73 305.83 302.887 337.19 305.171 338.915V339C305.171 339 305.206 338.964 305.218 338.952C305.23 338.964 305.278 338.988 305.278 338.988V338.903C307.419 337.009 346.018 302.476 335.039 287.2Z" fill="#EE7B82" stroke="#231F20" stroke-width="2" stroke-miterlimit="10" stroke-linecap="round" stroke-linejoin="round"/>
<path d="M395.905 445.474L396.077 503.653C396.077 503.653 404.818 504.834 404.687 508.074C404.555 511.314 382.821 511.571 379.846 510.345C376.871 509.118 375.949 459.089 375.949 459.089L395.905 445.474Z" fill="white" stroke="black" stroke-width="2" stroke-miterlimit="10" stroke-linecap="round" stroke-linejoin="round"/>
<path d="M423.33 369.541C423.33 369.541 442.621 387.218 444.051 402.206C445.48 417.193 437.063 430.718 429.471 430.536C421.88 430.354 399.062 393.526 399.062 393.526C399.062 393.526 397.77 370.267 403.101 369.172C408.432 368.077 423.33 369.541 423.33 369.541Z" fill="#C2462C" stroke="black" stroke-width="2" stroke-miterlimit="10" stroke-linecap="round" stroke-linejoin="round"/>
<path d="M345.134 487.974C345.134 487.974 347.009 498.546 345.748 504.374C344.526 510.041 342.824 512.191 342.824 512.191C342.824 512.191 354.828 513.417 354.828 516.481C354.828 519.544 337.401 520.316 333.403 519.705C329.4 519.095 330.976 496.865 333.743 493.187C336.515 489.508 345.134 487.974 345.134 487.974Z" fill="#C2462C" stroke="black" stroke-width="2" stroke-miterlimit="10" stroke-linecap="round" stroke-linejoin="round"/>
<path d="M286.083 493.813C285.035 494.247 279.927 503.587 267.775 500.136C258.699 497.557 258.253 488.958 258.608 484.769C258.664 484.129 257.833 483.836 257.463 484.361C254.316 488.812 253.611 500.676 258.79 506.832C268.991 518.964 287.614 510.233 287.614 510.233L286.083 493.813Z" fill="#C2462C" stroke="black" stroke-width="2" stroke-miterlimit="10" stroke-linecap="round" stroke-linejoin="round"/>
<path d="M381.797 510.768L381.625 452.589L373.613 454.607C376.466 447.522 378.326 441.684 378.326 441.684L364.396 372.619C364.396 372.619 355.685 407.358 338.602 420.777C321.52 434.195 290.391 452.917 284.614 468.051C278.837 483.185 287.508 518.858 287.508 518.858C287.508 518.858 337.442 521.083 342.008 519.322C346.574 517.561 335.831 513.65 335.831 513.65C335.831 513.65 342.043 506.681 338.532 495.856C337.63 493.076 351.692 486.364 360.392 477.75C362.227 494.837 364.968 517.172 366.798 517.929C369.772 519.156 390.28 518.429 390.412 515.184C390.534 511.949 381.797 510.768 381.797 510.768Z" fill="white" stroke="black" stroke-width="2" stroke-miterlimit="10" stroke-linecap="round" stroke-linejoin="round"/>
<path d="M371.764 344.44C371.764 344.44 447.724 337.285 450.081 339.995C452.437 342.705 451.221 361.109 434.838 369.087C418.45 377.07 410.281 376.722 410.073 378.892C409.866 381.062 410.92 411.88 398.808 430.537C388.572 446.316 371.764 344.44 371.764 344.44Z" fill="white" stroke="black" stroke-width="2" stroke-miterlimit="10" stroke-linecap="round" stroke-linejoin="round"/>
<path d="M441.451 339.732C441.451 339.732 439.885 345.853 443.848 348.694C447.578 351.369 450.177 351.48 450.177 351.48C450.177 351.48 451.312 342.058 450.081 339.989C448.855 337.925 441.451 339.732 441.451 339.732Z" fill="black"/>
<path d="M411.842 384.826C411.776 384.246 411.193 383.877 410.636 384.054C408.016 384.887 400.557 386.436 387.842 382.823C371.642 378.22 360.509 372.382 360.509 372.382C360.509 372.382 356.485 377.847 358.178 381.319C359.865 384.791 378.711 391.366 390.756 393.39C400.871 395.09 409.44 392.845 411.923 392.083C412.349 391.952 412.617 391.538 412.566 391.099L411.842 384.826Z" fill="#C6B0FD" stroke="black" stroke-width="2" stroke-miterlimit="10" stroke-linecap="round" stroke-linejoin="round"/>
<path d="M361.72 351.944C361.72 351.944 363.514 338.45 375.645 339.651C387.777 340.852 402.072 367.608 401.373 391.654C400.673 415.7 401.905 442.688 390.599 453.083C379.294 463.479 365.84 458.256 363.154 454.335C360.463 450.408 362.374 404.688 361.7 385.537C361.026 366.387 361.72 351.944 361.72 351.944Z" fill="#C2462C" stroke="black" stroke-width="2" stroke-miterlimit="10" stroke-linecap="round" stroke-linejoin="round"/>
<path d="M290.751 459.265C290.751 459.265 292.144 471.679 304.879 473.839C316.843 475.867 331.964 468.393 331.204 458.891C330.439 449.384 327.662 445.957 333.641 439.876C339.621 433.796 336.996 422.022 336.996 422.022C336.996 422.022 318.247 435.779 308.441 442.919C296.603 451.534 290.751 459.265 290.751 459.265Z" fill="#C2462C" stroke="black" stroke-width="2" stroke-miterlimit="10" stroke-linecap="round" stroke-linejoin="round"/>
<path d="M397.141 355.598C397.141 355.598 404.145 357.738 405.579 352.156" stroke="black" stroke-width="2" stroke-miterlimit="10" stroke-linecap="round" stroke-linejoin="round"/>
<path d="M2157.09 758.231L2188.22 814.438L2142.73 822.056L2116.45 777.509L2157.09 758.231Z" fill="#F28377" stroke="black" stroke-width="2" stroke-miterlimit="10" stroke-linecap="round" stroke-linejoin="round"/>
<path d="M2139.73 816.86L2065.67 875.94L2068.02 891.52L2155.33 879.271L2164.11 869.491L2175.64 879.302L2211.44 871.722C2211.44 871.722 2209.18 852.887 2205.38 835.022C2201.58 817.15 2196.29 808.753 2196.29 808.753L2139.73 816.86Z" fill="#8E191C" stroke="black" stroke-width="2" stroke-miterlimit="10" stroke-linecap="round" stroke-linejoin="round"/>
<path d="M2033.73 687.499L2125.43 807.439L2168.96 770.357C2168.96 770.357 2095.25 599.422 2084.22 575.086C2073.19 550.757 2033.73 687.499 2033.73 687.499Z" fill="#C2462C" stroke="black" stroke-width="2" stroke-miterlimit="10"/>
<path d="M2011.02 802.196L1995.04 852.359L1950.5 827.274L1971.82 780.152L2011.02 802.196Z" fill="#F28377" stroke="black" stroke-width="2" stroke-miterlimit="10" stroke-linecap="round" stroke-linejoin="round"/>
<path d="M1952.83 822.193L1854.33 833.021L1848 847.454L1928.43 883.542L1941.08 879.936L1945.6 894.369L1979.94 907C1979.94 907 1988.07 889.861 1994.39 872.715C2000.72 855.577 2000.72 845.651 2000.72 845.651L1952.83 822.193Z" fill="#8E191C" stroke="black" stroke-width="2" stroke-miterlimit="10" stroke-linecap="round" stroke-linejoin="round"/>
<path d="M2025.11 355.752L1951.01 793.318L2014.27 810.457C2014.27 810.457 2124.51 493.786 2133.55 425.216C2142.59 356.646 2134.46 350.335 2134.46 350.335L2025.11 355.752Z" fill="#C2462C" stroke="black" stroke-width="2" stroke-miterlimit="10"/>
<path d="M2187.1 439.657C2187.1 439.657 2187.83 458.499 2181.24 470.121C2177.15 477.327 2174.49 480.62 2176.46 483.485C2178.26 486.099 2193.69 474.247 2193.69 474.247L2199.02 501.335C2199.02 501.335 2200.53 506.576 2203.45 506.064C2205.8 505.652 2207.14 503.932 2207.14 503.932C2207.14 503.932 2208.53 510.603 2212.5 509.549C2215.72 508.693 2215.22 504.223 2215.22 504.223C2215.22 504.223 2217.43 507.058 2219.67 506.439C2223.66 505.331 2222.28 496.75 2222.28 496.75C2222.28 496.75 2224.55 498.156 2227.17 496.59C2229.28 495.321 2229.44 492.593 2228.29 480.895C2227.81 476.119 2225.67 460.501 2222.87 440.199C2217.74 402.866 2187.1 439.657 2187.1 439.657Z" fill="#F28377" stroke="black" stroke-width="2" stroke-miterlimit="10" stroke-linecap="round" stroke-linejoin="round"/>
<path d="M2202.65 476.051L2207.12 503.65" stroke="black" stroke-width="2" stroke-miterlimit="10" stroke-linecap="round" stroke-linejoin="round"/>
<path d="M2210.19 472.941L2215.56 505.262" stroke="black" stroke-width="2" stroke-miterlimit="10" stroke-linecap="round" stroke-linejoin="round"/>
<path d="M2218.54 471.168L2222.31 497.086" stroke="black" stroke-width="2" stroke-miterlimit="10" stroke-linecap="round" stroke-linejoin="round"/>
<path d="M1983.98 161.688C1983.98 161.688 2020.59 140.087 2020.67 134.218C2020.71 130.581 2003.09 134.944 2003.09 134.944C2003.09 134.944 2009.82 112.48 2019.13 106.971C2028.43 101.462 2032.57 94.241 2032.57 91.1465C2032.57 88.0519 2005.69 89.4273 1995.69 96.3041C1985.7 103.189 1962.95 155.139 1962.95 155.139L1983.98 161.688Z" fill="#F28377" stroke="black" stroke-width="2" stroke-miterlimit="10" stroke-linecap="round" stroke-linejoin="round"/>
<path d="M2031.1 132.201L2008.28 120.243C2005.93 119.005 2005.02 116.094 2006.26 113.741L2028.29 71.8302C2029.53 69.4768 2032.45 68.5675 2034.8 69.8053L2057.62 81.7634C2059.97 83.0012 2060.88 85.9124 2059.65 88.2658L2037.61 130.176C2036.36 132.53 2033.46 133.439 2031.1 132.201Z" fill="#20457B" stroke="black" stroke-width="2" stroke-miterlimit="10" stroke-linecap="round" stroke-linejoin="round"/>
<path d="M2057.29 86.6419L2030.93 72.8301L2010.12 112.42L2036.47 126.232L2057.29 86.6419Z" fill="black"/>
<path d="M2101.08 71.9832C2101.08 71.9832 2098.27 56.8695 2085.18 48.9993C2071.91 41.0222 2050.75 38.325 2034.7 55.7386C2030.51 60.285 2026.35 70.776 2026.26 77.416C2026.03 95.7389 2032.97 99.7428 2038.74 107.277C2059.84 134.845 2079.51 121.007 2089.42 116.729C2095.93 113.909 2105.62 103.915 2106.62 93.1945C2107.9 79.5096 2101.08 71.9832 2101.08 71.9832Z" fill="#FFED94" stroke="black" stroke-width="2" stroke-miterlimit="10" stroke-linecap="round" stroke-linejoin="round"/>
<path d="M2084.76 100.423L2089.03 135.846L2104.35 140.683C2104.35 140.683 2078.99 194.024 2071.09 194.024C2057.76 194.024 2055.63 162.1 2055.63 162.1L2055.42 119.311L2084.76 100.423Z" fill="#F28377" stroke="black" stroke-width="2" stroke-miterlimit="10" stroke-linecap="round" stroke-linejoin="round"/>
<path d="M2076.88 116.935C2076.88 116.935 2075.69 123.918 2069.89 130.306C2064.08 136.694 2055.54 141.699 2055.54 141.699L2055.66 122.008L2076.88 116.935Z" fill="black"/>
<path d="M2037.05 69.0801C2037.05 69.0801 2028.92 110.685 2042.64 120.328C2056.35 129.971 2077 119.663 2085.33 109.164C2092.24 100.454 2091.02 94.2722 2088.38 91.9112C2084.89 88.7937 2081.26 91.9112 2081.26 91.9112C2081.26 91.9112 2079.02 78.1346 2068.56 77.8977C2047.91 77.4393 2037.05 69.0801 2037.05 69.0801Z" fill="#F28377" stroke="black" stroke-width="2" stroke-miterlimit="10" stroke-linecap="round" stroke-linejoin="round"/>
<path d="M2060.98 90.5357C2062.41 90.5357 2063.56 89.3829 2063.56 87.9607C2063.56 86.5386 2062.41 85.3857 2060.98 85.3857C2059.56 85.3857 2058.41 86.5386 2058.41 87.9607C2058.41 89.3829 2059.56 90.5357 2060.98 90.5357Z" fill="black"/>
<path d="M2042.46 90.6197C2043.88 90.6197 2045.03 89.4668 2045.03 88.0447C2045.03 86.6226 2043.88 85.4697 2042.46 85.4697C2041.03 85.4697 2039.88 86.6226 2039.88 88.0447C2039.88 89.4668 2041.03 90.6197 2042.46 90.6197Z" fill="black"/>
<path d="M2050.25 86.4629C2050.25 86.4629 2046.99 93.7905 2048.34 95.9606C2049.7 98.1306 2052.69 97.3207 2052.69 97.3207" stroke="black" stroke-width="2" stroke-miterlimit="10" stroke-linecap="round" stroke-linejoin="round"/>
<path d="M2058.43 81.0068L2065.11 82.9553" stroke="black" stroke-width="2" stroke-miterlimit="10" stroke-linecap="round" stroke-linejoin="round"/>
<path d="M2037.7 83.8264L2043.81 80.4873" stroke="black" stroke-width="2" stroke-miterlimit="10" stroke-linecap="round" stroke-linejoin="round"/>
<path d="M2075.13 44.4911C2075.13 44.4911 2088.7 34.428 2109.43 48.472C2121.74 56.8159 2123.85 76.5525 2121.32 82.6117C2118.78 88.671 2117.99 100.064 2123.6 103.326C2129.67 106.864 2132.96 120.755 2126.13 126.318C2121.11 130.406 2116.76 133.21 2119.8 137.435C2125.62 145.52 2123.34 154.36 2113.72 158.906C2108.79 161.237 2112.59 170.834 2112.59 170.834C2112.59 170.834 2100.02 178.681 2093.23 168.503C2087.16 159.403 2098.71 157.149 2091.71 151.327C2085.64 146.276 2078.33 124.79 2088.67 114.948C2101.29 102.952 2089.07 93.1409 2095.51 83.116C2110.35 60.0022 2075.13 44.4911 2075.13 44.4911Z" fill="#FFED94" stroke="black" stroke-width="2" stroke-miterlimit="10" stroke-linecap="round" stroke-linejoin="round"/>
<path d="M2045.68 104.817C2045.68 104.817 2048.13 105.39 2051.04 104.733C2053.96 104.068 2057.59 101.394 2057.59 101.394C2057.59 101.394 2057.26 106.253 2052.39 107.812C2048.83 108.95 2045.68 104.817 2045.68 104.817Z" fill="#F5F5F5"/>
<path d="M2084.2 115.208C2088.21 115.208 2091.47 111.958 2091.47 107.949C2091.47 103.94 2088.21 100.69 2084.2 100.69C2080.18 100.69 2076.93 103.94 2076.93 107.949C2076.93 111.958 2080.18 115.208 2084.2 115.208Z" fill="#83D2E9" stroke="black" stroke-width="2" stroke-miterlimit="10" stroke-linecap="round" stroke-linejoin="round"/>
<path d="M2055.63 158.517C2055.63 158.517 2055.26 171.95 2070.74 170.964C2086.22 169.978 2092.86 151.823 2092.86 151.823C2092.86 151.823 2130.76 150.822 2145.74 170.162C2167.1 197.722 2194.28 250.353 2210.76 324.042C2227.24 397.732 2227.9 437.862 2227.9 437.862L2181.44 444.112L2146.85 365.494C2146.85 365.494 2098.74 370.759 2048.33 370.102C1997.93 369.445 1978.15 367.802 1978.15 367.802L1982.77 309.907C1982.77 309.907 1960.03 322.736 1942.57 311.221C1925.11 299.706 1925.44 266.483 1932.35 231.618C1939.27 196.752 1957.4 151.35 1957.4 151.35L1991.33 162.865C1991.33 162.865 1991.66 176.022 1989.03 195.759C1986.39 215.495 1981.45 234.575 1981.45 234.575C1981.45 234.575 1992.89 204.37 2012.14 181.906C2027.29 164.209 2055.63 158.517 2055.63 158.517Z" fill="#6F4DFB" stroke="black" stroke-width="2" stroke-miterlimit="10" stroke-linecap="round" stroke-linejoin="round"/>
<path d="M1982.76 309.899C1982.76 309.899 1997.42 300.509 2012.5 281.452" stroke="black" stroke-width="2" stroke-miterlimit="10" stroke-linecap="round" stroke-linejoin="round"/>
<path d="M2146.85 365.495C2146.85 365.495 2133.89 341.548 2123.51 310.472C2113.13 279.397 2108.27 252.394 2108.27 252.394" stroke="black" stroke-width="2" stroke-miterlimit="10" stroke-linecap="round" stroke-linejoin="round"/>
</svg>
