<svg width="1200" height="960" viewBox="0 0 1200 960" fill="none" xmlns="http://www.w3.org/2000/svg">
<rect width="1200" height="960" fill="#E0E8FE"/>
<path d="M556.18 476.592H1167.86V916.855H556.18V476.592Z" fill="#956CFA" stroke="black" stroke-width="2" stroke-miterlimit="10" stroke-linecap="round" stroke-linejoin="round"/>
<path d="M706.088 828.923L135.674 828.923L135.674 740.969L706.088 740.969L706.088 828.923Z" fill="#DBCCFF" stroke="black" stroke-width="2" stroke-miterlimit="10"/>
<path d="M599.414 916.68L29 916.68L29 828.726L599.414 828.726L599.414 916.68Z" fill="#DBCCFF" stroke="black" stroke-width="2" stroke-miterlimit="10"/>
<path d="M781.344 740.964L210.93 740.964L210.93 653.01L781.344 653.01L781.344 740.964Z" fill="#DBCCFF" stroke="black" stroke-width="2" stroke-miterlimit="10"/>
<path d="M839.15 652.979L268.736 652.979L268.736 565.025L839.15 565.025L839.15 652.979Z" fill="#DBCCFF" stroke="black" stroke-width="2" stroke-miterlimit="10"/>
<path d="M911.87 564.923L341.455 564.923L341.455 476.969L911.87 476.969L911.87 564.923Z" fill="#DBCCFF" stroke="black" stroke-width="2" stroke-miterlimit="10"/>
<path d="M626.504 544.823H599.641L565.894 511.146L596.97 509.34L626.504 544.823Z" fill="#C2462C" stroke="black" stroke-width="2" stroke-miterlimit="10"/>
<path d="M601.86 537.831C603.054 534.542 600.618 531.07 597.123 531.07H587.443C586.213 531.07 585.025 531.523 584.101 532.335L577.893 537.831L531.029 551.036C524.98 552.743 520.802 558.256 520.802 564.541H589.167L600.194 561.234V564.911H643.586L622.267 537.831H601.86Z" fill="black"/>
<path d="M556.091 545.281L568.072 551.49C569.419 552.19 570.99 552.337 572.444 551.901C577.439 550.413 578.157 543.634 573.585 541.133L568.907 538.573C568.431 538.314 567.872 538.25 567.348 538.397L556.485 541.439C554.673 541.945 554.42 544.416 556.091 545.281Z" fill="#EFA360" stroke="black" stroke-width="2" stroke-miterlimit="10"/>
<path d="M665.882 391.698L476.405 388.497C457.522 388.203 440.804 417.931 456.062 432.618C517.966 492.233 556.073 525.28 556.073 525.28H619.272L561.981 461.976C561.981 461.976 589.555 454.608 629.522 462.482C649.088 466.336 701.4 489.097 705.089 451.648C708.785 414.206 665.882 391.698 665.882 391.698Z" fill="#8E191C" stroke="black" stroke-width="2" stroke-miterlimit="10"/>
<path d="M552.149 461.982L530.035 440.669" stroke="black" stroke-width="2" stroke-miterlimit="10" stroke-linecap="round" stroke-linejoin="round"/>
<path d="M668.753 544.823H641.891L608.138 511.146L639.214 509.34L668.753 544.823Z" fill="#C2462C" stroke="black" stroke-width="2" stroke-miterlimit="10"/>
<path d="M644.104 537.831C645.298 534.542 642.862 531.07 639.367 531.07H629.687C628.457 531.07 627.269 531.523 626.345 532.335L620.137 537.831L573.273 551.036C567.224 552.743 563.046 558.256 563.046 564.541H631.411L642.439 561.234V564.911H685.83L664.511 537.831H644.104Z" fill="black"/>
<path d="M598.341 545.281L610.322 551.49C611.669 552.19 613.24 552.337 614.694 551.901C619.69 550.413 620.407 543.634 615.835 541.133L611.157 538.573C610.681 538.314 610.122 538.25 609.598 538.397L598.735 541.439C596.917 541.945 596.664 544.416 598.341 545.281Z" fill="#EFA360" stroke="black" stroke-width="2" stroke-miterlimit="10"/>
<path d="M624.409 214.808C624.409 214.808 625.456 200.315 638.196 196.661C650.941 193.001 666.376 193.577 675.685 205.064C683.959 215.273 688.084 233.674 682.105 246.113C676.127 258.553 691.302 257.441 689.661 276.318C687.631 299.702 652.824 313.548 620.978 307.717C591.68 302.35 578.234 293.277 584.248 271.804C587.643 259.677 603.602 260.024 610.021 252.886C616.441 245.748 612.04 237.728 611.963 229.672C611.887 221.617 624.409 214.808 624.409 214.808Z" fill="black"/>
<path d="M634.771 235.51L627.451 278.248C627.451 278.248 636.607 281.208 642.515 281.155C652.471 281.061 655.678 276.153 655.678 276.153L659.28 248.485L634.771 235.51Z" fill="#F28377" stroke="black" stroke-width="2" stroke-miterlimit="10"/>
<path d="M643.215 246.86C643.215 246.86 644.151 252.08 648.535 256.817C652.919 261.56 656.926 263.913 656.926 263.913L658.573 250.879L643.215 246.86Z" fill="black"/>
<path d="M672.649 210.76C672.649 210.76 679.022 241.847 668.83 249.161C658.644 256.475 642.998 249.026 636.848 241.105C630.699 233.185 632.488 229.996 634.448 228.213C637.037 225.853 639.767 228.16 639.767 228.16C639.767 228.16 637.572 213.725 643.627 211.389C649.682 209.053 672.649 210.76 672.649 210.76Z" fill="#F28377" stroke="black" stroke-width="2" stroke-miterlimit="10"/>
<path d="M666.694 237.44L657.526 235.086C657.526 235.086 656.132 238.817 660.215 240.347C665.035 242.147 666.694 237.44 666.694 237.44Z" fill="white"/>
<path d="M654.89 226.983C653.824 226.983 652.96 226.119 652.96 225.053C652.96 223.987 653.824 223.123 654.89 223.123C655.956 223.123 656.82 223.987 656.82 225.053C656.82 226.119 655.956 226.983 654.89 226.983Z" fill="black"/>
<path d="M668.742 226.925C667.676 226.925 666.812 226.06 666.812 224.994C666.812 223.929 667.676 223.064 668.742 223.064C669.808 223.064 670.672 223.929 670.672 224.994C670.672 226.06 669.808 226.925 668.742 226.925Z" fill="black"/>
<path d="M662.91 223.864C662.91 223.864 665.399 229.325 664.399 230.961C663.399 232.597 661.157 232.008 661.157 232.008" stroke="black" stroke-width="2" stroke-miterlimit="10" stroke-linecap="round" stroke-linejoin="round"/>
<path d="M656.755 219.834L651.777 221.34" stroke="black" stroke-width="2" stroke-miterlimit="10" stroke-linecap="round" stroke-linejoin="round"/>
<path d="M672.266 221.799L667.677 219.345" stroke="black" stroke-width="2" stroke-miterlimit="10" stroke-linecap="round" stroke-linejoin="round"/>
<path d="M708.132 391.698L518.655 388.497C499.772 388.203 483.054 417.931 498.312 432.618C560.216 492.233 598.323 525.28 598.323 525.28H661.522L604.231 461.976C604.231 461.976 625.497 471.426 665.464 479.299C685.03 483.153 708.485 480.976 712.174 443.528C715.87 406.08 708.132 391.698 708.132 391.698Z" fill="#8E191C" stroke="black" stroke-width="2" stroke-miterlimit="10"/>
<path d="M598.006 276.518C598.006 276.518 601.06 266.744 630.987 266.132C641.791 265.914 650.112 265.702 656.343 265.52C671.084 265.096 684.806 273.205 691.344 286.421C692.332 288.416 693.28 290.581 694.156 292.935C700.388 309.558 703.507 316.349 708.603 352.52C712.786 382.213 712.221 404.791 712.221 404.791L633.641 401.278L581.988 399.089L598.006 276.518Z" fill="#FFED94" stroke="black" stroke-width="2" stroke-miterlimit="10" stroke-linecap="round" stroke-linejoin="round"/>
<path d="M621.378 346.778L581.565 343.494C575.627 343.006 569.808 345.354 565.883 349.838C557.656 359.235 544.381 374.987 544.787 378.365C545.187 381.701 549.96 380.684 549.96 380.684C549.96 380.684 548.547 382.384 551.319 384.514C553.408 386.121 555.797 384.414 555.797 384.414C555.797 384.414 555.562 386.827 557.627 388.139C560.04 389.675 562.24 387.88 562.24 387.88C562.24 387.88 561.328 391.217 566.454 391.54C570.367 391.787 587.049 367.832 587.049 367.832C587.049 367.832 595.464 369.397 604.926 371.163C614.388 372.928 626.309 372.769 626.309 372.769L621.378 346.778Z" fill="#F28377" stroke="black" stroke-width="2" stroke-miterlimit="10" stroke-linecap="round" stroke-linejoin="round"/>
<path d="M562.228 387.88L576.633 367.773" stroke="black" stroke-width="2" stroke-miterlimit="10" stroke-linecap="round" stroke-linejoin="round"/>
<path d="M555.656 384.668L570.061 364.555" stroke="black" stroke-width="2" stroke-miterlimit="10" stroke-linecap="round" stroke-linejoin="round"/>
<path d="M550.071 381.066L564.476 360.959" stroke="black" stroke-width="2" stroke-miterlimit="10" stroke-linecap="round" stroke-linejoin="round"/>
<path d="M696.592 288.986L716.411 373.721C716.482 374.051 716.546 374.386 716.605 374.716C718.653 386.808 707.384 396.982 695.427 394.264L600.801 374.298L604.013 339.722L668.736 349.131L654.107 297.678C651.965 286.303 659.133 275.252 670.395 272.569C682.176 269.756 693.98 277.153 696.592 288.986Z" fill="#FFED94" stroke="black" stroke-width="2" stroke-miterlimit="10" stroke-linecap="round" stroke-linejoin="round"/>
<path d="M604.231 461.982L582.124 440.669" stroke="black" stroke-width="2" stroke-miterlimit="10" stroke-linecap="round" stroke-linejoin="round"/>
<path d="M507.851 390.51H649.929V402.349H507.851V390.51Z" fill="#6F4DFB" stroke="black" stroke-width="2" stroke-miterlimit="10" stroke-linecap="round" stroke-linejoin="round"/>
<path d="M574.374 402.397L525.404 320.08H410.335L458.404 402.397H574.374Z" fill="#6F4DFB" stroke="black" stroke-width="2" stroke-miterlimit="10" stroke-linecap="round" stroke-linejoin="round"/>
<path d="M567.466 402.397L518.49 320.08H403.427L451.496 402.397H567.466Z" fill="#C6B0FD" stroke="black" stroke-width="2" stroke-miterlimit="10"/>
<path d="M993.545 791.376C993.545 791.376 986.402 754.28 972.985 748.784C950.748 739.675 935.472 762.371 935.472 762.371" stroke="black" stroke-width="2" stroke-miterlimit="10"/>
<path d="M984.977 721.375C984.977 722.352 994.033 730.431 997.705 746.831C1001.38 763.231 1001.38 793.335 1001.38 793.335" stroke="black" stroke-width="2" stroke-miterlimit="10"/>
<path d="M950.819 612.332C950.819 612.332 963.652 594.343 977.969 655.735C992.286 717.127 997.788 789.522 997.788 789.522" stroke="black" stroke-width="2" stroke-miterlimit="10"/>
<path d="M1040.46 676.654C1040.46 676.654 1019.54 685.74 1016.51 720.422C1013.48 755.111 1017.61 791.723 1017.61 791.723" stroke="black" stroke-width="2" stroke-miterlimit="10"/>
<path d="M1046.84 727.06C1046.84 727.06 1040.46 711.896 1026.14 710.796C1011.83 709.695 1008.25 731.714 1006.87 750.439C1005.5 769.157 1007.7 791.729 1007.7 791.729" stroke="black" stroke-width="2" stroke-miterlimit="10"/>
<path d="M1051.75 709.418C1051.75 709.418 1036.05 707.493 1030.28 719.327C1024.5 731.166 1012.1 782.919 1011.83 789.251" stroke="black" stroke-width="2" stroke-miterlimit="10"/>
<path d="M1108.87 765.785C1108.87 765.785 1088.36 736.122 1060 744.931C1031.65 753.739 1024.21 792.553 1024.21 792.553" stroke="black" stroke-width="2" stroke-miterlimit="10"/>
<path d="M1082.06 788.516H939.373C939.373 788.516 939.373 869.314 1009.86 869.314C1080.34 869.314 1082.06 788.516 1082.06 788.516Z" fill="white" stroke="black" stroke-width="2" stroke-miterlimit="10" stroke-linecap="round" stroke-linejoin="round"/>
<path d="M1081.2 821.604H938.085" stroke="black" stroke-width="5" stroke-miterlimit="10" stroke-linecap="round" stroke-linejoin="round"/>
<path d="M1066.59 842.093L1066.21 931.277C1066.2 934.278 1062.11 935.149 1060.87 932.418L1010.72 822.986L964.941 931.229C963.764 934.042 959.574 933.207 959.574 930.153V848.683" stroke="black" stroke-width="5" stroke-miterlimit="10" stroke-linecap="round" stroke-linejoin="round"/>
<path d="M1046.18 861.854L1015.68 937.644C1014.74 939.98 1011.44 939.986 1010.5 937.656L980.853 865.119" stroke="black" stroke-width="5" stroke-miterlimit="10" stroke-linecap="round" stroke-linejoin="round"/>
<path d="M1036.44 661.084C1036.44 661.084 1027.24 639.171 1048.28 640.648C1069.04 642.101 1081.62 661.443 1081.62 661.443C1081.62 661.443 1057.24 654.27 1055.45 662.52C1053.65 670.77 1080.19 665.745 1092.02 671.841C1103.85 677.937 1114.25 695.149 1114.25 695.149C1114.25 695.149 1080.75 686.699 1060.1 689.417C1036.18 692.566 1022.95 689.694 1019.95 680.45C1015.85 667.81 1036.44 661.084 1036.44 661.084Z" fill="#6B7240" stroke="black" stroke-width="2" stroke-miterlimit="10" stroke-linecap="round" stroke-linejoin="round"/>
<path d="M974.056 710.566C974.056 710.566 997.364 704.47 995.21 713.432C993.057 722.393 990.191 727.772 960.428 728.131C930.665 728.49 907.003 738.887 907.003 738.887C907.003 738.887 911.664 719.528 919.555 710.201C927.446 700.874 943.222 687.611 956.126 690.123C969.037 692.636 974.056 710.566 974.056 710.566Z" fill="#2E3716" stroke="black" stroke-width="2" stroke-miterlimit="10" stroke-linecap="round" stroke-linejoin="round"/>
<path d="M932.424 755.081C932.424 755.081 940.068 747.349 942.798 753.416C945.758 759.989 944.293 771.74 933.86 786.633C925.074 799.173 921.667 824.281 921.667 824.281C921.667 824.281 910.811 803.745 910.552 785.556C910.358 772.057 912.629 763.719 915.659 756.293C919.455 746.996 925.427 745.436 927.405 746.113C931.43 747.502 932.424 755.081 932.424 755.081Z" fill="#6B7240" stroke="black" stroke-width="2" stroke-miterlimit="10" stroke-linecap="round" stroke-linejoin="round"/>
<path d="M1118.06 768.215C1118.06 768.215 1130.84 763.301 1131.66 775.753C1132.49 788.204 1126.59 792.623 1125.77 798.031C1124.95 803.439 1130.68 809.659 1125.44 819.656C1120.19 829.648 1106.01 845.03 1106.01 845.03C1106.01 845.03 1117.57 819.656 1116.42 805.569C1115.28 791.476 1118.06 768.215 1118.06 768.215Z" fill="black"/>
<path d="M1050.4 705.099C1050.4 705.099 1043.89 701.027 1040.36 705.64C1036.83 710.254 1052.57 727.083 1068.86 734.68C1085.14 742.276 1102.51 742.006 1102.51 742.006C1102.51 742.006 1090.84 728.436 1086.5 718.121C1082.16 707.806 1078.9 695.866 1068.05 692.883C1057.18 689.905 1050.4 705.099 1050.4 705.099Z" fill="black"/>
<path d="M950.819 612.332C950.819 612.332 956.344 623.936 943.634 633.051C930.923 642.165 919.325 652.663 916.283 662.608C913.247 672.552 906.339 677.525 906.339 686.64C906.339 695.755 907.168 699.35 907.168 699.35C907.168 699.35 895.288 683.88 907.445 662.331C919.602 640.783 918.772 637.746 928.164 627.796C937.555 617.851 941.698 601.275 950.265 601.828C958.833 602.381 950.819 612.332 950.819 612.332Z" fill="#2E3716" stroke="black" stroke-width="2" stroke-miterlimit="10" stroke-linecap="round" stroke-linejoin="round"/>
<path d="M976.41 727C976.41 727 956.585 725.041 940.915 722.593C925.251 720.145 920.844 721.616 916.436 726.018C912.029 730.425 906.998 738.881 906.998 738.881C906.998 738.881 919.131 733.85 934.307 731.89C949.489 729.942 976.41 727 976.41 727Z" fill="#6B7240" stroke="black" stroke-width="2" stroke-miterlimit="10" stroke-linecap="round" stroke-linejoin="round"/>
<path d="M1046.84 727.059C1046.84 727.059 1041.82 713.79 1058.67 714.149C1075.53 714.508 1087.36 725.982 1089.87 733.155C1092.37 740.328 1089.15 756.463 1089.15 756.463C1089.15 756.463 1077.67 738.175 1070.86 741.764C1064.05 745.348 1085.92 765.072 1085.92 765.072L1074.8 796.265C1074.8 796.265 1062.97 776.906 1044.33 770.091C1025.68 763.277 1019.94 752.521 1019.23 742.123C1018.52 731.725 1023.17 728.495 1028.91 726.347C1034.65 724.199 1046.84 727.059 1046.84 727.059Z" fill="#6B7240" stroke="black" stroke-width="2" stroke-miterlimit="10" stroke-linecap="round" stroke-linejoin="round"/>
<path d="M1108.87 765.785C1108.87 765.785 1114.25 784.073 1112.1 802.715C1109.94 821.363 1106 845.024 1106 845.024C1106 845.024 1122.14 819.209 1121.42 807.017C1120.7 794.824 1118.91 791.241 1121.78 778.33C1124.64 765.42 1125.72 757.894 1120.7 755.74C1115.69 753.592 1108.87 765.785 1108.87 765.785Z" fill="#2E3716" stroke="black" stroke-width="2" stroke-miterlimit="10" stroke-linecap="round" stroke-linejoin="round"/>
<path d="M779.516 320.62L757.02 333.466C757.02 333.466 741.479 306.427 741.72 304.074C741.961 301.72 745.121 301.549 745.121 301.549C745.121 301.549 743.432 298.095 744.78 296.648C746.622 294.664 748.069 295.9 748.069 295.9C748.069 295.9 745.763 292.905 747.104 291.069C748.552 289.086 749.558 290.169 749.558 290.169C749.558 290.169 740.414 271.009 742.562 269.827C744.709 268.644 755.966 288.362 755.966 288.362L779.516 320.62Z" fill="#F28377" stroke="black" stroke-width="2" stroke-miterlimit="10" stroke-linecap="round" stroke-linejoin="round"/>
<path d="M765.24 306.439C764.81 306.233 757.308 292.993 755.378 293.405C753.448 293.817 757.402 308.24 757.402 308.24C757.402 308.24 755.301 313.853 758.679 321.591" stroke="black" stroke-width="2" stroke-miterlimit="10" stroke-linecap="round" stroke-linejoin="round"/>
<path d="M779.057 317.52C780.963 318.638 788.625 329.524 794.868 338.456C802.571 349.478 806.484 355.956 806.484 355.956C806.484 355.956 809.732 327.923 814.239 315.754C818.747 303.585 827.538 284.861 832.469 285.191C837.4 285.52 858.796 307.875 857.754 319.885C856.713 331.901 834.187 405.674 819.37 410.946C807.761 415.077 791.478 406.286 775.191 375.857C761.792 350.831 754.148 333.354 754.148 333.354L779.057 317.52Z" fill="#8F8F8F" stroke="black" stroke-width="2" stroke-miterlimit="10" stroke-linecap="round" stroke-linejoin="round"/>
<path d="M656.767 606.972L771.613 494.045L882.033 454.555L844.72 408.551L739.731 454.673L619.154 606.972H656.767Z" fill="white" stroke="black" stroke-width="2" stroke-miterlimit="10" stroke-linecap="round" stroke-linejoin="round"/>
<path d="M602.507 640.561L579.346 666.77C579.346 666.77 584.325 671.689 591.427 676.744C598.529 681.798 603.455 681.304 603.455 681.304L630.052 653.271L602.507 640.561Z" fill="black"/>
<path d="M582.536 637.36L563.305 656.06C563.305 656.06 556.009 651.359 547.065 643.297C539.321 636.324 535.484 630.381 535.484 630.381L551.113 609.05L582.536 637.36Z" fill="black"/>
<path d="M637.231 580.499L617.771 607.697L573.88 616.117C573.88 616.117 552.202 607.344 551.107 609.05C550.019 610.757 564.859 633.094 573.397 638.543C581.935 643.992 599.636 644.25 605.079 649.152C610.522 654.054 624.827 657.084 630.052 653.271C635.277 649.464 638.714 627.009 638.714 627.009L663.422 602.289L637.231 580.499Z" fill="black"/>
<path d="M768.153 675.873L760.062 494.822C759.632 485.236 764.098 476.086 771.925 470.525L859.219 408.504L913.362 416.336L902.364 455.967C896.938 475.527 881.133 490.485 861.297 494.822L803.794 507.403L794.95 669.588L768.153 675.873Z" fill="white" stroke="black" stroke-width="2" stroke-miterlimit="10" stroke-linecap="round" stroke-linejoin="round"/>
<path d="M776.285 705.542L774.102 741.278H802.053L805.83 698.657L776.285 705.542Z" fill="black"/>
<path d="M758.555 715.28L754.86 741.119H717.135L716.37 712.232L758.555 715.28Z" fill="black"/>
<path d="M765.393 637.077L766.611 669.788L738.678 703.83C738.678 703.83 716.182 710.22 716.37 712.238C716.558 714.257 741.985 722.766 752.071 721.824C762.156 720.883 776.279 710.214 783.587 710.744C790.896 711.273 804.042 704.877 805.83 698.657C807.613 692.443 796.539 672.613 796.539 672.613L798.481 637.789L765.393 637.077Z" fill="black"/>
<path d="M859.214 408.504L918.24 416.706C918.24 416.706 914.433 472.502 891.454 491.079C868.476 509.656 813.533 521.454 813.533 521.454L804.948 499.512L837.253 477.198L796.015 489.638L734.682 451.925C734.682 451.925 747.31 442.651 774.061 428.334C794.356 417.471 828.603 405.108 828.603 405.108L859.214 408.504Z" fill="#C2462C" stroke="black" stroke-width="2" stroke-miterlimit="10" stroke-linecap="round" stroke-linejoin="round"/>
<path d="M830.816 291.693C825.155 292.523 820.7 296.56 818.653 301.897C814.851 311.789 813.162 320.692 813.786 329.907C814.839 345.547 817.075 354.115 820.406 366.178C823.737 378.241 825.996 394.57 831.057 409.187C836.117 423.804 900.398 442.039 912.838 424.027C925.278 406.015 916.592 352.585 910.302 329.542C906.942 317.214 904.3 308.087 899.245 298.984C893.425 288.51 883.746 283.914 874.825 285.226L830.816 291.693Z" fill="#BFBFBF" stroke="black" stroke-width="2" stroke-miterlimit="10" stroke-linecap="round" stroke-linejoin="round"/>
<path d="M781.357 362.259L812.568 366.348L802.229 412.87L779.698 409.922L781.357 362.259Z" fill="#FFED94" stroke="black" stroke-width="2" stroke-miterlimit="10" stroke-linecap="round" stroke-linejoin="round"/>
<path d="M810.62 377.252C810.62 377.252 813.339 379.829 812.851 382.719C812.533 384.59 811.715 387.485 811.715 387.485L888.229 399.148L867.146 342.717L897.539 328.076C897.539 328.076 921.812 397.794 922.818 404.773C923.818 411.752 923.436 431.418 906.73 431.418C890.024 431.418 791.796 407.874 791.796 407.874C791.796 407.874 774.131 394.317 772.56 392.169C770.983 390.021 773.107 388.615 773.107 388.615C773.107 388.615 771.636 386.314 772.466 385.155C773.296 383.995 774.361 384.219 774.361 384.219C774.361 384.219 773.049 382.024 773.872 380.865C774.696 379.706 775.744 380.1 775.744 380.1C775.744 380.1 774.602 376.575 775.808 375.722C777.015 374.869 778.921 377.058 785.676 380.218C792.432 383.378 796.48 384.666 801.394 384.472C806.313 384.272 809.249 381.789 809.608 380.994C809.967 380.2 810.62 377.252 810.62 377.252Z" fill="#F28377" stroke="black" stroke-width="2" stroke-miterlimit="10" stroke-linecap="round" stroke-linejoin="round"/>
<path d="M855.883 303.638C859.114 295.112 872.277 291.287 877.708 291.999C883.139 292.711 899.863 293.429 908.613 321.897C917.363 350.366 924.483 380.977 926.007 389.944C927.531 398.912 930.779 417.889 924.477 424.821C918.175 431.753 912.62 438.108 893.384 435.589C874.154 433.071 820.335 421.638 813.692 415.706C807.048 409.775 814.198 386.09 821.424 385.013C828.65 383.936 886.329 394.187 886.329 394.187C886.329 394.187 870.865 363.235 861.885 346.041C850.634 324.498 852.682 312.076 855.883 303.638Z" fill="#BFBFBF" stroke="black" stroke-width="2" stroke-miterlimit="10" stroke-linecap="round" stroke-linejoin="round"/>
<path d="M833.21 303.109C835.77 305.039 839.254 305.151 841.961 303.433C846.486 300.555 854.106 296.719 863.38 295.966C878.585 294.736 890.919 292.511 894.332 288.022C901.775 278.224 891.748 266.726 881.498 264.308C871.247 261.889 828.868 276.4 823.754 283.967C819.718 289.946 819 294.271 826.485 298.655C829.28 300.291 831.51 301.826 833.21 303.109Z" fill="#8F8F8F" stroke="black" stroke-width="2" stroke-miterlimit="10"/>
<path d="M816.981 223.228C816.981 223.228 814.816 232.737 812.515 243.571C812.297 244.6 815.846 244.412 815.881 245.442C816.093 251.597 816.934 257.581 818.835 259.764C822.701 264.201 831.445 263.683 831.445 263.683L832.293 278.324C832.74 286.079 839.507 291.929 847.239 291.258C854.906 290.593 860.543 283.784 859.761 276.129L858.201 260.835C858.201 260.835 846.509 227.83 834.734 222.128C822.96 216.426 816.981 223.228 816.981 223.228Z" fill="#F28377" stroke="black" stroke-width="2" stroke-miterlimit="10" stroke-linecap="round" stroke-linejoin="round"/>
<path d="M819.206 236.615C818.341 236.615 817.64 235.914 817.64 235.05C817.64 234.185 818.341 233.484 819.206 233.484C820.07 233.484 820.771 234.185 820.771 235.05C820.771 235.914 820.07 236.615 819.206 236.615Z" fill="black"/>
<path d="M818.023 230.466L822.083 231.596" stroke="black" stroke-width="2" stroke-miterlimit="10" stroke-linecap="round" stroke-linejoin="round"/>
<path d="M828.932 243.011C828.932 243.011 814.48 255.257 824.101 276.982C826.861 283.219 846.38 286.155 863.009 280.071C878.044 274.569 890.913 263.836 890.913 263.836C890.913 263.836 868.222 242.582 865.916 220.439C864.262 204.586 843.031 202.438 831.563 202.827C820.294 203.203 797.757 213.995 803.1 228.212C804.153 231.013 811.25 219.356 817.228 223.616C822.077 227.07 825.896 232.961 825.896 232.961C825.896 232.961 829.268 227.977 831.816 230.707C838.3 237.645 828.932 243.011 828.932 243.011Z" fill="#EF95BD" stroke="#231F20" stroke-width="2" stroke-miterlimit="10"/>
<path d="M859.461 224.158C849.318 224.158 841.096 215.936 841.096 205.793C841.096 195.65 849.318 187.428 859.461 187.428C869.603 187.428 877.826 195.65 877.826 205.793C877.826 215.936 869.603 224.158 859.461 224.158Z" fill="#EF95BD" stroke="#231F20" stroke-width="2" stroke-miterlimit="10"/>
<path d="M775.785 379.982L789.919 388.056" stroke="black" stroke-width="2" stroke-miterlimit="10" stroke-linecap="round" stroke-linejoin="round"/>
<path d="M774.255 384.331L788.389 392.399" stroke="black" stroke-width="2" stroke-miterlimit="10" stroke-linecap="round" stroke-linejoin="round"/>
<path d="M773.154 388.427L787.042 397.171" stroke="black" stroke-width="2" stroke-miterlimit="10" stroke-linecap="round" stroke-linejoin="round"/>
<path d="M323.929 601.623L463.571 615.969L470.297 482.335C470.809 472.137 462.983 463.446 452.785 462.887L374.64 458.638C364.402 458.079 355.251 464.976 352.956 474.967L323.929 601.623Z" fill="#EFA360" stroke="black" stroke-width="2" stroke-miterlimit="10"/>
<path d="M361.418 436.395C361.418 436.395 348.655 443.339 340.105 437.331C331.555 431.323 331.549 418.154 340.511 410.698C349.473 403.243 358.305 405.173 360.865 403.837C364.555 401.913 368.068 393.84 375.017 394.363C377.753 394.569 379.925 396.929 379.925 396.929C379.925 396.929 382.937 393.01 388.263 394.928C390.352 395.681 394.594 396.823 398.325 405.85C402.056 414.876 406.663 419.107 408.611 421.637C412.265 426.368 410.188 432.365 403.227 436.448C396.271 440.532 361.418 436.395 361.418 436.395Z" fill="black"/>
<path d="M401.603 430.311L432.719 461.151C432.719 461.151 426.811 470.595 418.72 471.842C408.252 473.461 398.866 468.088 398.866 468.088L388.257 456.625L401.603 430.311Z" fill="#F28377" stroke="black" stroke-width="2" stroke-miterlimit="10" stroke-linecap="round" stroke-linejoin="round"/>
<path d="M402.415 438.113C402.415 438.113 404.851 447.305 404.151 454.142C403.403 461.439 398.808 467.953 398.808 467.953L390.334 458.279L402.415 438.113Z" fill="black"/>
<path d="M353.492 432.023C353.492 432.023 367.02 462.963 380.366 463.069C393.712 463.181 402.744 447.105 403.233 436.448C403.727 425.792 400.208 424.115 397.413 423.768C393.718 423.303 392.758 426.986 392.758 426.986C392.758 426.986 385.815 413.087 379.118 414.77C372.422 416.453 353.492 432.023 353.492 432.023Z" fill="#F28377" stroke="black" stroke-width="2" stroke-miterlimit="10" stroke-linecap="round" stroke-linejoin="round"/>
<path d="M377.7 435.619C376.566 435.619 375.647 434.7 375.647 433.565C375.647 432.431 376.566 431.512 377.7 431.512C378.834 431.512 379.754 432.431 379.754 433.565C379.754 434.7 378.834 435.619 377.7 435.619Z" fill="black"/>
<path d="M365.62 444.057C364.485 444.057 363.566 443.137 363.566 442.003C363.566 440.869 364.485 439.949 365.62 439.949C366.754 439.949 367.673 440.869 367.673 442.003C367.673 443.137 366.754 444.057 365.62 444.057Z" fill="black"/>
<path d="M370.351 437.201C370.351 437.201 371.539 443.48 373.41 444.286C375.282 445.092 376.87 443.209 376.87 443.209" stroke="black" stroke-width="2" stroke-miterlimit="10" stroke-linecap="round" stroke-linejoin="round"/>
<path d="M373.046 429.434L378.3 427.692" stroke="black" stroke-width="2" stroke-miterlimit="10" stroke-linecap="round" stroke-linejoin="round"/>
<path d="M360.765 440.662L363.248 435.713" stroke="black" stroke-width="2" stroke-miterlimit="10" stroke-linecap="round" stroke-linejoin="round"/>
<path d="M383.19 449.641C383.19 449.641 385.468 448.399 386.403 445.934" stroke="black" stroke-width="2" stroke-miterlimit="10" stroke-linecap="round" stroke-linejoin="round"/>
<path d="M378.912 439.443C374.177 439.443 370.339 435.605 370.339 430.869C370.339 426.134 374.177 422.296 378.912 422.296C383.647 422.296 387.486 426.134 387.486 430.869C387.486 435.605 383.647 439.443 378.912 439.443Z" stroke="black" stroke-width="2" stroke-miterlimit="10" stroke-linecap="round" stroke-linejoin="round"/>
<path d="M361.206 451.689C356.471 451.689 352.633 447.851 352.633 443.116C352.633 438.38 356.471 434.542 361.206 434.542C365.941 434.542 369.78 438.38 369.78 443.116C369.78 447.851 365.941 451.689 361.206 451.689Z" stroke="black" stroke-width="2" stroke-miterlimit="10" stroke-linecap="round" stroke-linejoin="round"/>
<path d="M430.624 693.343H503.02V536.594C503.02 517.235 487.326 501.541 467.967 501.541H465.678C446.318 501.541 430.624 517.235 430.624 536.594V693.343Z" fill="#8F8F8F" stroke="black" stroke-width="2" stroke-miterlimit="10" stroke-linecap="round" stroke-linejoin="round"/>
<path d="M480.877 887.822L488.874 917.926L540.445 915.113L528.693 885.897L480.877 887.822Z" fill="#8E191C" stroke="black" stroke-width="2" stroke-miterlimit="10"/>
<path d="M480.236 914.549L474.751 945.259H592.068C598.876 945.259 605.296 942.105 609.457 936.721C612.058 933.355 610.575 928.436 606.55 927.065L552.102 908.511L548.253 900.45C545.646 894.989 538.403 893.388 534.007 897.543C533.848 897.696 533.695 897.849 533.548 898.008C530.047 901.856 527.946 906.758 527.946 906.758L490.369 906.187C485.402 906.116 481.107 909.653 480.236 914.549Z" fill="#FFED94" stroke="black" stroke-width="2" stroke-miterlimit="10" stroke-linecap="round" stroke-linejoin="round"/>
<path d="M476.811 933.973C476.811 933.973 489.498 929.219 510.37 930.007C531.247 930.802 547.953 937.392 566.654 939.257C597.506 942.329 610.257 935.821 610.257 935.821L608.015 938.681C604.755 942.835 599.771 945.259 594.493 945.259H474.745L476.811 933.973Z" fill="black"/>
<path d="M556.144 907.435C554.785 906.381 552.896 906.346 551.395 907.182C548.595 908.747 543.781 911.636 542.851 913.484C541.527 916.126 543.116 918.238 544.699 918.503C546.282 918.768 549.589 914.555 554.214 912.16C558.139 910.13 557.503 908.494 556.144 907.435Z" fill="white" stroke="black" stroke-width="2" stroke-miterlimit="10" stroke-linecap="round" stroke-linejoin="round"/>
<path d="M568.219 912.089C566.86 911.036 564.971 911 563.47 911.836C560.669 913.401 555.856 916.29 554.926 918.138C553.602 920.78 555.191 922.893 556.774 923.157C558.357 923.422 561.664 919.209 566.289 916.814C570.214 914.784 569.578 913.148 568.219 912.089Z" fill="white" stroke="black" stroke-width="2" stroke-miterlimit="10" stroke-linecap="round" stroke-linejoin="round"/>
<path d="M580.27 916.008C578.911 914.955 577.022 914.919 575.521 915.755C572.72 917.32 567.907 920.209 566.977 922.057C565.653 924.699 567.242 926.812 568.825 927.076C570.408 927.341 573.715 923.128 578.34 920.733C582.265 918.703 581.635 917.067 580.27 916.008Z" fill="white" stroke="black" stroke-width="2" stroke-miterlimit="10" stroke-linecap="round" stroke-linejoin="round"/>
<path d="M441.116 683.704L449.113 713.815L500.684 711.002L488.933 681.78L441.116 683.704Z" fill="#8E191C" stroke="black" stroke-width="2" stroke-miterlimit="10"/>
<path d="M440.475 710.437L434.991 741.148H552.308C559.116 741.148 565.536 737.994 569.696 732.61C572.297 729.244 570.814 724.324 566.789 722.953L512.341 704.4L508.492 696.338C505.886 690.878 498.642 689.277 494.246 693.431C494.087 693.584 493.934 693.737 493.787 693.896C490.286 697.745 488.185 702.646 488.185 702.646L450.608 702.075C445.641 701.999 441.346 705.541 440.475 710.437Z" fill="#FFED94" stroke="black" stroke-width="2" stroke-miterlimit="10" stroke-linecap="round" stroke-linejoin="round"/>
<path d="M437.05 729.856C437.05 729.856 449.737 725.102 470.609 725.89C491.487 726.684 508.192 733.275 526.893 735.14C557.745 738.212 570.496 731.704 570.496 731.704L568.254 734.564C564.994 738.718 560.01 741.142 554.732 741.142H434.985L437.05 729.856Z" fill="black"/>
<path d="M516.383 703.323C515.024 702.27 513.135 702.235 511.635 703.07C508.834 704.636 504.02 707.525 503.091 709.373C501.767 712.015 503.355 714.127 504.938 714.392C506.521 714.657 509.828 710.444 514.453 708.049C518.378 706.018 517.743 704.383 516.383 703.323Z" fill="white" stroke="black" stroke-width="2" stroke-miterlimit="10" stroke-linecap="round" stroke-linejoin="round"/>
<path d="M528.458 707.972C527.099 706.918 525.21 706.883 523.71 707.719C520.909 709.284 516.095 712.173 515.165 714.021C513.841 716.663 515.43 718.776 517.013 719.04C518.596 719.305 521.903 715.092 526.528 712.697C530.453 710.667 529.817 709.037 528.458 707.972Z" fill="white" stroke="black" stroke-width="2" stroke-miterlimit="10" stroke-linecap="round" stroke-linejoin="round"/>
<path d="M540.509 711.891C539.15 710.837 537.261 710.802 535.761 711.638C532.96 713.203 528.146 716.092 527.216 717.94C525.892 720.582 527.481 722.695 529.064 722.959C530.647 723.224 533.954 719.011 538.579 716.616C542.504 714.586 541.874 712.95 540.509 711.891Z" fill="white" stroke="black" stroke-width="2" stroke-miterlimit="10" stroke-linecap="round" stroke-linejoin="round"/>
<path d="M429.565 612.191L476.187 656.636C482.225 662.367 486.691 669.552 489.156 677.508L555.114 890.511L478.6 898.478L421.58 710.713L360.818 666.015C345.713 654.9 334.209 634.422 335.668 609.867L342.853 599.187L429.565 612.191Z" fill="#8F8F8F" stroke="black" stroke-width="2" stroke-miterlimit="10" stroke-linecap="round" stroke-linejoin="round"/>
<path d="M466.978 501.665C470.668 508.073 503.479 540.496 503.479 540.496C503.479 540.496 495.712 540.69 488.915 540.302C482.119 539.913 462.641 536.942 457.981 534.223C453.32 531.504 444.547 523.207 442.493 524.155C439.733 525.426 440.269 528.262 440.269 528.262C440.269 528.262 433.002 523.602 430.671 524.767C428.341 525.932 430.283 529.816 430.283 529.816C430.283 529.816 427.759 529.039 426.011 530.398C424.263 531.757 426.011 534.476 426.011 534.476C426.011 534.476 424.569 533.693 423.234 535.847C422.139 537.618 423.91 540.231 423.91 540.231C423.91 540.231 422.033 544.085 424.669 547.392C426.652 549.881 440.31 563.51 468.314 569.047C496.318 574.584 526.722 573.907 530.629 568.7C534.537 563.492 534.86 548.187 526.722 534.841C518.584 521.495 460.299 464.517 460.299 464.517L466.978 501.665Z" fill="#F28377" stroke="black" stroke-width="2" stroke-miterlimit="10" stroke-linecap="round" stroke-linejoin="round"/>
<path d="M461.841 532.852L457.428 571.312L506.539 577.426C521.685 579.309 535.719 569.188 538.715 554.224C540.545 545.08 537.885 535.612 531.565 528.751C512.3 507.849 471.091 464.552 460.305 464.499C446.083 464.434 461.529 502.265 461.529 502.265L499.678 538.519L461.841 532.852Z" fill="#EFA360" stroke="black" stroke-width="2" stroke-miterlimit="10"/>
<path d="M430.283 529.815L443.747 537.465" stroke="black" stroke-width="2" stroke-miterlimit="10" stroke-linecap="round" stroke-linejoin="round"/>
<path d="M439.975 528.08L448.442 532.676" stroke="black" stroke-width="2" stroke-miterlimit="10" stroke-linecap="round" stroke-linejoin="round"/>
<path d="M425.935 534.329L439.498 542.402" stroke="black" stroke-width="2" stroke-miterlimit="10" stroke-linecap="round" stroke-linejoin="round"/>
<path d="M423.993 540.479L437.25 548.411" stroke="black" stroke-width="2" stroke-miterlimit="10" stroke-linecap="round" stroke-linejoin="round"/>
<path d="M392.524 675.96C392.524 675.96 409.053 669.617 412.901 670.964C416.744 672.312 409.441 678.843 406.94 685.763C404.439 692.683 402.71 694.99 399.638 695.184C396.56 695.378 383.491 688.841 385.604 684.998C387.722 681.15 392.524 675.96 392.524 675.96Z" fill="#EFA360" stroke="black" stroke-width="2" stroke-miterlimit="10"/>
<path d="M413.66 713.214C413.66 713.214 408.511 711.661 407.541 709.331C406.57 707 405.21 695.049 402.78 690.483C400.35 685.917 380.431 679.603 370.522 684.557C360.613 689.512 353.322 706.712 356.723 713.32C360.124 719.928 381.891 733.821 402.198 730.52C415.961 728.278 418.909 723.329 418.909 723.329L413.66 713.214Z" fill="white" stroke="black" stroke-width="2" stroke-miterlimit="10" stroke-linecap="round" stroke-linejoin="round"/>
<path d="M272.4 688.282C276.513 684.822 313.943 689.795 322.17 689.365C330.39 688.93 339.699 687.635 353.763 686.335C360.919 685.676 365.438 685.628 368.156 685.746C369.404 685.022 370.757 684.481 372.275 684.163C379.272 682.704 394.43 684.746 396.078 686.011C397.731 687.276 398.702 688.341 398.702 688.341C398.702 688.341 402.786 692.425 402.003 702.14C401.227 711.855 397.243 718.463 387.139 721.57C377.507 724.536 370.263 723.606 363.043 719.558L360.042 731.121C360.042 731.121 368.309 741.095 326.86 741.095C308.242 741.095 265.703 740.848 264.903 740.53C262.355 739.512 268.293 691.742 272.4 688.282Z" fill="#EFA360" stroke="black" stroke-width="2" stroke-miterlimit="10"/>
<path d="M390.146 715.268C385.996 715.268 382.632 711.69 382.632 707.277C382.632 702.864 385.996 699.286 390.146 699.286C394.296 699.286 397.661 702.864 397.661 707.277C397.661 711.69 394.296 715.268 390.146 715.268Z" fill="#C2462C" stroke="black" stroke-width="2" stroke-miterlimit="10" stroke-linecap="round" stroke-linejoin="round"/>
<path d="M373.046 711.496C371.51 707.453 365.891 706.842 362.584 709.625C359.436 712.273 356.093 715.503 353.822 718.828C348.326 726.872 337.175 740.718 342.094 740.718C353.063 740.718 398.938 740.383 419.415 740.271C424.258 740.247 423.558 731.544 409.718 729.42C401.456 728.155 380.667 731.521 373.046 711.496Z" fill="#C2462C" stroke="black" stroke-width="2" stroke-miterlimit="10" stroke-linecap="round" stroke-linejoin="round"/>
<path d="M229.126 722.688C236.529 719.24 252.928 720.311 252.928 720.311C252.928 720.311 252.281 718.145 252.493 713.385C252.681 709.236 256.983 704.923 258.077 703.882C257.436 704.447 255.647 705.824 253.629 705.694C251.145 705.529 249.892 702.781 249.892 702.781C249.892 702.781 250.975 693.696 257.03 690.448C263.091 687.199 272.094 686.205 277.243 686.405C286.211 686.752 302.981 688.082 315.097 687.217C327.213 686.352 357.282 685.999 357.282 685.999C357.282 685.999 356.605 692.819 351.156 700.404C345.554 708.201 340.123 714.903 330.385 715.986C320.646 717.069 322.811 708.63 314.803 711.008C309.377 712.62 299.586 715.221 291.883 715.592C291.907 716.892 291.836 718.246 291.648 719.664C289.918 732.862 284.463 740.665 268.487 740.665C253.946 740.665 233.01 734.163 233.01 734.163C233.01 734.163 230.933 739.188 227.267 740.1C222.942 741.183 219.023 738.182 218.946 732.862C218.928 731.126 220.747 726.584 229.126 722.688Z" fill="#C2462C" stroke="black" stroke-width="2" stroke-miterlimit="10" stroke-linecap="round" stroke-linejoin="round"/>
<path d="M412.519 712.89C412.519 712.89 409.088 715.009 412.219 720.258C413.955 723.17 416.12 725.895 416.12 725.895C416.12 725.895 422.94 722.782 421.81 716.315C420.98 711.578 412.519 712.89 412.519 712.89Z" fill="black"/>
<path d="M394.642 710.561C394.642 710.561 392.718 712.614 390.211 712.691C388.469 712.744 386.374 711.526 386.374 711.526" stroke="black" stroke-width="2" stroke-miterlimit="10" stroke-linecap="round" stroke-linejoin="round"/>
<path d="M415.785 725.895C415.785 725.895 411.106 728.231 406.564 726.513C403.039 725.183 400.809 722.376 400.809 722.376" stroke="black" stroke-width="2" stroke-miterlimit="10" stroke-linecap="round" stroke-linejoin="round"/>
<path d="M384.915 689.024C386.257 688.906 388.54 689.03 389.417 688.006C391.264 685.84 393.383 681.003 394.83 676.92C396.943 670.959 406.17 663.656 403.675 660.39C401.18 657.125 379.837 663.468 373.111 675.766C366.385 688.065 369.045 688.271 370.804 689.224C372.264 690.012 380.914 689.371 384.915 689.024Z" fill="#C2462C" stroke="black" stroke-width="2" stroke-miterlimit="10" stroke-linecap="round" stroke-linejoin="round"/>
<path d="M379.378 686.958C376.824 687.211 375.224 685.228 375.647 683.104C375.877 681.95 376.336 680.473 377.018 678.949C380.908 670.211 394.024 661.361 398.685 661.167C402.38 661.014 399.044 663.985 396.478 667.363C392.294 672.877 391.323 675.083 389.181 679.55C387.045 684.022 387.534 684.787 384.909 685.958C383.632 686.523 381.361 686.758 379.378 686.958Z" fill="white" stroke="black" stroke-width="2" stroke-miterlimit="10" stroke-linecap="round" stroke-linejoin="round"/>
<path d="M249.898 702.775C249.898 702.775 250.38 705.888 253.635 705.688C256.889 705.488 263.385 701.446 264.874 698.356C266.362 695.267 257.418 697.291 254.647 700.592C251.881 703.899 249.898 702.775 249.898 702.775Z" fill="white" stroke="black" stroke-width="2" stroke-miterlimit="10" stroke-linecap="round" stroke-linejoin="round"/>
<path d="M384.473 604.612L414.125 630.733C418.773 636.612 420.927 640.925 420.362 646.262C419.068 658.549 417.19 678.838 414.507 680.868C411.859 682.869 409.311 678.773 409.311 678.773C409.311 678.773 409.07 680.944 405.645 680.433C403.068 680.05 402.644 677.173 402.644 677.173C402.644 677.173 401.085 678.997 398.737 678.426C395.983 677.761 395.76 674.96 395.76 674.96C395.76 674.96 394.006 677.896 390.258 674.472C387.398 671.859 393.023 643.532 393.023 643.532C393.023 643.532 386.139 638.612 378.389 633.075C370.639 627.538 362.577 618.941 362.577 618.941L384.473 604.612Z" fill="#F28377" stroke="black" stroke-width="2" stroke-miterlimit="10" stroke-linecap="round" stroke-linejoin="round"/>
<path d="M395.76 674.954L400.208 650.893" stroke="black" stroke-width="2" stroke-miterlimit="10" stroke-linecap="round" stroke-linejoin="round"/>
<path d="M402.562 677.431L407.01 653.376" stroke="black" stroke-width="2" stroke-miterlimit="10" stroke-linecap="round" stroke-linejoin="round"/>
<path d="M408.958 678.944L413.401 654.883" stroke="black" stroke-width="2" stroke-miterlimit="10" stroke-linecap="round" stroke-linejoin="round"/>
<path d="M375.823 466.247C366.266 458.038 351.756 459.639 344.224 469.731L293.1 534.941C281.349 551.588 285.303 574.608 301.938 586.383L379.153 640.707C379.153 640.707 386.985 636.194 394.641 628.844C400.272 623.437 401.938 615.828 401.938 615.828L334.297 554.842L379.412 495.281C385.885 486.13 384.326 473.555 375.823 466.247Z" fill="#EFA360" stroke="black" stroke-width="2" stroke-miterlimit="10"/>
<path d="M37.1456 161H450.178C456.419 161 462.488 158.33 466.276 153.386C470.468 147.918 472.62 139.12 464.451 125.815C448.095 99.2145 404.209 102.648 404.209 102.648C404.209 102.648 399.044 69.1802 368.062 54.5879C337.081 39.9956 311.419 55.7809 311.419 55.7809C311.419 55.7809 281.134 29.6951 242.414 42.5707C203.684 55.4462 200.241 86.339 200.241 86.339C200.241 86.339 170.981 70.0299 147.747 84.6222C124.513 99.2145 124.513 114.657 124.513 114.657C124.513 114.657 90.9483 112.081 60.8274 120.665C42.3882 125.918 33.6247 139.858 29.596 149.875C27.4439 155.206 31.3866 161 37.1456 161Z" fill="#C6B0FD" stroke="black" stroke-width="1.3889" stroke-miterlimit="10"/>
<path d="M235.57 94.1503C235.57 94.1503 244.368 83.7382 258.649 84.2876C272.939 84.837 278.982 99.6353 278.982 99.6353C278.982 99.6353 297.491 87.249 319.39 102.408C341.307 117.584 327.353 146.76 327.353 146.76" stroke="black" stroke-width="1.3889" stroke-miterlimit="10" stroke-linecap="round" stroke-linejoin="round"/>
<path d="M954.221 144.181C944.213 144.181 936.1 136.077 936.1 126.081C936.1 116.085 944.213 107.981 954.221 107.981C964.229 107.981 972.342 116.085 972.342 126.081C972.342 136.077 964.229 144.181 954.221 144.181Z" fill="#FFED94" stroke="black" stroke-width="2" stroke-miterlimit="10" stroke-linecap="round" stroke-linejoin="round"/>
<path d="M943.674 103.666H967.215V110.499H943.674V103.666Z" fill="black"/>
<path d="M948.603 85.6182H962.286V108.579H948.603V85.6182Z" fill="black"/>
<path d="M956.463 89.5882V0" stroke="black" stroke-width="2" stroke-miterlimit="10"/>
<path d="M1018.39 48.3846V0" stroke="black" stroke-width="2" stroke-miterlimit="10"/>
<path d="M1017.28 114.851C1007.8 114.851 1000.11 107.171 1000.11 97.697C1000.11 88.2231 1007.8 80.543 1017.28 80.543C1026.77 80.543 1034.46 88.2231 1034.46 97.697C1034.46 107.171 1026.77 114.851 1017.28 114.851Z" fill="#FFED94" stroke="black" stroke-width="2" stroke-miterlimit="10" stroke-linecap="round" stroke-linejoin="round"/>
<path d="M1034.46 94.4501H1000.11L1009.39 62.3008H1025.79L1034.46 94.4501Z" fill="black"/>
<path d="M1025.79 62.3004L1022.39 26.1279H1014.03L1009.39 62.3004H1025.79Z" fill="black"/>
<path d="M1087.18 235C1077.7 235 1070.01 227.32 1070.01 217.846C1070.01 208.372 1077.7 200.692 1087.18 200.692C1096.67 200.692 1104.36 208.372 1104.36 217.846C1104.36 227.32 1096.67 235 1087.18 235Z" fill="#FFED94" stroke="black" stroke-width="2" stroke-miterlimit="10" stroke-linecap="round" stroke-linejoin="round"/>
<path d="M1104.36 214.599H1070L1079.29 186.669H1095.7L1104.36 214.599Z" fill="black"/>
<path d="M1095.7 186.669L1092.29 167.829H1083.93L1079.29 186.669H1095.7Z" fill="black"/>
<path d="M1088.26 171.915V0" stroke="black" stroke-width="2" stroke-miterlimit="10"/>
<path d="M1117.82 194.359C1108.33 194.359 1100.64 186.679 1100.64 177.205C1100.64 167.731 1108.33 160.051 1117.82 160.051C1127.3 160.051 1134.99 167.731 1134.99 177.205C1134.99 186.679 1127.3 194.359 1117.82 194.359Z" fill="#FFED94" stroke="black" stroke-width="2" stroke-miterlimit="10" stroke-linecap="round" stroke-linejoin="round"/>
<path d="M1135 173.958H1100.64L1109.93 146.028H1126.33L1135 173.958Z" fill="black"/>
<path d="M1126.33 146.028L1122.93 127.188H1114.58L1109.93 146.028H1126.33Z" fill="black"/>
<path d="M1118.91 131.265V0" stroke="black" stroke-width="2" stroke-miterlimit="10"/>
</svg>
