<svg width="1200" height="1920" viewBox="0 0 1200 1920" fill="none" xmlns="http://www.w3.org/2000/svg">
<g clip-path="url(#clip0_339_315)">
<rect width="1200" height="1920" fill="#FEF7E0"/>
<rect width="1200" height="153" fill="#824D33"/>
<path d="M479 261.115L1216.65 261.115L1216.65 31.9999L479 32L479 261.115Z" fill="#20457B" stroke="black" stroke-width="2" stroke-miterlimit="10" stroke-linecap="round" stroke-linejoin="round"/>
<path d="M1500 479L758.552 479L479 261.115L1216.65 261.115L1500 479Z" fill="#C5D9F7" stroke="black" stroke-width="2" stroke-miterlimit="10" stroke-linecap="round" stroke-linejoin="round"/>
<rect y="1745" width="1200" height="175" fill="#824D33"/>
<path d="M217.005 1782.13L240.507 1782.13L240.507 1568.18L217.005 1568.18L217.005 1782.13Z" fill="black"/>
<path d="M307.162 1813.35C307.162 1813.35 302.936 1788.08 288.037 1787.25C273.139 1786.42 182.116 1787.25 173.847 1787.25C160.652 1787.25 155.646 1816.66 155.646 1816.66L135.789 1812.93C135.789 1812.93 140.341 1786.42 150.688 1776.48C161.034 1766.54 177.166 1767.78 199.092 1767.78H295.351C304.018 1767.78 312.008 1772.38 316.41 1779.85C319.036 1784.31 321.543 1789.71 322.8 1795.53C326.111 1810.86 325.283 1816.23 325.283 1816.23L307.162 1813.35Z" fill="black"/>
<path d="M318.391 1840.17C326.989 1840.17 333.958 1833.2 333.958 1824.59C333.958 1815.98 326.989 1809.01 318.391 1809.01C309.794 1809.01 302.824 1815.98 302.824 1824.59C302.824 1833.2 309.794 1840.17 318.391 1840.17Z" fill="#8F8F8F" stroke="black" stroke-width="2" stroke-miterlimit="10" stroke-linecap="round" stroke-linejoin="round"/>
<path d="M145.594 1840.17C154.192 1840.17 161.161 1833.2 161.161 1824.59C161.161 1815.98 154.192 1809.01 145.594 1809.01C136.997 1809.01 130.027 1815.98 130.027 1824.59C130.027 1833.2 136.997 1840.17 145.594 1840.17Z" fill="#8F8F8F" stroke="black" stroke-width="2" stroke-miterlimit="10" stroke-linecap="round" stroke-linejoin="round"/>
<path d="M253.767 1782.66C253.767 1782.66 258.455 1788.53 259.625 1799.09C260.795 1809.64 259.394 1817.63 259.394 1817.63L239.235 1817.16C239.235 1817.16 242.036 1809.24 239.951 1799.19C237.795 1788.78 233.194 1784.54 233.194 1784.54L253.767 1782.66Z" fill="black"/>
<path d="M249.987 1840.17C258.585 1840.17 265.554 1833.2 265.554 1824.59C265.554 1815.98 258.585 1809.01 249.987 1809.01C241.39 1809.01 234.42 1815.98 234.42 1824.59C234.42 1833.2 241.39 1840.17 249.987 1840.17Z" fill="#8F8F8F" stroke="black" stroke-width="2" stroke-miterlimit="10" stroke-linecap="round" stroke-linejoin="round"/>
<path d="M265.523 1268.71L330.688 1574.49L141.289 1572.46C141.289 1572.46 111.762 1564.3 116.848 1502.13C121.941 1439.95 118.885 1404.27 118.885 1404.27L78.1532 1268.71H265.523V1268.71Z" fill="#EFA360" stroke="black" stroke-width="2" stroke-miterlimit="10" stroke-linecap="round" stroke-linejoin="round"/>
<path d="M78.1691 1268.71C78.1691 1268.71 113.887 1357.62 125.125 1398.33C132.964 1426.71 119.824 1464.71 122.252 1493.11C123.079 1502.82 124.623 1511.83 126.494 1519.92C132.359 1545.33 155.033 1563.28 181.082 1563.28H342.912V1585.7H163.294C140.939 1585.7 120.636 1572.45 111.842 1551.87C105.626 1537.31 100.214 1518.43 99.2992 1495.98C96.8002 1434.6 110.218 1436.59 99.4504 1391.38C89.4305 1349.29 63 1289.55 63 1289.55L78.1691 1268.71Z" fill="#EFA360" stroke="black" stroke-width="2" stroke-miterlimit="10" stroke-linecap="round" stroke-linejoin="round"/>
<path d="M499.235 1562.68L468.117 1819.75L433.529 1818.31L426.103 1492.3L499.235 1562.68Z" fill="white" stroke="black" stroke-width="2" stroke-miterlimit="10" stroke-linecap="round" stroke-linejoin="round"/>
<path d="M441.384 1491.12L398.567 1819.75L363.978 1818.31L353.378 1494.08L441.384 1491.12Z" fill="white" stroke="black" stroke-width="2" stroke-miterlimit="10" stroke-linecap="round" stroke-linejoin="round"/>
<path d="M459.179 1810.53C457.659 1806.35 460.763 1801.92 465.204 1801.92H477.516C479.084 1801.92 480.596 1802.5 481.766 1803.53L489.661 1810.53L549.263 1827.34C556.951 1829.5 562.267 1837 562.267 1845H475.319L461.296 1840.32V1845H425.825L433.226 1810.53H459.179Z" fill="#323333"/>
<path d="M517.858 1820.02L502.617 1827.92C500.898 1828.81 498.909 1828.99 497.054 1828.44C490.703 1826.55 489.788 1817.92 495.606 1814.73L501.559 1811.48C502.164 1811.14 502.872 1811.06 503.54 1811.25L517.357 1815.12C519.665 1815.77 519.983 1818.92 517.858 1820.02Z" fill="#EFA360" stroke="black" stroke-width="2" stroke-miterlimit="10" stroke-linecap="round" stroke-linejoin="round"/>
<path d="M388.133 1810.53C386.613 1806.35 389.709 1801.92 394.157 1801.92H406.469C408.037 1801.92 409.549 1802.5 410.719 1803.53L418.614 1810.53L478.216 1827.34C485.904 1829.5 491.221 1837 491.221 1845H404.273L390.25 1840.32V1845H352.757L362.18 1810.53H388.133Z" fill="black"/>
<path d="M446.334 1820.02L431.093 1827.92C429.374 1828.81 427.385 1828.99 425.53 1828.44C419.179 1826.55 418.264 1817.92 424.082 1814.73L430.035 1811.48C430.64 1811.14 431.348 1811.06 432.017 1811.25L445.833 1815.12C448.141 1815.77 448.467 1818.92 446.334 1820.02Z" fill="#EFA360" stroke="black" stroke-width="2" stroke-miterlimit="10" stroke-linecap="round" stroke-linejoin="round"/>
<path d="M546.907 1042.94L544.424 1000.24C544.424 1000.24 549.971 997.945 553.035 1004.07C556.099 1010.2 557.627 1023.8 557.627 1023.8L546.907 1042.94Z" fill="#F28377" stroke="black" stroke-width="2" stroke-miterlimit="10" stroke-linecap="round" stroke-linejoin="round"/>
<path d="M581.065 1068.11L544.535 1051.3C542.251 1050.24 541.248 1047.54 542.299 1045.25L579.776 963.656C580.827 961.37 583.532 960.366 585.817 961.417L622.347 978.235C624.631 979.287 625.634 981.995 624.583 984.282L587.106 1065.88C586.055 1068.17 583.349 1069.17 581.065 1068.11Z" fill="#EF95BD" stroke="black" stroke-width="2" stroke-miterlimit="10"/>
<path d="M568.188 1095.61C568.188 1095.61 603.15 1050.2 603.978 1046.87C604.806 1043.53 597.038 984.664 594.547 983.883C591.738 982.999 585.347 990.408 585.769 995.825C586.191 1001.24 587.313 1009.36 587.313 1009.36L584.83 1001.12C583.413 996.414 577.094 995.618 574.555 999.824C570.249 1006.97 564.567 1017.53 560.763 1024.75C558.057 1029.88 557.181 1035.78 558.28 1041.47L561.694 1059.14L544.201 1051.03L487.87 1199.45L451.093 1201.37L435.924 1269.31L502.577 1261.15C516.147 1259.83 527.424 1250.13 530.759 1236.89L568.188 1095.61Z" fill="#F28377" stroke="black" stroke-width="2" stroke-miterlimit="10" stroke-linecap="round" stroke-linejoin="round"/>
<path d="M587.313 1009.36L591.276 1031.51" stroke="black" stroke-width="2" stroke-miterlimit="10" stroke-linecap="round" stroke-linejoin="round"/>
<path d="M573.656 1003.41L582.171 1041.45" stroke="black" stroke-width="2" stroke-miterlimit="10" stroke-linecap="round" stroke-linejoin="round"/>
<path d="M565.657 1016.66L574.181 1054.71" stroke="black" stroke-width="2" stroke-miterlimit="10" stroke-linecap="round" stroke-linejoin="round"/>
<path d="M453.346 1200.96L294.691 1204.51C294.691 1204.51 186.637 1238.15 170.648 1250.43C149.017 1267.03 141.074 1433.18 141.074 1433.18L194.763 1426.63L190.051 1454.44L360.007 1474.68L408.762 1447.1L357.126 1425.62L383.764 1305.1L436.505 1279.95L453.346 1200.96Z" fill="#FFED94" stroke="black" stroke-width="2" stroke-miterlimit="10" stroke-linecap="round" stroke-linejoin="round"/>
<path d="M238.304 1437.15L278.845 1435.8C287.544 1431.51 297.102 1429.28 306.804 1429.28L437.77 1410.1C466.039 1410.1 490.87 1428.89 498.566 1456.12L506.931 1625.6C506.931 1625.6 480.612 1619.64 416.195 1651.89C325.642 1697.21 328.634 1684.19 328.634 1684.19L322.657 1549.92C322.657 1549.92 238.805 1566.3 206.191 1532.36C191.133 1516.69 189.852 1489.91 189.852 1489.91L238.304 1437.15Z" fill="#83D2E9" stroke="black" stroke-width="2" stroke-miterlimit="10" stroke-linecap="round" stroke-linejoin="round"/>
<path d="M245.3 1126.06C245.3 1126.06 246.979 1108.12 261.384 1097.56C275.98 1086.85 300.326 1081.47 320.835 1100.1C326.191 1104.97 332.144 1116.77 332.948 1124.51C335.153 1145.87 327.504 1151.27 321.583 1160.67C299.928 1195.06 275.566 1180.99 263.597 1177.04C255.718 1174.44 243.382 1163.79 241.09 1151.39C238.153 1135.57 245.3 1126.06 245.3 1126.06Z" fill="#FFED94" stroke="black" stroke-width="2" stroke-miterlimit="10" stroke-linecap="round" stroke-linejoin="round"/>
<path d="M267.305 1157.53L266.064 1199.32L248.754 1206.59C248.754 1206.59 270.831 1268.04 293.091 1265.32C308.547 1263.44 307.711 1226.43 307.711 1226.43L303.445 1176.48L267.305 1157.53Z" fill="#F28377" stroke="black" stroke-width="2" stroke-miterlimit="10" stroke-linecap="round" stroke-linejoin="round"/>
<path d="M278.209 1175.97C278.209 1175.97 280.326 1184 287.759 1190.84C295.192 1197.68 305.65 1202.62 305.65 1202.62L303.437 1179.65L278.209 1175.97Z" fill="black"/>
<path d="M319.522 1115.93C319.522 1115.93 333.378 1163.63 318.424 1176.32C303.469 1189.02 278.36 1179.18 267.56 1167.8C258.599 1158.37 259.363 1151.02 262.188 1147.99C265.929 1143.98 270.473 1147.24 270.473 1147.24C270.473 1147.24 271.627 1130.92 283.772 1129.54C307.759 1126.82 319.522 1115.93 319.522 1115.93Z" fill="#F28377" stroke="black" stroke-width="2" stroke-miterlimit="10" stroke-linecap="round" stroke-linejoin="round"/>
<path d="M293.648 1143.5C295.314 1143.5 296.665 1142.15 296.665 1140.48C296.665 1138.81 295.314 1137.46 293.648 1137.46C291.983 1137.46 290.632 1138.81 290.632 1140.48C290.632 1142.15 291.983 1143.5 293.648 1143.5Z" fill="black"/>
<path d="M315.232 1141.65C316.898 1141.65 318.249 1140.29 318.249 1138.63C318.249 1136.96 316.898 1135.61 315.232 1135.61C313.566 1135.61 312.216 1136.96 312.216 1138.63C312.216 1140.29 313.566 1141.65 315.232 1141.65Z" fill="black"/>
<path d="M305.992 1137.61C305.992 1137.61 310.56 1145.81 309.207 1148.49C307.854 1151.17 304.289 1150.53 304.289 1150.53" stroke="black" stroke-width="2" stroke-miterlimit="10" stroke-linecap="round" stroke-linejoin="round"/>
<path d="M295.893 1132.09L288.324 1135.08" stroke="black" stroke-width="2" stroke-miterlimit="10" stroke-linecap="round" stroke-linejoin="round"/>
<path d="M320.318 1133.2L312.853 1129.95" stroke="black" stroke-width="2" stroke-miterlimit="10" stroke-linecap="round" stroke-linejoin="round"/>
<path d="M272.606 1091.24C272.606 1091.24 255.75 1080.93 233.107 1099.51C219.665 1110.55 219.291 1133.8 222.873 1140.6C226.454 1147.41 228.579 1160.62 222.411 1165.02C215.718 1169.78 213.354 1186.35 221.894 1192.11C228.173 1196.35 233.521 1199.17 230.433 1204.42C224.512 1214.46 228.093 1224.54 239.769 1228.83C245.746 1231.03 242.347 1242.63 242.347 1242.63C242.347 1242.63 257.811 1250.46 264.631 1237.88C270.736 1226.62 257.055 1225.2 264.583 1217.67C271.118 1211.14 277.365 1185.29 264.281 1174.9C248.324 1162.23 261.519 1149.49 252.972 1138.48C233.251 1113.06 272.606 1091.24 272.606 1091.24Z" fill="#FFED94" stroke="black" stroke-width="2" stroke-miterlimit="10" stroke-linecap="round" stroke-linejoin="round"/>
<path d="M313.242 1158.54C313.242 1158.54 310.449 1159.47 306.987 1159C303.525 1158.53 299.02 1155.8 299.02 1155.8C299.02 1155.8 299.904 1161.43 305.745 1162.74C310.011 1163.69 313.242 1158.54 313.242 1158.54Z" fill="#F5F5F5"/>
<path d="M268.746 1174.76C273.44 1174.76 277.246 1170.95 277.246 1166.25C277.246 1161.56 273.44 1157.75 268.746 1157.75C264.051 1157.75 260.246 1161.56 260.246 1166.25C260.246 1170.95 264.051 1174.76 268.746 1174.76Z" fill="#83D2E9" stroke="black" stroke-width="2" stroke-miterlimit="10" stroke-linecap="round" stroke-linejoin="round"/>
<path d="M218.392 1422.52L223.835 1362.66" stroke="black" stroke-width="2" stroke-miterlimit="10" stroke-linecap="round" stroke-linejoin="round"/>
<path d="M453.712 1418.79C452.247 1414.39 426.74 1402.69 411.141 1395.89C403.7 1392.65 395.168 1393.13 388.133 1397.2L357.309 1414.99V1414.82L219.132 1422.91L153.394 1431.86L161.217 1468.75C166.963 1482.89 181.742 1491.17 196.8 1488.68L357.134 1455.82V1455.64C359.163 1454.76 367.369 1451.04 375.455 1444.91C385.896 1436.98 395.534 1430.4 395.534 1430.4C395.534 1430.4 430.011 1450.24 434.683 1447.65C440.803 1444.26 437.747 1440.68 437.747 1440.68C437.747 1440.68 441.503 1441.62 443.58 1438.32C445.355 1435.5 443.668 1432.66 443.668 1432.66C443.668 1432.66 447.607 1433.38 449.239 1430.18C451.412 1425.93 448.69 1424.66 448.69 1424.66C448.69 1424.66 455.16 1423.13 453.712 1418.79Z" fill="#F28377" stroke="black" stroke-width="2" stroke-miterlimit="10" stroke-linecap="round" stroke-linejoin="round"/>
<path d="M437.747 1440.47L408.316 1424.06" stroke="black" stroke-width="2" stroke-miterlimit="10" stroke-linecap="round" stroke-linejoin="round"/>
<path d="M443.978 1432.68L414.547 1416.27" stroke="black" stroke-width="2" stroke-miterlimit="10" stroke-linecap="round" stroke-linejoin="round"/>
<path d="M448.761 1425L419.331 1408.59" stroke="black" stroke-width="2" stroke-miterlimit="10" stroke-linecap="round" stroke-linejoin="round"/>
<path d="M322.65 1549.91C322.65 1549.91 342.419 1547.08 360.564 1539.19" stroke="black" stroke-width="2" stroke-miterlimit="10" stroke-linecap="round" stroke-linejoin="round"/>
<path d="M759.279 758.131C759.279 758.131 764.871 762.672 772.412 777.026C779.946 791.381 792.371 822.518 788.405 826.904C784.439 831.291 769.654 801.985 766.228 802.184C762.801 802.383 764.229 866.359 758.257 866.449C752.285 866.539 747.052 827.386 747.521 828.722C747.991 830.058 744.307 872.332 740.303 873.732C736.291 875.138 733.682 870.553 733.682 870.553C733.682 870.553 729.214 873.09 726.655 868.144C725.338 865.594 726.193 820.694 726.193 820.694C726.193 820.694 714.487 855.781 711.794 855.228C709.1 854.676 710.341 838.247 714.294 813.867C718.247 789.486 723.872 767.026 723.872 767.026L689.372 597.796C688.047 591.303 691.564 584.803 697.722 582.35C723.21 572.202 786.702 548.284 799.687 556.274C803.608 558.689 792.995 621.952 796.524 624.161C805.883 630.012 748.441 631.727 748.454 632.234C748.486 633.731 759.279 758.131 759.279 758.131Z" fill="#F28377" stroke="black" stroke-width="2" stroke-miterlimit="10" stroke-linecap="round" stroke-linejoin="round"/>
<path d="M764.254 798.086C762.448 797.219 744.912 792.864 741.652 775.016" stroke="black" stroke-width="2" stroke-miterlimit="10" stroke-linecap="round" stroke-linejoin="round"/>
<path d="M754.888 823.7C754.888 823.7 737.468 826.802 723.583 817.168" stroke="black" stroke-width="2" stroke-miterlimit="10" stroke-linecap="round" stroke-linejoin="round"/>
<path d="M738.695 823.224L734.009 870.373" stroke="black" stroke-width="2" stroke-miterlimit="10" stroke-linecap="round" stroke-linejoin="round"/>
<path d="M947.851 255.56L1072.51 181.186L1034.49 137.094L916.758 195.746L947.851 255.56Z" fill="#F28377" stroke="black" stroke-width="2" stroke-miterlimit="10" stroke-linecap="round" stroke-linejoin="round"/>
<path d="M1033.91 221.564L1078.38 233.973L1094.97 61.2935C1095.93 51.2742 1092.19 41.3769 1084.84 34.4854C1080.25 30.1822 1072.8 31.6659 1070.21 37.3949L1035.17 114.916L1022.76 119.438C1014.35 122.501 1010.96 132.938 1016.46 139.997C1016.66 140.253 1016.86 140.498 1017.08 140.735C1022.26 146.432 1029.18 150.215 1029.18 150.215L1023.03 205.443C1022.21 212.765 1026.82 219.586 1033.91 221.564Z" fill="#8F8F8F" stroke="black" stroke-width="2" stroke-miterlimit="10"/>
<path d="M1062.04 229.348C1062.04 229.348 1056.82 210.01 1060.94 179.393C1065.06 148.776 1077.14 125.115 1082.53 97.8513C1091.42 52.88 1083.63 33.188 1083.63 33.188L1087.53 36.8875C1093.19 42.2697 1096.06 49.9513 1095.32 57.7227L1078.38 233.973L1062.04 229.348Z" fill="black"/>
<path d="M1034.16 108.827C1032.41 110.677 1032.1 113.451 1033.12 115.783C1035.03 120.124 1038.61 127.626 1041.2 129.245C1044.91 131.563 1048.25 129.527 1048.86 127.234C1049.47 124.935 1043.73 119.476 1040.86 112.334C1038.42 106.271 1035.92 106.971 1034.16 108.827Z" fill="white" stroke="black" stroke-width="2" stroke-miterlimit="10" stroke-linecap="round" stroke-linejoin="round"/>
<path d="M1042.73 91.7176C1040.98 93.5673 1040.66 96.3419 1041.68 98.6734C1043.59 103.015 1047.17 110.517 1049.76 112.135C1053.47 114.454 1056.81 112.418 1057.42 110.125C1058.03 107.826 1052.3 102.366 1049.42 95.2243C1046.98 89.1549 1044.48 89.855 1042.73 91.7176Z" fill="white" stroke="black" stroke-width="2" stroke-miterlimit="10" stroke-linecap="round" stroke-linejoin="round"/>
<path d="M1050.2 74.5302C1048.45 76.38 1048.14 79.1546 1049.16 81.486C1051.07 85.8277 1054.64 93.3293 1057.24 94.9478C1060.95 97.2663 1064.29 95.2303 1064.9 92.9374C1065.51 90.6381 1059.77 85.1789 1056.9 78.037C1054.46 71.974 1051.96 72.6741 1050.2 74.5302Z" fill="white" stroke="black" stroke-width="2" stroke-miterlimit="10" stroke-linecap="round" stroke-linejoin="round"/>
<path d="M758.944 396.902C734.671 412.856 701.926 404.513 688.253 378.9L687.629 377.731C673.192 351.16 683.123 317.923 709.775 303.607L972.137 156.317L1010.68 231.481L758.944 396.902Z" fill="#8E191C" stroke="black" stroke-width="2" stroke-miterlimit="10" stroke-linecap="round" stroke-linejoin="round"/>
<path d="M784.651 631.116L903.477 642.741L952.48 636.216L1018.76 627.41C1037.76 624.886 1054.98 614.938 1066.66 599.748L1123.91 525.233L1051.55 479.972L1055.74 405.675L1005.42 364.32L830.111 393.511L822.713 528.714L756.971 541.687L784.651 631.116Z" fill="white" stroke="black" stroke-width="2" stroke-miterlimit="10" stroke-linecap="round" stroke-linejoin="round"/>
<path d="M989.918 361.109L936.042 358.784C926.066 356.523 920.081 353.794 916.109 347.647C906.955 333.504 891.553 310.364 892.665 305.913C893.764 301.52 899.98 303.684 899.98 303.684C899.98 303.684 898.379 301.173 902.449 298.784C905.515 296.985 908.427 299.67 908.427 299.67C908.427 299.67 908.523 296.401 911.506 294.994C914.996 293.344 917.638 296.125 917.638 296.125C917.638 296.125 916.983 291.507 923.9 291.937C929.177 292.265 947.485 327.14 947.485 327.14C947.485 327.14 959.017 326.465 971.989 325.701C984.961 324.937 999.039 327.981 1005.92 330.203C1060.36 347.769 1109.2 391.199 1134.27 416.459C1145.06 427.333 1147.49 443.948 1140.26 457.442L1110.23 516.351L1053.26 481.437L1075.04 439.433L989.918 361.109Z" fill="#F28377" stroke="black" stroke-width="2" stroke-miterlimit="10" stroke-linecap="round" stroke-linejoin="round"/>
<path d="M917.632 296.131L933.535 325.47" stroke="black" stroke-width="2" stroke-miterlimit="10" stroke-linecap="round" stroke-linejoin="round"/>
<path d="M908.286 299.323L924.189 328.668" stroke="black" stroke-width="2" stroke-miterlimit="10" stroke-linecap="round" stroke-linejoin="round"/>
<path d="M900.199 303.196L916.102 332.534" stroke="black" stroke-width="2" stroke-miterlimit="10" stroke-linecap="round" stroke-linejoin="round"/>
<path d="M1003.99 281.712L809.58 281.712C801.917 281.712 795.707 287.917 795.707 295.572L795.707 410.692C795.707 418.348 801.917 424.552 809.58 424.552L1003.99 424.552C1011.65 424.552 1017.86 418.348 1017.86 410.692L1017.86 295.572C1017.86 287.917 1011.65 281.712 1003.99 281.712Z" fill="#BFBFBF" stroke="black" stroke-width="2" stroke-miterlimit="10" stroke-linecap="round" stroke-linejoin="round"/>
<path d="M908.099 337.596C916.904 337.596 924.041 344.727 924.041 353.524C924.041 362.321 916.904 369.452 908.099 369.452C899.295 369.452 892.157 362.321 892.157 353.524C892.157 344.727 899.295 337.596 908.099 337.596Z" fill="white" stroke="black" stroke-width="2" stroke-miterlimit="10" stroke-linecap="round" stroke-linejoin="round"/>
<path d="M879.069 265.54L746.326 206.779L778.724 158.41L902.693 202.406L879.069 265.54Z" fill="#F28377" stroke="black" stroke-width="2" stroke-miterlimit="10" stroke-linecap="round" stroke-linejoin="round"/>
<path d="M789.524 242.2L746.885 259.895L709.511 90.4911C707.345 80.6644 709.852 70.3817 716.312 62.6617C720.343 57.8383 727.934 58.4099 731.194 63.7857L775.356 136.503L788.225 139.489C796.942 141.512 801.57 151.468 796.968 159.136C796.8 159.412 796.627 159.682 796.44 159.945C791.992 166.227 785.577 170.819 785.577 170.819L798.369 224.898C800.072 232.046 796.318 239.374 789.524 242.2Z" fill="#8F8F8F" stroke="black" stroke-width="2" stroke-miterlimit="10"/>
<path d="M762.544 253.316C762.544 253.316 765.379 233.49 757.582 203.592C749.784 173.701 734.935 151.672 726.282 125.262C712.012 81.6907 717.354 61.2089 717.354 61.2089L713.934 65.3579C708.965 71.3824 707.049 79.3528 708.733 86.9765L746.878 259.887L762.544 253.316Z" fill="black"/>
<path d="M775.626 130.318C777.58 131.942 778.236 134.659 777.503 137.093C776.133 141.634 773.491 149.508 771.113 151.435C767.712 154.184 764.158 152.566 763.27 150.363C762.383 148.16 767.417 142.045 769.403 134.608C771.094 128.295 773.659 128.686 775.626 130.318Z" fill="white" stroke="black" stroke-width="2" stroke-miterlimit="10" stroke-linecap="round" stroke-linejoin="round"/>
<path d="M765.051 114.364C767.005 115.988 767.661 118.705 766.928 121.139C765.559 125.68 762.917 133.554 760.538 135.481C757.138 138.23 753.577 136.612 752.69 134.409C751.802 132.206 756.836 126.091 758.822 118.654C760.519 112.34 763.084 112.732 765.051 114.364Z" fill="white" stroke="black" stroke-width="2" stroke-miterlimit="10" stroke-linecap="round" stroke-linejoin="round"/>
<path d="M755.55 98.211C757.504 99.8359 758.16 102.553 757.427 104.987C756.058 109.528 753.416 117.402 751.038 119.329C747.637 122.078 744.076 120.459 743.189 118.256C742.302 116.053 747.335 109.939 749.321 102.501C751.018 96.1816 753.583 96.5732 755.55 98.211Z" fill="white" stroke="black" stroke-width="2" stroke-miterlimit="10" stroke-linecap="round" stroke-linejoin="round"/>
<path d="M1083.7 383.01C1109.73 395.913 1141.22 383.678 1151.69 356.601L1152.17 355.367C1163.28 327.243 1149.4 295.457 1121.21 284.462L842.936 169.959L813.777 249.233L1083.7 383.01Z" fill="#8E191C" stroke="black" stroke-width="2" stroke-miterlimit="10" stroke-linecap="round" stroke-linejoin="round"/>
<path d="M887.387 766.744C887.387 766.744 903.233 790.283 922.363 795.652C941.494 801.021 962.199 791.843 965.767 784.611C970.479 775.067 968.184 751.072 962.141 744.714C956.105 738.349 887.387 766.744 887.387 766.744Z" fill="#20457B" stroke="black" stroke-width="2" stroke-miterlimit="10" stroke-linecap="round" stroke-linejoin="round"/>
<path d="M882.611 740.552L884.912 694.033C884.912 694.033 908.33 677.623 922.357 688.542C936.383 699.46 944.161 705.016 944.303 720.539C944.444 736.056 939.983 744.04 939.983 744.04C939.983 744.04 931.993 748.857 913.55 749.814C895.108 750.771 882.611 740.552 882.611 740.552Z" fill="#F28377" stroke="black" stroke-width="2" stroke-miterlimit="10"/>
<path d="M952.91 717.251C952.91 717.251 959.692 714.643 960.348 709.826C962.058 697.302 954.112 695.08 954.112 695.08L956.202 638.073C956.433 631.823 953.546 625.793 948.365 622.279C943.788 619.177 937.02 616.403 927.422 616.39C918.918 616.377 912.83 619.03 908.684 621.997C904.01 625.343 901.285 630.777 901.176 636.525L900.661 663.699L952.91 717.251Z" fill="#F28377" stroke="black" stroke-width="2" stroke-miterlimit="10"/>
<path d="M943.383 683.827C943.383 683.827 941.552 669.261 927.744 658.182C913.936 647.103 900.623 645.317 900.623 645.317L900.385 663.692L943.383 683.827Z" fill="black"/>
<path d="M959.345 735.722C961.428 727.206 957.776 714.232 957.776 714.232C952.608 716.095 948.584 709.685 947.922 704.585C946.977 697.296 945.338 687.045 942.959 680.545C938.935 669.543 925.057 654.437 898.514 658.76C869.452 663.487 884.97 696.788 884.97 696.788C884.97 696.788 896.303 694.515 905.393 697.231C914.482 699.955 924.176 696.429 928.348 696.223C932.52 696.018 933.008 698.625 937.784 712.492C941.789 724.117 940.626 738.426 940.15 742.742C940.06 743.577 939.989 744.033 939.989 744.033L959.345 735.722Z" fill="#8E191C" stroke="black" stroke-width="2" stroke-miterlimit="10"/>
<path d="M897.12 689.595L911.635 693.66C911.635 693.66 913.987 687.777 907.533 685.195C899.929 682.164 897.12 689.595 897.12 689.595Z" fill="white"/>
<path d="M914.746 710.924C916.443 710.924 917.819 712.299 917.819 713.995C917.819 715.69 916.443 717.064 914.746 717.064C913.049 717.064 911.673 715.69 911.673 713.995C911.673 712.299 913.049 710.924 914.746 710.924Z" fill="black"/>
<path d="M890.235 710.507C891.932 710.507 893.307 711.882 893.307 713.577C893.307 715.273 891.932 716.647 890.235 716.647C888.538 716.647 887.162 715.273 887.162 713.577C887.162 711.882 888.538 710.507 890.235 710.507Z" fill="black"/>
<path d="M901.568 719.871L898.823 702.466L905.02 702.71" stroke="black" stroke-width="2" stroke-miterlimit="10" stroke-linecap="round" stroke-linejoin="round"/>
<path d="M912.419 723.012L920.402 720.783" stroke="black" stroke-width="2" stroke-miterlimit="10" stroke-linecap="round" stroke-linejoin="round"/>
<path d="M885.324 719.299L892.549 723.371" stroke="black" stroke-width="2" stroke-miterlimit="10" stroke-linecap="round" stroke-linejoin="round"/>
<path d="M959.891 730.494C959.891 730.494 966.403 738.837 967.625 743.982C968.84 749.12 967.92 751.175 961.897 754.354C953.476 758.792 898.039 774.431 895.872 775.375C892.607 776.795 888.788 775.6 886.873 772.595C884.263 768.49 881.197 762.954 880.541 758.696C879.358 750.995 897.338 748.664 921.219 746.403C945.1 744.142 959.891 730.494 959.891 730.494Z" fill="#20457B" stroke="black" stroke-width="2" stroke-miterlimit="10" stroke-linecap="round" stroke-linejoin="round"/>
<path d="M926.882 749.338C926.959 743.088 920.904 737.115 908.427 736.955C895.949 736.794 889.952 740.873 889.952 740.873C889.952 740.873 881.197 733.641 870.404 741.579C860.716 748.708 864.946 760.526 874.563 762.992C885.497 765.799 890.299 759.877 890.299 759.877C890.299 759.877 898.681 767.514 909.982 765.529C919.657 763.834 926.779 757.411 926.882 749.338Z" fill="#8E191C" stroke="black" stroke-width="2" stroke-miterlimit="10"/>
<path d="M310.498 356.569C310.498 356.569 370.331 418.526 363.679 496.531C357.027 574.536 358.137 579.516 358.137 579.516C358.137 579.516 314.375 506.491 306.612 464.453C298.859 422.407 285.564 170.699 285.564 170.699L292.216 170.699L310.498 356.569Z" fill="#2E3716" stroke="black" stroke-width="1.722" stroke-miterlimit="10" stroke-linecap="round" stroke-linejoin="round"/>
<path d="M248.657 549.239C248.657 549.239 297.841 539.991 308.259 494.923C318.677 449.855 301.311 397.849 293.215 353.936C285.11 310.023 279.587 171.143 279.587 171.143L272.527 171.143C272.527 171.143 280.604 356.117 282.409 388.989C284.213 421.852 281.687 491.93 272.638 516.127C263.608 540.314 248.657 549.239 248.657 549.239Z" fill="black"/>
<path d="M228.765 496.679C228.765 496.679 227.979 550.708 219.624 583.978C211.26 617.248 199.991 646.064 161.9 669.993C131.628 689.007 115.085 687.991 115.085 687.991C115.085 687.991 112.319 639.809 138.345 590.981C164.362 542.153 195.023 520.044 202.452 505.142C209.872 490.23 228.765 496.679 228.765 496.679Z" fill="#2E3716" stroke="black" stroke-width="1.722" stroke-miterlimit="10" stroke-linecap="round" stroke-linejoin="round"/>
<path d="M219.902 507.664C219.902 507.664 210.742 551.355 190.573 588.653C170.403 625.95 154.499 644.114 154.499 644.114" stroke="black" stroke-width="1.722" stroke-miterlimit="10" stroke-linecap="round" stroke-linejoin="round"/>
<path d="M204.552 429.372C204.552 429.372 227.655 397.757 238.36 361.004C249.055 324.26 252.053 292.635 248.629 241.793C245.206 190.942 246.057 168.297 246.057 168.297C246.057 168.297 251.192 166.163 251.192 167.447C251.192 168.731 265.736 308.877 264.025 362.297C262.313 415.708 258.89 449.892 252.469 477.665C246.048 505.437 238.35 507.571 238.35 507.571L204.552 429.372Z" fill="#2E3716" stroke="black" stroke-width="1.722" stroke-miterlimit="10" stroke-linecap="round" stroke-linejoin="round"/>
<path d="M240.062 415.311C240.062 415.311 230.634 383.815 244.327 349.797C255.106 323.004 257.141 324.473 257.141 309.062C257.141 293.661 250.6 169.886 250.6 169.886L258.113 170.348C258.113 170.348 264.219 300.923 269.687 315.585C274.109 327.448 281.974 334.645 281.974 334.645L240.062 415.311Z" fill="black"/>
<path d="M248.657 549.239C248.657 549.239 269.493 504.171 274.692 457.939C279.901 411.717 280.475 349.889 280.475 349.889C280.475 349.889 295.454 445.393 291.466 478.164C283.954 539.991 248.657 549.239 248.657 549.239Z" fill="#586035" stroke="black" stroke-width="1.722" stroke-miterlimit="10" stroke-linecap="round" stroke-linejoin="round"/>
<path d="M247.649 425.049C258.178 432.283 278.856 437.956 298.47 419.709C318.085 401.462 321.203 369.412 312.737 333.795C304.271 298.188 294.908 282.602 294.908 282.602C294.908 282.602 282.214 318.098 257.021 363.175C237.148 398.708 234.742 416.179 247.649 425.049Z" fill="#586035" stroke="black" stroke-width="1.722" stroke-miterlimit="10" stroke-linecap="round" stroke-linejoin="round"/>
<path d="M294.899 282.602C294.899 282.602 300.274 316.639 298.97 353.724C297.665 390.809 284.324 412.475 284.324 412.475" stroke="black" stroke-width="1.722" stroke-miterlimit="10" stroke-linecap="round" stroke-linejoin="round"/>
<path d="M427 379.611C427 379.611 377.557 375.038 347.349 341.667C317.141 308.296 269.53 167.503 269.53 167.503L276.395 167.05C276.395 167.05 303.457 259.43 327.716 273.603C351.975 287.776 367.491 279.045 391.75 315.16C416.018 351.266 427 379.611 427 379.611Z" fill="#586035" stroke="black" stroke-width="1.722" stroke-miterlimit="10" stroke-linecap="round" stroke-linejoin="round"/>
<path d="M223.834 58.9993L321.961 58.9993C325.403 58.9993 328.28 61.6047 328.623 65.0139L342.01 198.637C342.408 202.573 339.309 205.982 335.349 205.982L210.825 205.982C206.875 205.982 203.785 202.582 204.164 198.656L217.172 65.0323C217.505 61.6139 220.383 58.9993 223.834 58.9993Z" fill="#FFED94" stroke="black" stroke-width="1.722" stroke-miterlimit="10"/>
<path d="M238.35 507.563C238.35 507.563 233.215 460.564 209.253 427.23C185.29 393.905 150.632 388.343 150.632 388.343C150.632 388.343 158.329 405.86 164.75 445.172C171.171 484.484 169.552 506.186 188.713 513.965C213.962 524.23 238.35 507.563 238.35 507.563Z" fill="#586035" stroke="black" stroke-width="1.722" stroke-miterlimit="10" stroke-linecap="round" stroke-linejoin="round"/>
<path d="M209.114 508.126C209.114 508.126 196.984 507.156 187.732 464.749C176.195 411.883 150.631 388.352 150.631 388.352" stroke="black" stroke-width="1.722" stroke-miterlimit="10" stroke-linecap="round" stroke-linejoin="round"/>
<path d="M677.66 1862H671.545L668.273 1751.75H680.854L677.66 1862Z" fill="black" stroke="black" stroke-width="2" stroke-miterlimit="10" stroke-linecap="round" stroke-linejoin="round"/>
<path d="M1038.94 1862H1032.82L1029.55 1751.75H1042.13L1038.94 1862Z" fill="black" stroke="black" stroke-width="2" stroke-miterlimit="10" stroke-linecap="round" stroke-linejoin="round"/>
<path d="M1141.89 1780.63H1135.78L1132.51 1670.39H1145.09L1141.89 1780.63Z" fill="black" stroke="black" stroke-width="2" stroke-miterlimit="10" stroke-linecap="round" stroke-linejoin="round"/>
<path d="M744.118 1780.63H737.996L734.724 1670.39H747.306L744.118 1780.63Z" fill="black" stroke="black" stroke-width="2" stroke-miterlimit="10" stroke-linecap="round" stroke-linejoin="round"/>
<path d="M1070.44 1573.76H648V1753.53H1070.44V1573.76Z" fill="#FFED94" stroke="black" stroke-width="2" stroke-miterlimit="10" stroke-linecap="round" stroke-linejoin="round"/>
<path d="M841.883 1584.25H660.84V1743.04H841.883V1584.25Z" fill="#EFA360" stroke="black" stroke-width="2" stroke-miterlimit="10" stroke-linecap="round" stroke-linejoin="round"/>
<path d="M1056.7 1584.25H875.655V1743.04H1056.7V1584.25Z" fill="#EFA360" stroke="black" stroke-width="2" stroke-miterlimit="10" stroke-linecap="round" stroke-linejoin="round"/>
<path d="M1070.44 1753.54L1158 1660.85V1477L1070.44 1573.76V1753.54Z" fill="#8E191C" stroke="black" stroke-width="2" stroke-miterlimit="10" stroke-linecap="round" stroke-linejoin="round"/>
<path d="M648 1573.76L747.859 1477H1158L1070.44 1573.76H648Z" fill="#C2462C" stroke="black" stroke-width="2" stroke-miterlimit="10" stroke-linecap="round" stroke-linejoin="round"/>
<path d="M730.172 1471.31L896.132 1420.2L1027.41 1454.63L844.394 1514.88L730.172 1471.31Z" fill="#8D3F1A" stroke="black" stroke-width="2" stroke-miterlimit="10" stroke-linecap="round" stroke-linejoin="round"/>
<path d="M906.008 1418.84L1031.42 1451.7L1015.51 1460.27L887.947 1424.34L906.008 1418.84Z" fill="#BE572D" stroke="black" stroke-width="2" stroke-miterlimit="10" stroke-linecap="round" stroke-linejoin="round"/>
<path d="M674.496 1292.12L865.889 1267.04C867.965 1266.76 869.921 1268.1 870.408 1270.15L906.008 1418.84C906.008 1418.84 724.943 1478.36 717.143 1473.31C711.787 1469.85 708.241 1459.18 708.241 1459.18L673.769 1308.19L674.496 1292.12Z" fill="#DA804C" stroke="black" stroke-width="2" stroke-miterlimit="10" stroke-linecap="round" stroke-linejoin="round"/>
<path d="M705.123 1457.92C705.123 1457.92 705.849 1468.33 710.591 1472.35C715.332 1476.36 721.167 1473.62 721.167 1473.62C721.167 1473.62 715.332 1467.42 714.606 1463.39C713.88 1459.38 712.419 1455.36 710.232 1455.36C708.045 1455.36 705.123 1457.92 705.123 1457.92Z" fill="black" stroke="black" stroke-width="2" stroke-miterlimit="10" stroke-linecap="round" stroke-linejoin="round"/>
<path d="M690.864 1290.02C690.864 1290.02 675.555 1294.86 675.871 1301.62C676.23 1309.33 677.622 1312.63 674.965 1312.77C673.863 1312.82 669.447 1309.92 669.002 1297.66C668.738 1289.96 690.864 1290.02 690.864 1290.02Z" fill="black" stroke="black" stroke-width="2" stroke-miterlimit="10" stroke-linecap="round" stroke-linejoin="round"/>
<path d="M691.266 1297.59L733.563 1460.47L901.266 1415.55L865.171 1271.31L691.266 1297.59Z" fill="#BE572D" stroke="black" stroke-width="2" stroke-miterlimit="10" stroke-linecap="round" stroke-linejoin="round"/>
<path d="M853.552 1498.28C914.777 1498.28 964.409 1483.38 964.409 1464.99C964.409 1446.6 914.777 1431.69 853.552 1431.69C792.328 1431.69 742.696 1446.6 742.696 1464.99C742.696 1483.38 792.328 1498.28 853.552 1498.28Z" fill="black" stroke="black" stroke-width="2" stroke-miterlimit="10" stroke-linecap="round" stroke-linejoin="round"/>
<path d="M853.552 1475.05C874.53 1475.05 891.535 1469.94 891.535 1463.64C891.535 1457.34 874.53 1452.23 853.552 1452.23C832.575 1452.23 815.569 1457.34 815.569 1463.64C815.569 1469.94 832.575 1475.05 853.552 1475.05Z" fill="white" stroke="black" stroke-width="2" stroke-miterlimit="10" stroke-linecap="round" stroke-linejoin="round"/>
<path d="M851.579 1463.93L854.372 1454.25L856.935 1463.93H851.579Z" fill="black" stroke="black" stroke-width="2" stroke-miterlimit="10" stroke-linecap="round" stroke-linejoin="round"/>
<path d="M729.548 1470.33L848.042 1510.13L846.948 1555.05L734.289 1511.23L729.548 1470.33Z" fill="#DA804C" stroke="black" stroke-width="2" stroke-miterlimit="10" stroke-linecap="round" stroke-linejoin="round"/>
<path d="M848.042 1510.14L1031.42 1451.71L1035.43 1493.7L846.948 1555.05L848.042 1510.14Z" fill="#BE572D" stroke="black" stroke-width="2" stroke-miterlimit="10" stroke-linecap="round" stroke-linejoin="round"/>
<path d="M904.871 1424.86L926.075 1438.57L922.752 1444.58L898.703 1427.55L904.871 1424.86Z" fill="#DA804C" stroke="black" stroke-width="2" stroke-miterlimit="10" stroke-linecap="round" stroke-linejoin="round"/>
<path d="M926.067 1437.85C926.067 1437.85 929.544 1440.25 932.235 1440.56C934.038 1440.78 939.189 1440.55 942.384 1440.38C943.811 1440.31 944.999 1441.47 944.947 1442.91L944.409 1457.5L936.977 1457.98L936.49 1450.57C936.438 1449.8 935.806 1449.21 935.046 1449.21C932.628 1449.23 927.63 1449.19 925.742 1448.48C923.213 1447.53 921.325 1444.44 921.325 1444.44L926.067 1437.85Z" fill="#8F888B" stroke="black" stroke-width="2" stroke-miterlimit="10" stroke-linecap="round" stroke-linejoin="round"/>
<path d="M835.15 1538.34L835.031 1550.9C835.022 1551.66 835.278 1552.38 835.817 1552.91C837.201 1554.28 840.814 1556.57 849.64 1556.96C860.575 1557.45 862.446 1553.23 862.762 1552.02C862.813 1551.84 862.822 1551.66 862.83 1551.47L863.249 1538.15C863.309 1536.24 861.506 1534.8 859.669 1535.31C856.636 1536.16 852.296 1537.17 848.905 1537.13C845.522 1537.1 841.472 1536.28 838.653 1535.59C836.876 1535.16 835.167 1536.51 835.15 1538.34Z" fill="black" stroke="black" stroke-width="2" stroke-miterlimit="10" stroke-linecap="round" stroke-linejoin="round"/>
<path d="M731.556 1499.63C731.667 1498.96 732.239 1498.51 732.914 1498.56C735.417 1498.76 741.201 1499.42 742.337 1501.41C743.516 1503.48 742.32 1511 741.807 1513.84C741.688 1514.49 741.141 1514.93 740.483 1514.89C738.629 1514.8 734.879 1514.43 732.487 1513.1C729.813 1511.61 731.026 1502.79 731.556 1499.63Z" fill="black" stroke="black" stroke-width="2" stroke-miterlimit="10" stroke-linecap="round" stroke-linejoin="round"/>
<path d="M1026.38 1483.8C1025.88 1484.16 1025.6 1484.76 1025.63 1485.39C1025.63 1485.39 1026.04 1497.07 1027.37 1497.36C1028.19 1497.54 1031.04 1496.8 1034.33 1495.34C1036.7 1494.28 1036.02 1485.38 1035.46 1480.54C1035.3 1479.14 1033.69 1478.45 1032.54 1479.29L1026.38 1483.8Z" fill="black" stroke="black" stroke-width="2" stroke-miterlimit="10" stroke-linecap="round" stroke-linejoin="round"/>
<path d="M924.905 1496.26C930.902 1496.61 929.339 1502.47 929.339 1502.47L940.411 1516.06C942.478 1518.6 945.998 1519.42 948.971 1518.06L981.674 1503.14C985.493 1501.4 987.023 1496.77 984.998 1493.09L981.111 1486.04C981.111 1486.04 976.301 1486.75 974.891 1483.27C973.43 1479.64 977.787 1474.18 983.819 1476.34C988.364 1477.98 985.98 1483.77 985.98 1483.77L995.027 1497.68C998.317 1502.74 996.3 1509.54 990.79 1511.98L951.423 1529.44C947.365 1531.24 942.615 1530.07 939.838 1526.62L924.597 1507.59C924.597 1507.59 919.232 1507.8 918.139 1504.15C917.045 1500.49 919.54 1495.94 924.905 1496.26Z" fill="#DA804C" stroke="black" stroke-width="2" stroke-miterlimit="10" stroke-linecap="round" stroke-linejoin="round"/>
<path d="M865.171 1271.31L901.266 1415.55L886.247 1419.65L853.954 1286.89L865.171 1271.31Z" fill="#8D3F1A" stroke="black" stroke-width="2" stroke-miterlimit="10" stroke-linecap="round" stroke-linejoin="round"/>
<path d="M892.783 1415.23L886.059 1416.79L887.853 1430.53L907.016 1426.42C907.016 1426.42 907.332 1422.14 904.487 1418.81C904.461 1418.78 904.427 1418.74 904.401 1418.71C901.557 1415.45 897.003 1414.26 892.783 1415.23Z" fill="#DA804C" stroke="black" stroke-width="2" stroke-miterlimit="10" stroke-linecap="round" stroke-linejoin="round"/>
<path d="M887.17 1430.54C890.359 1430.54 892.945 1427.42 892.945 1423.57C892.945 1419.72 890.359 1416.59 887.17 1416.59C883.98 1416.59 881.395 1419.72 881.395 1423.57C881.395 1427.42 883.98 1430.54 887.17 1430.54Z" fill="#DA804C" stroke="black" stroke-width="2" stroke-miterlimit="10" stroke-linecap="round" stroke-linejoin="round"/>
<path d="M853.954 1286.89L694.726 1310.99L691.266 1297.59L865.171 1271.31L853.954 1286.89Z" fill="#8D3F1A" stroke="black" stroke-width="2" stroke-miterlimit="10" stroke-linecap="round" stroke-linejoin="round"/>
</g>
<defs>
<clipPath id="clip0_339_315">
<rect width="1200" height="1920" fill="white"/>
</clipPath>
</defs>
</svg>
